M48
; DRILL file {KiCad 5.1.12-84ad8e8a86~92~ubuntu18.04.1} date Fri 19 Nov 2021 03:32:56 AM EST
; FORMAT={-:-/ absolute / metric / decimal}
; #@! TF.CreationDate,2021-11-19T03:32:56-05:00
; #@! TF.GenerationSoftware,Kicad,Pcbnew,5.1.12-84ad8e8a86~92~ubuntu18.04.1
; #@! TF.FileFunction,Plated,1,2,PTH
FMAT,2
METRIC
T1C0.300
T2C0.400
T3C0.800
%
G90
G05
T1
X138.684Y-130.048
X141.224Y-130.048
T2
X130.37Y-142.2
X132.588Y-149.225
X133.58Y-141.04
X133.985Y-127.825
X133.985Y-128.778
X134.938Y-127.825
X134.938Y-128.778
X135.37Y-140.23
X136.25Y-144.96
X136.29Y-135.12
X138.58Y-132.68
X140.64Y-143.24
X141.01Y-138.29
X142.2Y-145.32
X143.19Y-143.12
X144.272Y-132.842
X145.097Y-127.825
X145.097Y-128.778
X145.669Y-139.192
X145.76Y-137.81
X145.987Y-127.825
X145.987Y-128.778
T3
X142.55Y-147.193
X146.05Y-147.193
X148.59Y-149.408
X148.59Y-152.908
T0
M30
