%TF.GenerationSoftware,KiCad,Pcbnew,5.1.12-84ad8e8a86~92~ubuntu18.04.1*%
%TF.CreationDate,2021-11-19T03:32:58-05:00*%
%TF.ProjectId,FrameworkExpansion,4672616d-6577-46f7-926b-457870616e73,X1*%
%TF.SameCoordinates,Original*%
%TF.FileFunction,Profile,NP*%
%FSLAX46Y46*%
G04 Gerber Fmt 4.6, Leading zero omitted, Abs format (unit mm)*
G04 Created by KiCad (PCBNEW 5.1.12-84ad8e8a86~92~ubuntu18.04.1) date 2021-11-19 03:32:58*
%MOMM*%
%LPD*%
G01*
G04 APERTURE LIST*
%TA.AperFunction,Profile*%
%ADD10C,0.150000*%
%TD*%
%TA.AperFunction,Profile*%
%ADD11C,0.050000*%
%TD*%
G04 APERTURE END LIST*
D10*
X142240000Y-153543000D02*
X142240000Y-149733000D01*
X146050000Y-153543000D02*
X142240000Y-153543000D01*
X146050000Y-149733000D02*
X146050000Y-153543000D01*
X142240000Y-149733000D02*
X146050000Y-149733000D01*
D11*
X147400000Y-129700000D02*
G75*
G02*
X146400000Y-128700000I0J1000000D01*
G01*
X151000000Y-129700000D02*
G75*
G02*
X152000000Y-130700000I0J-1000000D01*
G01*
X145900000Y-127300000D02*
G75*
G02*
X146400000Y-127800000I0J-500000D01*
G01*
X151300000Y-150800000D02*
G75*
G02*
X151300000Y-149200000I0J800000D01*
G01*
X151300000Y-147500000D02*
G75*
G02*
X151300000Y-145500000I0J1000000D01*
G01*
X144700000Y-127800000D02*
G75*
G02*
X145200000Y-127300000I500000J0D01*
G01*
X134800000Y-127300000D02*
G75*
G02*
X135300000Y-127800000I0J-500000D01*
G01*
X152000000Y-153550000D02*
G75*
G02*
X151000000Y-154550000I-1000000J0D01*
G01*
X133600000Y-127800000D02*
G75*
G02*
X134100000Y-127300000I500000J0D01*
G01*
X145900000Y-127300000D02*
X145200000Y-127300000D01*
X132600000Y-129700000D02*
X129000000Y-129700000D01*
X147400000Y-129700000D02*
X151000000Y-129700000D01*
X133600000Y-128700000D02*
G75*
G02*
X132600000Y-129700000I-1000000J0D01*
G01*
X128700000Y-145500000D02*
G75*
G02*
X128700000Y-147500000I0J-1000000D01*
G01*
X128000000Y-130700000D02*
G75*
G02*
X129000000Y-129700000I1000000J0D01*
G01*
X129000000Y-154550000D02*
G75*
G02*
X128000000Y-153550000I0J1000000D01*
G01*
X128700000Y-149200000D02*
G75*
G02*
X128700000Y-150800000I0J-800000D01*
G01*
X134800000Y-127300000D02*
X134100000Y-127300000D01*
X128000000Y-150800000D02*
X128700000Y-150800000D01*
X128700000Y-149200000D02*
X128000000Y-149200000D01*
X128000000Y-145500000D02*
X128000000Y-130700000D01*
X151300000Y-149200000D02*
X152000000Y-149200000D01*
X151300000Y-150800000D02*
X152000000Y-150800000D01*
X152000000Y-145500000D02*
X152000000Y-130700000D01*
X146400000Y-128700000D02*
X146400000Y-127800000D01*
X144700000Y-128700000D02*
X144700000Y-127800000D01*
X152000000Y-153550000D02*
X152000000Y-150800000D01*
X152000000Y-149200000D02*
X152000000Y-147500000D01*
X135300000Y-128700000D02*
X135300000Y-127800000D01*
X128700000Y-145500000D02*
X128000000Y-145500000D01*
X128700000Y-147500000D02*
X128000000Y-147500000D01*
X133600000Y-128700000D02*
X133600000Y-127800000D01*
X151300000Y-147500000D02*
X152000000Y-147500000D01*
X151300000Y-145500000D02*
X152000000Y-145500000D01*
X151000000Y-154550000D02*
X129000000Y-154550000D01*
X128000000Y-149200000D02*
X128000000Y-147500000D01*
X128000000Y-150800000D02*
X128000000Y-153550000D01*
X144300000Y-129000000D02*
X144400000Y-129000000D01*
X135600000Y-129000000D02*
X135700000Y-129000000D01*
X144700000Y-128700000D02*
G75*
G02*
X144400000Y-129000000I-300000J0D01*
G01*
X135600000Y-129000000D02*
G75*
G02*
X135300000Y-128700000I0J300000D01*
G01*
%TO.C,P1*%
X143350000Y-129000000D02*
X144300000Y-129000000D01*
X143050000Y-128340000D02*
X143050000Y-128700000D01*
X137250000Y-128040000D02*
X142750000Y-128040000D01*
X136950000Y-128340000D02*
X136950000Y-128700000D01*
X136650000Y-129000000D02*
X135700000Y-129000000D01*
X143050000Y-128340000D02*
G75*
G03*
X142750000Y-128040000I-300000J0D01*
G01*
X137250000Y-128040000D02*
G75*
G03*
X136950000Y-128340000I0J-300000D01*
G01*
X143050000Y-128700000D02*
G75*
G03*
X143350000Y-129000000I300000J0D01*
G01*
X136650000Y-129000000D02*
G75*
G03*
X136950000Y-128700000I0J300000D01*
G01*
%TD*%
M02*
