G04 #@! TF.GenerationSoftware,KiCad,Pcbnew,5.0.2-bee76a0~70~ubuntu18.04.1*
G04 #@! TF.CreationDate,2020-06-29T01:54:23-07:00*
G04 #@! TF.ProjectId,qrng,71726e67-2e6b-4696-9361-645f70636258,1*
G04 #@! TF.SameCoordinates,Original*
G04 #@! TF.FileFunction,Copper,L1,Top*
G04 #@! TF.FilePolarity,Positive*
%FSLAX46Y46*%
G04 Gerber Fmt 4.6, Leading zero omitted, Abs format (unit mm)*
G04 Created by KiCad (PCBNEW 5.0.2-bee76a0~70~ubuntu18.04.1) date Mon 29 Jun 2020 01:54:23 AM MST*
%MOMM*%
%LPD*%
G01*
G04 APERTURE LIST*
G04 #@! TA.AperFunction,Conductor*
%ADD10C,0.100000*%
G04 #@! TD*
G04 #@! TA.AperFunction,SMDPad,CuDef*
%ADD11C,0.875000*%
G04 #@! TD*
G04 #@! TA.AperFunction,ComponentPad*
%ADD12O,3.500000X1.900000*%
G04 #@! TD*
G04 #@! TA.AperFunction,SMDPad,CuDef*
%ADD13C,0.500000*%
G04 #@! TD*
G04 #@! TA.AperFunction,SMDPad,CuDef*
%ADD14C,3.400000*%
G04 #@! TD*
G04 #@! TA.AperFunction,SMDPad,CuDef*
%ADD15C,0.590000*%
G04 #@! TD*
G04 #@! TA.AperFunction,SMDPad,CuDef*
%ADD16R,0.250000X1.300000*%
G04 #@! TD*
G04 #@! TA.AperFunction,SMDPad,CuDef*
%ADD17R,1.300000X0.250000*%
G04 #@! TD*
G04 #@! TA.AperFunction,ComponentPad*
%ADD18C,1.600000*%
G04 #@! TD*
G04 #@! TA.AperFunction,SMDPad,CuDef*
%ADD19R,3.500000X2.400000*%
G04 #@! TD*
G04 #@! TA.AperFunction,ViaPad*
%ADD20C,0.800000*%
G04 #@! TD*
G04 #@! TA.AperFunction,Conductor*
%ADD21C,0.250000*%
G04 #@! TD*
G04 #@! TA.AperFunction,Conductor*
%ADD22C,0.254000*%
G04 #@! TD*
G04 APERTURE END LIST*
D10*
G04 #@! TO.N,OSC_OUT*
G04 #@! TO.C,R5*
G36*
X150397691Y-99996053D02*
X150418926Y-99999203D01*
X150439750Y-100004419D01*
X150459962Y-100011651D01*
X150479368Y-100020830D01*
X150497781Y-100031866D01*
X150515024Y-100044654D01*
X150530930Y-100059070D01*
X150545346Y-100074976D01*
X150558134Y-100092219D01*
X150569170Y-100110632D01*
X150578349Y-100130038D01*
X150585581Y-100150250D01*
X150590797Y-100171074D01*
X150593947Y-100192309D01*
X150595000Y-100213750D01*
X150595000Y-100651250D01*
X150593947Y-100672691D01*
X150590797Y-100693926D01*
X150585581Y-100714750D01*
X150578349Y-100734962D01*
X150569170Y-100754368D01*
X150558134Y-100772781D01*
X150545346Y-100790024D01*
X150530930Y-100805930D01*
X150515024Y-100820346D01*
X150497781Y-100833134D01*
X150479368Y-100844170D01*
X150459962Y-100853349D01*
X150439750Y-100860581D01*
X150418926Y-100865797D01*
X150397691Y-100868947D01*
X150376250Y-100870000D01*
X149863750Y-100870000D01*
X149842309Y-100868947D01*
X149821074Y-100865797D01*
X149800250Y-100860581D01*
X149780038Y-100853349D01*
X149760632Y-100844170D01*
X149742219Y-100833134D01*
X149724976Y-100820346D01*
X149709070Y-100805930D01*
X149694654Y-100790024D01*
X149681866Y-100772781D01*
X149670830Y-100754368D01*
X149661651Y-100734962D01*
X149654419Y-100714750D01*
X149649203Y-100693926D01*
X149646053Y-100672691D01*
X149645000Y-100651250D01*
X149645000Y-100213750D01*
X149646053Y-100192309D01*
X149649203Y-100171074D01*
X149654419Y-100150250D01*
X149661651Y-100130038D01*
X149670830Y-100110632D01*
X149681866Y-100092219D01*
X149694654Y-100074976D01*
X149709070Y-100059070D01*
X149724976Y-100044654D01*
X149742219Y-100031866D01*
X149760632Y-100020830D01*
X149780038Y-100011651D01*
X149800250Y-100004419D01*
X149821074Y-99999203D01*
X149842309Y-99996053D01*
X149863750Y-99995000D01*
X150376250Y-99995000D01*
X150397691Y-99996053D01*
X150397691Y-99996053D01*
G37*
D11*
G04 #@! TD*
G04 #@! TO.P,R5,2*
G04 #@! TO.N,OSC_OUT*
X150120000Y-100432500D03*
D10*
G04 #@! TO.N,Net-(R4-Pad2)*
G04 #@! TO.C,R5*
G36*
X150397691Y-101571053D02*
X150418926Y-101574203D01*
X150439750Y-101579419D01*
X150459962Y-101586651D01*
X150479368Y-101595830D01*
X150497781Y-101606866D01*
X150515024Y-101619654D01*
X150530930Y-101634070D01*
X150545346Y-101649976D01*
X150558134Y-101667219D01*
X150569170Y-101685632D01*
X150578349Y-101705038D01*
X150585581Y-101725250D01*
X150590797Y-101746074D01*
X150593947Y-101767309D01*
X150595000Y-101788750D01*
X150595000Y-102226250D01*
X150593947Y-102247691D01*
X150590797Y-102268926D01*
X150585581Y-102289750D01*
X150578349Y-102309962D01*
X150569170Y-102329368D01*
X150558134Y-102347781D01*
X150545346Y-102365024D01*
X150530930Y-102380930D01*
X150515024Y-102395346D01*
X150497781Y-102408134D01*
X150479368Y-102419170D01*
X150459962Y-102428349D01*
X150439750Y-102435581D01*
X150418926Y-102440797D01*
X150397691Y-102443947D01*
X150376250Y-102445000D01*
X149863750Y-102445000D01*
X149842309Y-102443947D01*
X149821074Y-102440797D01*
X149800250Y-102435581D01*
X149780038Y-102428349D01*
X149760632Y-102419170D01*
X149742219Y-102408134D01*
X149724976Y-102395346D01*
X149709070Y-102380930D01*
X149694654Y-102365024D01*
X149681866Y-102347781D01*
X149670830Y-102329368D01*
X149661651Y-102309962D01*
X149654419Y-102289750D01*
X149649203Y-102268926D01*
X149646053Y-102247691D01*
X149645000Y-102226250D01*
X149645000Y-101788750D01*
X149646053Y-101767309D01*
X149649203Y-101746074D01*
X149654419Y-101725250D01*
X149661651Y-101705038D01*
X149670830Y-101685632D01*
X149681866Y-101667219D01*
X149694654Y-101649976D01*
X149709070Y-101634070D01*
X149724976Y-101619654D01*
X149742219Y-101606866D01*
X149760632Y-101595830D01*
X149780038Y-101586651D01*
X149800250Y-101579419D01*
X149821074Y-101574203D01*
X149842309Y-101571053D01*
X149863750Y-101570000D01*
X150376250Y-101570000D01*
X150397691Y-101571053D01*
X150397691Y-101571053D01*
G37*
D11*
G04 #@! TD*
G04 #@! TO.P,R5,1*
G04 #@! TO.N,Net-(R4-Pad2)*
X150120000Y-102007500D03*
D10*
G04 #@! TO.N,Net-(C13-Pad2)*
G04 #@! TO.C,R4*
G36*
X150397691Y-104661053D02*
X150418926Y-104664203D01*
X150439750Y-104669419D01*
X150459962Y-104676651D01*
X150479368Y-104685830D01*
X150497781Y-104696866D01*
X150515024Y-104709654D01*
X150530930Y-104724070D01*
X150545346Y-104739976D01*
X150558134Y-104757219D01*
X150569170Y-104775632D01*
X150578349Y-104795038D01*
X150585581Y-104815250D01*
X150590797Y-104836074D01*
X150593947Y-104857309D01*
X150595000Y-104878750D01*
X150595000Y-105316250D01*
X150593947Y-105337691D01*
X150590797Y-105358926D01*
X150585581Y-105379750D01*
X150578349Y-105399962D01*
X150569170Y-105419368D01*
X150558134Y-105437781D01*
X150545346Y-105455024D01*
X150530930Y-105470930D01*
X150515024Y-105485346D01*
X150497781Y-105498134D01*
X150479368Y-105509170D01*
X150459962Y-105518349D01*
X150439750Y-105525581D01*
X150418926Y-105530797D01*
X150397691Y-105533947D01*
X150376250Y-105535000D01*
X149863750Y-105535000D01*
X149842309Y-105533947D01*
X149821074Y-105530797D01*
X149800250Y-105525581D01*
X149780038Y-105518349D01*
X149760632Y-105509170D01*
X149742219Y-105498134D01*
X149724976Y-105485346D01*
X149709070Y-105470930D01*
X149694654Y-105455024D01*
X149681866Y-105437781D01*
X149670830Y-105419368D01*
X149661651Y-105399962D01*
X149654419Y-105379750D01*
X149649203Y-105358926D01*
X149646053Y-105337691D01*
X149645000Y-105316250D01*
X149645000Y-104878750D01*
X149646053Y-104857309D01*
X149649203Y-104836074D01*
X149654419Y-104815250D01*
X149661651Y-104795038D01*
X149670830Y-104775632D01*
X149681866Y-104757219D01*
X149694654Y-104739976D01*
X149709070Y-104724070D01*
X149724976Y-104709654D01*
X149742219Y-104696866D01*
X149760632Y-104685830D01*
X149780038Y-104676651D01*
X149800250Y-104669419D01*
X149821074Y-104664203D01*
X149842309Y-104661053D01*
X149863750Y-104660000D01*
X150376250Y-104660000D01*
X150397691Y-104661053D01*
X150397691Y-104661053D01*
G37*
D11*
G04 #@! TD*
G04 #@! TO.P,R4,1*
G04 #@! TO.N,Net-(C13-Pad2)*
X150120000Y-105097500D03*
D10*
G04 #@! TO.N,Net-(R4-Pad2)*
G04 #@! TO.C,R4*
G36*
X150397691Y-103086053D02*
X150418926Y-103089203D01*
X150439750Y-103094419D01*
X150459962Y-103101651D01*
X150479368Y-103110830D01*
X150497781Y-103121866D01*
X150515024Y-103134654D01*
X150530930Y-103149070D01*
X150545346Y-103164976D01*
X150558134Y-103182219D01*
X150569170Y-103200632D01*
X150578349Y-103220038D01*
X150585581Y-103240250D01*
X150590797Y-103261074D01*
X150593947Y-103282309D01*
X150595000Y-103303750D01*
X150595000Y-103741250D01*
X150593947Y-103762691D01*
X150590797Y-103783926D01*
X150585581Y-103804750D01*
X150578349Y-103824962D01*
X150569170Y-103844368D01*
X150558134Y-103862781D01*
X150545346Y-103880024D01*
X150530930Y-103895930D01*
X150515024Y-103910346D01*
X150497781Y-103923134D01*
X150479368Y-103934170D01*
X150459962Y-103943349D01*
X150439750Y-103950581D01*
X150418926Y-103955797D01*
X150397691Y-103958947D01*
X150376250Y-103960000D01*
X149863750Y-103960000D01*
X149842309Y-103958947D01*
X149821074Y-103955797D01*
X149800250Y-103950581D01*
X149780038Y-103943349D01*
X149760632Y-103934170D01*
X149742219Y-103923134D01*
X149724976Y-103910346D01*
X149709070Y-103895930D01*
X149694654Y-103880024D01*
X149681866Y-103862781D01*
X149670830Y-103844368D01*
X149661651Y-103824962D01*
X149654419Y-103804750D01*
X149649203Y-103783926D01*
X149646053Y-103762691D01*
X149645000Y-103741250D01*
X149645000Y-103303750D01*
X149646053Y-103282309D01*
X149649203Y-103261074D01*
X149654419Y-103240250D01*
X149661651Y-103220038D01*
X149670830Y-103200632D01*
X149681866Y-103182219D01*
X149694654Y-103164976D01*
X149709070Y-103149070D01*
X149724976Y-103134654D01*
X149742219Y-103121866D01*
X149760632Y-103110830D01*
X149780038Y-103101651D01*
X149800250Y-103094419D01*
X149821074Y-103089203D01*
X149842309Y-103086053D01*
X149863750Y-103085000D01*
X150376250Y-103085000D01*
X150397691Y-103086053D01*
X150397691Y-103086053D01*
G37*
D11*
G04 #@! TD*
G04 #@! TO.P,R4,2*
G04 #@! TO.N,Net-(R4-Pad2)*
X150120000Y-103522500D03*
D12*
G04 #@! TO.P,J1,5*
G04 #@! TO.N,GND*
X125650000Y-105700000D03*
X125650000Y-94300000D03*
G04 #@! TD*
D10*
G04 #@! TO.N,+3V3*
G04 #@! TO.C,U3*
G36*
X128782252Y-107945602D02*
X128794386Y-107947402D01*
X128806286Y-107950382D01*
X128817835Y-107954515D01*
X128828925Y-107959760D01*
X128839446Y-107966066D01*
X128849299Y-107973374D01*
X128858388Y-107981612D01*
X128866626Y-107990701D01*
X128873934Y-108000554D01*
X128880240Y-108011075D01*
X128885485Y-108022165D01*
X128889618Y-108033714D01*
X128892598Y-108045614D01*
X128894398Y-108057748D01*
X128895000Y-108070000D01*
X128895000Y-108320000D01*
X128894398Y-108332252D01*
X128892598Y-108344386D01*
X128889618Y-108356286D01*
X128885485Y-108367835D01*
X128880240Y-108378925D01*
X128873934Y-108389446D01*
X128866626Y-108399299D01*
X128858388Y-108408388D01*
X128849299Y-108416626D01*
X128839446Y-108423934D01*
X128828925Y-108430240D01*
X128817835Y-108435485D01*
X128806286Y-108439618D01*
X128794386Y-108442598D01*
X128782252Y-108444398D01*
X128770000Y-108445000D01*
X128245000Y-108445000D01*
X128232748Y-108444398D01*
X128220614Y-108442598D01*
X128208714Y-108439618D01*
X128197165Y-108435485D01*
X128186075Y-108430240D01*
X128175554Y-108423934D01*
X128165701Y-108416626D01*
X128156612Y-108408388D01*
X128148374Y-108399299D01*
X128141066Y-108389446D01*
X128134760Y-108378925D01*
X128129515Y-108367835D01*
X128125382Y-108356286D01*
X128122402Y-108344386D01*
X128120602Y-108332252D01*
X128120000Y-108320000D01*
X128120000Y-108070000D01*
X128120602Y-108057748D01*
X128122402Y-108045614D01*
X128125382Y-108033714D01*
X128129515Y-108022165D01*
X128134760Y-108011075D01*
X128141066Y-108000554D01*
X128148374Y-107990701D01*
X128156612Y-107981612D01*
X128165701Y-107973374D01*
X128175554Y-107966066D01*
X128186075Y-107959760D01*
X128197165Y-107954515D01*
X128208714Y-107950382D01*
X128220614Y-107947402D01*
X128232748Y-107945602D01*
X128245000Y-107945000D01*
X128770000Y-107945000D01*
X128782252Y-107945602D01*
X128782252Y-107945602D01*
G37*
D13*
G04 #@! TD*
G04 #@! TO.P,U3,8*
G04 #@! TO.N,+3V3*
X128507500Y-108195000D03*
D10*
G04 #@! TO.N,+3V3*
G04 #@! TO.C,U3*
G36*
X128782252Y-106675602D02*
X128794386Y-106677402D01*
X128806286Y-106680382D01*
X128817835Y-106684515D01*
X128828925Y-106689760D01*
X128839446Y-106696066D01*
X128849299Y-106703374D01*
X128858388Y-106711612D01*
X128866626Y-106720701D01*
X128873934Y-106730554D01*
X128880240Y-106741075D01*
X128885485Y-106752165D01*
X128889618Y-106763714D01*
X128892598Y-106775614D01*
X128894398Y-106787748D01*
X128895000Y-106800000D01*
X128895000Y-107050000D01*
X128894398Y-107062252D01*
X128892598Y-107074386D01*
X128889618Y-107086286D01*
X128885485Y-107097835D01*
X128880240Y-107108925D01*
X128873934Y-107119446D01*
X128866626Y-107129299D01*
X128858388Y-107138388D01*
X128849299Y-107146626D01*
X128839446Y-107153934D01*
X128828925Y-107160240D01*
X128817835Y-107165485D01*
X128806286Y-107169618D01*
X128794386Y-107172598D01*
X128782252Y-107174398D01*
X128770000Y-107175000D01*
X128245000Y-107175000D01*
X128232748Y-107174398D01*
X128220614Y-107172598D01*
X128208714Y-107169618D01*
X128197165Y-107165485D01*
X128186075Y-107160240D01*
X128175554Y-107153934D01*
X128165701Y-107146626D01*
X128156612Y-107138388D01*
X128148374Y-107129299D01*
X128141066Y-107119446D01*
X128134760Y-107108925D01*
X128129515Y-107097835D01*
X128125382Y-107086286D01*
X128122402Y-107074386D01*
X128120602Y-107062252D01*
X128120000Y-107050000D01*
X128120000Y-106800000D01*
X128120602Y-106787748D01*
X128122402Y-106775614D01*
X128125382Y-106763714D01*
X128129515Y-106752165D01*
X128134760Y-106741075D01*
X128141066Y-106730554D01*
X128148374Y-106720701D01*
X128156612Y-106711612D01*
X128165701Y-106703374D01*
X128175554Y-106696066D01*
X128186075Y-106689760D01*
X128197165Y-106684515D01*
X128208714Y-106680382D01*
X128220614Y-106677402D01*
X128232748Y-106675602D01*
X128245000Y-106675000D01*
X128770000Y-106675000D01*
X128782252Y-106675602D01*
X128782252Y-106675602D01*
G37*
D13*
G04 #@! TD*
G04 #@! TO.P,U3,7*
G04 #@! TO.N,+3V3*
X128507500Y-106925000D03*
D10*
G04 #@! TO.N,MEM_SCK*
G04 #@! TO.C,U3*
G36*
X128782252Y-105405602D02*
X128794386Y-105407402D01*
X128806286Y-105410382D01*
X128817835Y-105414515D01*
X128828925Y-105419760D01*
X128839446Y-105426066D01*
X128849299Y-105433374D01*
X128858388Y-105441612D01*
X128866626Y-105450701D01*
X128873934Y-105460554D01*
X128880240Y-105471075D01*
X128885485Y-105482165D01*
X128889618Y-105493714D01*
X128892598Y-105505614D01*
X128894398Y-105517748D01*
X128895000Y-105530000D01*
X128895000Y-105780000D01*
X128894398Y-105792252D01*
X128892598Y-105804386D01*
X128889618Y-105816286D01*
X128885485Y-105827835D01*
X128880240Y-105838925D01*
X128873934Y-105849446D01*
X128866626Y-105859299D01*
X128858388Y-105868388D01*
X128849299Y-105876626D01*
X128839446Y-105883934D01*
X128828925Y-105890240D01*
X128817835Y-105895485D01*
X128806286Y-105899618D01*
X128794386Y-105902598D01*
X128782252Y-105904398D01*
X128770000Y-105905000D01*
X128245000Y-105905000D01*
X128232748Y-105904398D01*
X128220614Y-105902598D01*
X128208714Y-105899618D01*
X128197165Y-105895485D01*
X128186075Y-105890240D01*
X128175554Y-105883934D01*
X128165701Y-105876626D01*
X128156612Y-105868388D01*
X128148374Y-105859299D01*
X128141066Y-105849446D01*
X128134760Y-105838925D01*
X128129515Y-105827835D01*
X128125382Y-105816286D01*
X128122402Y-105804386D01*
X128120602Y-105792252D01*
X128120000Y-105780000D01*
X128120000Y-105530000D01*
X128120602Y-105517748D01*
X128122402Y-105505614D01*
X128125382Y-105493714D01*
X128129515Y-105482165D01*
X128134760Y-105471075D01*
X128141066Y-105460554D01*
X128148374Y-105450701D01*
X128156612Y-105441612D01*
X128165701Y-105433374D01*
X128175554Y-105426066D01*
X128186075Y-105419760D01*
X128197165Y-105414515D01*
X128208714Y-105410382D01*
X128220614Y-105407402D01*
X128232748Y-105405602D01*
X128245000Y-105405000D01*
X128770000Y-105405000D01*
X128782252Y-105405602D01*
X128782252Y-105405602D01*
G37*
D13*
G04 #@! TD*
G04 #@! TO.P,U3,6*
G04 #@! TO.N,MEM_SCK*
X128507500Y-105655000D03*
D10*
G04 #@! TO.N,MEM_MOSI*
G04 #@! TO.C,U3*
G36*
X128782252Y-104135602D02*
X128794386Y-104137402D01*
X128806286Y-104140382D01*
X128817835Y-104144515D01*
X128828925Y-104149760D01*
X128839446Y-104156066D01*
X128849299Y-104163374D01*
X128858388Y-104171612D01*
X128866626Y-104180701D01*
X128873934Y-104190554D01*
X128880240Y-104201075D01*
X128885485Y-104212165D01*
X128889618Y-104223714D01*
X128892598Y-104235614D01*
X128894398Y-104247748D01*
X128895000Y-104260000D01*
X128895000Y-104510000D01*
X128894398Y-104522252D01*
X128892598Y-104534386D01*
X128889618Y-104546286D01*
X128885485Y-104557835D01*
X128880240Y-104568925D01*
X128873934Y-104579446D01*
X128866626Y-104589299D01*
X128858388Y-104598388D01*
X128849299Y-104606626D01*
X128839446Y-104613934D01*
X128828925Y-104620240D01*
X128817835Y-104625485D01*
X128806286Y-104629618D01*
X128794386Y-104632598D01*
X128782252Y-104634398D01*
X128770000Y-104635000D01*
X128245000Y-104635000D01*
X128232748Y-104634398D01*
X128220614Y-104632598D01*
X128208714Y-104629618D01*
X128197165Y-104625485D01*
X128186075Y-104620240D01*
X128175554Y-104613934D01*
X128165701Y-104606626D01*
X128156612Y-104598388D01*
X128148374Y-104589299D01*
X128141066Y-104579446D01*
X128134760Y-104568925D01*
X128129515Y-104557835D01*
X128125382Y-104546286D01*
X128122402Y-104534386D01*
X128120602Y-104522252D01*
X128120000Y-104510000D01*
X128120000Y-104260000D01*
X128120602Y-104247748D01*
X128122402Y-104235614D01*
X128125382Y-104223714D01*
X128129515Y-104212165D01*
X128134760Y-104201075D01*
X128141066Y-104190554D01*
X128148374Y-104180701D01*
X128156612Y-104171612D01*
X128165701Y-104163374D01*
X128175554Y-104156066D01*
X128186075Y-104149760D01*
X128197165Y-104144515D01*
X128208714Y-104140382D01*
X128220614Y-104137402D01*
X128232748Y-104135602D01*
X128245000Y-104135000D01*
X128770000Y-104135000D01*
X128782252Y-104135602D01*
X128782252Y-104135602D01*
G37*
D13*
G04 #@! TD*
G04 #@! TO.P,U3,5*
G04 #@! TO.N,MEM_MOSI*
X128507500Y-104385000D03*
D10*
G04 #@! TO.N,GND*
G04 #@! TO.C,U3*
G36*
X134107252Y-104135602D02*
X134119386Y-104137402D01*
X134131286Y-104140382D01*
X134142835Y-104144515D01*
X134153925Y-104149760D01*
X134164446Y-104156066D01*
X134174299Y-104163374D01*
X134183388Y-104171612D01*
X134191626Y-104180701D01*
X134198934Y-104190554D01*
X134205240Y-104201075D01*
X134210485Y-104212165D01*
X134214618Y-104223714D01*
X134217598Y-104235614D01*
X134219398Y-104247748D01*
X134220000Y-104260000D01*
X134220000Y-104510000D01*
X134219398Y-104522252D01*
X134217598Y-104534386D01*
X134214618Y-104546286D01*
X134210485Y-104557835D01*
X134205240Y-104568925D01*
X134198934Y-104579446D01*
X134191626Y-104589299D01*
X134183388Y-104598388D01*
X134174299Y-104606626D01*
X134164446Y-104613934D01*
X134153925Y-104620240D01*
X134142835Y-104625485D01*
X134131286Y-104629618D01*
X134119386Y-104632598D01*
X134107252Y-104634398D01*
X134095000Y-104635000D01*
X133570000Y-104635000D01*
X133557748Y-104634398D01*
X133545614Y-104632598D01*
X133533714Y-104629618D01*
X133522165Y-104625485D01*
X133511075Y-104620240D01*
X133500554Y-104613934D01*
X133490701Y-104606626D01*
X133481612Y-104598388D01*
X133473374Y-104589299D01*
X133466066Y-104579446D01*
X133459760Y-104568925D01*
X133454515Y-104557835D01*
X133450382Y-104546286D01*
X133447402Y-104534386D01*
X133445602Y-104522252D01*
X133445000Y-104510000D01*
X133445000Y-104260000D01*
X133445602Y-104247748D01*
X133447402Y-104235614D01*
X133450382Y-104223714D01*
X133454515Y-104212165D01*
X133459760Y-104201075D01*
X133466066Y-104190554D01*
X133473374Y-104180701D01*
X133481612Y-104171612D01*
X133490701Y-104163374D01*
X133500554Y-104156066D01*
X133511075Y-104149760D01*
X133522165Y-104144515D01*
X133533714Y-104140382D01*
X133545614Y-104137402D01*
X133557748Y-104135602D01*
X133570000Y-104135000D01*
X134095000Y-104135000D01*
X134107252Y-104135602D01*
X134107252Y-104135602D01*
G37*
D13*
G04 #@! TD*
G04 #@! TO.P,U3,4*
G04 #@! TO.N,GND*
X133832500Y-104385000D03*
D10*
G04 #@! TO.N,+3V3*
G04 #@! TO.C,U3*
G36*
X134107252Y-105405602D02*
X134119386Y-105407402D01*
X134131286Y-105410382D01*
X134142835Y-105414515D01*
X134153925Y-105419760D01*
X134164446Y-105426066D01*
X134174299Y-105433374D01*
X134183388Y-105441612D01*
X134191626Y-105450701D01*
X134198934Y-105460554D01*
X134205240Y-105471075D01*
X134210485Y-105482165D01*
X134214618Y-105493714D01*
X134217598Y-105505614D01*
X134219398Y-105517748D01*
X134220000Y-105530000D01*
X134220000Y-105780000D01*
X134219398Y-105792252D01*
X134217598Y-105804386D01*
X134214618Y-105816286D01*
X134210485Y-105827835D01*
X134205240Y-105838925D01*
X134198934Y-105849446D01*
X134191626Y-105859299D01*
X134183388Y-105868388D01*
X134174299Y-105876626D01*
X134164446Y-105883934D01*
X134153925Y-105890240D01*
X134142835Y-105895485D01*
X134131286Y-105899618D01*
X134119386Y-105902598D01*
X134107252Y-105904398D01*
X134095000Y-105905000D01*
X133570000Y-105905000D01*
X133557748Y-105904398D01*
X133545614Y-105902598D01*
X133533714Y-105899618D01*
X133522165Y-105895485D01*
X133511075Y-105890240D01*
X133500554Y-105883934D01*
X133490701Y-105876626D01*
X133481612Y-105868388D01*
X133473374Y-105859299D01*
X133466066Y-105849446D01*
X133459760Y-105838925D01*
X133454515Y-105827835D01*
X133450382Y-105816286D01*
X133447402Y-105804386D01*
X133445602Y-105792252D01*
X133445000Y-105780000D01*
X133445000Y-105530000D01*
X133445602Y-105517748D01*
X133447402Y-105505614D01*
X133450382Y-105493714D01*
X133454515Y-105482165D01*
X133459760Y-105471075D01*
X133466066Y-105460554D01*
X133473374Y-105450701D01*
X133481612Y-105441612D01*
X133490701Y-105433374D01*
X133500554Y-105426066D01*
X133511075Y-105419760D01*
X133522165Y-105414515D01*
X133533714Y-105410382D01*
X133545614Y-105407402D01*
X133557748Y-105405602D01*
X133570000Y-105405000D01*
X134095000Y-105405000D01*
X134107252Y-105405602D01*
X134107252Y-105405602D01*
G37*
D13*
G04 #@! TD*
G04 #@! TO.P,U3,3*
G04 #@! TO.N,+3V3*
X133832500Y-105655000D03*
D10*
G04 #@! TO.N,MEM_MISO*
G04 #@! TO.C,U3*
G36*
X134107252Y-106675602D02*
X134119386Y-106677402D01*
X134131286Y-106680382D01*
X134142835Y-106684515D01*
X134153925Y-106689760D01*
X134164446Y-106696066D01*
X134174299Y-106703374D01*
X134183388Y-106711612D01*
X134191626Y-106720701D01*
X134198934Y-106730554D01*
X134205240Y-106741075D01*
X134210485Y-106752165D01*
X134214618Y-106763714D01*
X134217598Y-106775614D01*
X134219398Y-106787748D01*
X134220000Y-106800000D01*
X134220000Y-107050000D01*
X134219398Y-107062252D01*
X134217598Y-107074386D01*
X134214618Y-107086286D01*
X134210485Y-107097835D01*
X134205240Y-107108925D01*
X134198934Y-107119446D01*
X134191626Y-107129299D01*
X134183388Y-107138388D01*
X134174299Y-107146626D01*
X134164446Y-107153934D01*
X134153925Y-107160240D01*
X134142835Y-107165485D01*
X134131286Y-107169618D01*
X134119386Y-107172598D01*
X134107252Y-107174398D01*
X134095000Y-107175000D01*
X133570000Y-107175000D01*
X133557748Y-107174398D01*
X133545614Y-107172598D01*
X133533714Y-107169618D01*
X133522165Y-107165485D01*
X133511075Y-107160240D01*
X133500554Y-107153934D01*
X133490701Y-107146626D01*
X133481612Y-107138388D01*
X133473374Y-107129299D01*
X133466066Y-107119446D01*
X133459760Y-107108925D01*
X133454515Y-107097835D01*
X133450382Y-107086286D01*
X133447402Y-107074386D01*
X133445602Y-107062252D01*
X133445000Y-107050000D01*
X133445000Y-106800000D01*
X133445602Y-106787748D01*
X133447402Y-106775614D01*
X133450382Y-106763714D01*
X133454515Y-106752165D01*
X133459760Y-106741075D01*
X133466066Y-106730554D01*
X133473374Y-106720701D01*
X133481612Y-106711612D01*
X133490701Y-106703374D01*
X133500554Y-106696066D01*
X133511075Y-106689760D01*
X133522165Y-106684515D01*
X133533714Y-106680382D01*
X133545614Y-106677402D01*
X133557748Y-106675602D01*
X133570000Y-106675000D01*
X134095000Y-106675000D01*
X134107252Y-106675602D01*
X134107252Y-106675602D01*
G37*
D13*
G04 #@! TD*
G04 #@! TO.P,U3,2*
G04 #@! TO.N,MEM_MISO*
X133832500Y-106925000D03*
D10*
G04 #@! TO.N,MEM_NSS*
G04 #@! TO.C,U3*
G36*
X134107252Y-107945602D02*
X134119386Y-107947402D01*
X134131286Y-107950382D01*
X134142835Y-107954515D01*
X134153925Y-107959760D01*
X134164446Y-107966066D01*
X134174299Y-107973374D01*
X134183388Y-107981612D01*
X134191626Y-107990701D01*
X134198934Y-108000554D01*
X134205240Y-108011075D01*
X134210485Y-108022165D01*
X134214618Y-108033714D01*
X134217598Y-108045614D01*
X134219398Y-108057748D01*
X134220000Y-108070000D01*
X134220000Y-108320000D01*
X134219398Y-108332252D01*
X134217598Y-108344386D01*
X134214618Y-108356286D01*
X134210485Y-108367835D01*
X134205240Y-108378925D01*
X134198934Y-108389446D01*
X134191626Y-108399299D01*
X134183388Y-108408388D01*
X134174299Y-108416626D01*
X134164446Y-108423934D01*
X134153925Y-108430240D01*
X134142835Y-108435485D01*
X134131286Y-108439618D01*
X134119386Y-108442598D01*
X134107252Y-108444398D01*
X134095000Y-108445000D01*
X133570000Y-108445000D01*
X133557748Y-108444398D01*
X133545614Y-108442598D01*
X133533714Y-108439618D01*
X133522165Y-108435485D01*
X133511075Y-108430240D01*
X133500554Y-108423934D01*
X133490701Y-108416626D01*
X133481612Y-108408388D01*
X133473374Y-108399299D01*
X133466066Y-108389446D01*
X133459760Y-108378925D01*
X133454515Y-108367835D01*
X133450382Y-108356286D01*
X133447402Y-108344386D01*
X133445602Y-108332252D01*
X133445000Y-108320000D01*
X133445000Y-108070000D01*
X133445602Y-108057748D01*
X133447402Y-108045614D01*
X133450382Y-108033714D01*
X133454515Y-108022165D01*
X133459760Y-108011075D01*
X133466066Y-108000554D01*
X133473374Y-107990701D01*
X133481612Y-107981612D01*
X133490701Y-107973374D01*
X133500554Y-107966066D01*
X133511075Y-107959760D01*
X133522165Y-107954515D01*
X133533714Y-107950382D01*
X133545614Y-107947402D01*
X133557748Y-107945602D01*
X133570000Y-107945000D01*
X134095000Y-107945000D01*
X134107252Y-107945602D01*
X134107252Y-107945602D01*
G37*
D13*
G04 #@! TD*
G04 #@! TO.P,U3,1*
G04 #@! TO.N,MEM_NSS*
X133832500Y-108195000D03*
D10*
G04 #@! TO.N,N/C*
G04 #@! TO.C,U3*
G36*
X132644506Y-104291204D02*
X132668774Y-104294804D01*
X132692573Y-104300765D01*
X132715672Y-104309030D01*
X132737850Y-104319519D01*
X132758893Y-104332132D01*
X132778599Y-104346747D01*
X132796777Y-104363223D01*
X132813253Y-104381401D01*
X132827868Y-104401107D01*
X132840481Y-104422150D01*
X132850970Y-104444328D01*
X132859235Y-104467427D01*
X132865196Y-104491226D01*
X132868796Y-104515494D01*
X132870000Y-104539998D01*
X132870000Y-108040002D01*
X132868796Y-108064506D01*
X132865196Y-108088774D01*
X132859235Y-108112573D01*
X132850970Y-108135672D01*
X132840481Y-108157850D01*
X132827868Y-108178893D01*
X132813253Y-108198599D01*
X132796777Y-108216777D01*
X132778599Y-108233253D01*
X132758893Y-108247868D01*
X132737850Y-108260481D01*
X132715672Y-108270970D01*
X132692573Y-108279235D01*
X132668774Y-108285196D01*
X132644506Y-108288796D01*
X132620002Y-108290000D01*
X129719998Y-108290000D01*
X129695494Y-108288796D01*
X129671226Y-108285196D01*
X129647427Y-108279235D01*
X129624328Y-108270970D01*
X129602150Y-108260481D01*
X129581107Y-108247868D01*
X129561401Y-108233253D01*
X129543223Y-108216777D01*
X129526747Y-108198599D01*
X129512132Y-108178893D01*
X129499519Y-108157850D01*
X129489030Y-108135672D01*
X129480765Y-108112573D01*
X129474804Y-108088774D01*
X129471204Y-108064506D01*
X129470000Y-108040002D01*
X129470000Y-104539998D01*
X129471204Y-104515494D01*
X129474804Y-104491226D01*
X129480765Y-104467427D01*
X129489030Y-104444328D01*
X129499519Y-104422150D01*
X129512132Y-104401107D01*
X129526747Y-104381401D01*
X129543223Y-104363223D01*
X129561401Y-104346747D01*
X129581107Y-104332132D01*
X129602150Y-104319519D01*
X129624328Y-104309030D01*
X129647427Y-104300765D01*
X129671226Y-104294804D01*
X129695494Y-104291204D01*
X129719998Y-104290000D01*
X132620002Y-104290000D01*
X132644506Y-104291204D01*
X132644506Y-104291204D01*
G37*
D14*
G04 #@! TD*
G04 #@! TO.P,U3,9*
G04 #@! TO.N,N/C*
X131170000Y-106290000D03*
D10*
G04 #@! TO.N,+3V3*
G04 #@! TO.C,C1*
G36*
X144286958Y-103695710D02*
X144301276Y-103697834D01*
X144315317Y-103701351D01*
X144328946Y-103706228D01*
X144342031Y-103712417D01*
X144354447Y-103719858D01*
X144366073Y-103728481D01*
X144376798Y-103738202D01*
X144386519Y-103748927D01*
X144395142Y-103760553D01*
X144402583Y-103772969D01*
X144408772Y-103786054D01*
X144413649Y-103799683D01*
X144417166Y-103813724D01*
X144419290Y-103828042D01*
X144420000Y-103842500D01*
X144420000Y-104137500D01*
X144419290Y-104151958D01*
X144417166Y-104166276D01*
X144413649Y-104180317D01*
X144408772Y-104193946D01*
X144402583Y-104207031D01*
X144395142Y-104219447D01*
X144386519Y-104231073D01*
X144376798Y-104241798D01*
X144366073Y-104251519D01*
X144354447Y-104260142D01*
X144342031Y-104267583D01*
X144328946Y-104273772D01*
X144315317Y-104278649D01*
X144301276Y-104282166D01*
X144286958Y-104284290D01*
X144272500Y-104285000D01*
X143927500Y-104285000D01*
X143913042Y-104284290D01*
X143898724Y-104282166D01*
X143884683Y-104278649D01*
X143871054Y-104273772D01*
X143857969Y-104267583D01*
X143845553Y-104260142D01*
X143833927Y-104251519D01*
X143823202Y-104241798D01*
X143813481Y-104231073D01*
X143804858Y-104219447D01*
X143797417Y-104207031D01*
X143791228Y-104193946D01*
X143786351Y-104180317D01*
X143782834Y-104166276D01*
X143780710Y-104151958D01*
X143780000Y-104137500D01*
X143780000Y-103842500D01*
X143780710Y-103828042D01*
X143782834Y-103813724D01*
X143786351Y-103799683D01*
X143791228Y-103786054D01*
X143797417Y-103772969D01*
X143804858Y-103760553D01*
X143813481Y-103748927D01*
X143823202Y-103738202D01*
X143833927Y-103728481D01*
X143845553Y-103719858D01*
X143857969Y-103712417D01*
X143871054Y-103706228D01*
X143884683Y-103701351D01*
X143898724Y-103697834D01*
X143913042Y-103695710D01*
X143927500Y-103695000D01*
X144272500Y-103695000D01*
X144286958Y-103695710D01*
X144286958Y-103695710D01*
G37*
D15*
G04 #@! TD*
G04 #@! TO.P,C1,1*
G04 #@! TO.N,+3V3*
X144100000Y-103990000D03*
D10*
G04 #@! TO.N,GND*
G04 #@! TO.C,C1*
G36*
X144286958Y-104665710D02*
X144301276Y-104667834D01*
X144315317Y-104671351D01*
X144328946Y-104676228D01*
X144342031Y-104682417D01*
X144354447Y-104689858D01*
X144366073Y-104698481D01*
X144376798Y-104708202D01*
X144386519Y-104718927D01*
X144395142Y-104730553D01*
X144402583Y-104742969D01*
X144408772Y-104756054D01*
X144413649Y-104769683D01*
X144417166Y-104783724D01*
X144419290Y-104798042D01*
X144420000Y-104812500D01*
X144420000Y-105107500D01*
X144419290Y-105121958D01*
X144417166Y-105136276D01*
X144413649Y-105150317D01*
X144408772Y-105163946D01*
X144402583Y-105177031D01*
X144395142Y-105189447D01*
X144386519Y-105201073D01*
X144376798Y-105211798D01*
X144366073Y-105221519D01*
X144354447Y-105230142D01*
X144342031Y-105237583D01*
X144328946Y-105243772D01*
X144315317Y-105248649D01*
X144301276Y-105252166D01*
X144286958Y-105254290D01*
X144272500Y-105255000D01*
X143927500Y-105255000D01*
X143913042Y-105254290D01*
X143898724Y-105252166D01*
X143884683Y-105248649D01*
X143871054Y-105243772D01*
X143857969Y-105237583D01*
X143845553Y-105230142D01*
X143833927Y-105221519D01*
X143823202Y-105211798D01*
X143813481Y-105201073D01*
X143804858Y-105189447D01*
X143797417Y-105177031D01*
X143791228Y-105163946D01*
X143786351Y-105150317D01*
X143782834Y-105136276D01*
X143780710Y-105121958D01*
X143780000Y-105107500D01*
X143780000Y-104812500D01*
X143780710Y-104798042D01*
X143782834Y-104783724D01*
X143786351Y-104769683D01*
X143791228Y-104756054D01*
X143797417Y-104742969D01*
X143804858Y-104730553D01*
X143813481Y-104718927D01*
X143823202Y-104708202D01*
X143833927Y-104698481D01*
X143845553Y-104689858D01*
X143857969Y-104682417D01*
X143871054Y-104676228D01*
X143884683Y-104671351D01*
X143898724Y-104667834D01*
X143913042Y-104665710D01*
X143927500Y-104665000D01*
X144272500Y-104665000D01*
X144286958Y-104665710D01*
X144286958Y-104665710D01*
G37*
D15*
G04 #@! TD*
G04 #@! TO.P,C1,2*
G04 #@! TO.N,GND*
X144100000Y-104960000D03*
D10*
G04 #@! TO.N,GND*
G04 #@! TO.C,C2*
G36*
X145286958Y-104660710D02*
X145301276Y-104662834D01*
X145315317Y-104666351D01*
X145328946Y-104671228D01*
X145342031Y-104677417D01*
X145354447Y-104684858D01*
X145366073Y-104693481D01*
X145376798Y-104703202D01*
X145386519Y-104713927D01*
X145395142Y-104725553D01*
X145402583Y-104737969D01*
X145408772Y-104751054D01*
X145413649Y-104764683D01*
X145417166Y-104778724D01*
X145419290Y-104793042D01*
X145420000Y-104807500D01*
X145420000Y-105102500D01*
X145419290Y-105116958D01*
X145417166Y-105131276D01*
X145413649Y-105145317D01*
X145408772Y-105158946D01*
X145402583Y-105172031D01*
X145395142Y-105184447D01*
X145386519Y-105196073D01*
X145376798Y-105206798D01*
X145366073Y-105216519D01*
X145354447Y-105225142D01*
X145342031Y-105232583D01*
X145328946Y-105238772D01*
X145315317Y-105243649D01*
X145301276Y-105247166D01*
X145286958Y-105249290D01*
X145272500Y-105250000D01*
X144927500Y-105250000D01*
X144913042Y-105249290D01*
X144898724Y-105247166D01*
X144884683Y-105243649D01*
X144871054Y-105238772D01*
X144857969Y-105232583D01*
X144845553Y-105225142D01*
X144833927Y-105216519D01*
X144823202Y-105206798D01*
X144813481Y-105196073D01*
X144804858Y-105184447D01*
X144797417Y-105172031D01*
X144791228Y-105158946D01*
X144786351Y-105145317D01*
X144782834Y-105131276D01*
X144780710Y-105116958D01*
X144780000Y-105102500D01*
X144780000Y-104807500D01*
X144780710Y-104793042D01*
X144782834Y-104778724D01*
X144786351Y-104764683D01*
X144791228Y-104751054D01*
X144797417Y-104737969D01*
X144804858Y-104725553D01*
X144813481Y-104713927D01*
X144823202Y-104703202D01*
X144833927Y-104693481D01*
X144845553Y-104684858D01*
X144857969Y-104677417D01*
X144871054Y-104671228D01*
X144884683Y-104666351D01*
X144898724Y-104662834D01*
X144913042Y-104660710D01*
X144927500Y-104660000D01*
X145272500Y-104660000D01*
X145286958Y-104660710D01*
X145286958Y-104660710D01*
G37*
D15*
G04 #@! TD*
G04 #@! TO.P,C2,2*
G04 #@! TO.N,GND*
X145100000Y-104955000D03*
D10*
G04 #@! TO.N,+3V3*
G04 #@! TO.C,C2*
G36*
X145286958Y-103690710D02*
X145301276Y-103692834D01*
X145315317Y-103696351D01*
X145328946Y-103701228D01*
X145342031Y-103707417D01*
X145354447Y-103714858D01*
X145366073Y-103723481D01*
X145376798Y-103733202D01*
X145386519Y-103743927D01*
X145395142Y-103755553D01*
X145402583Y-103767969D01*
X145408772Y-103781054D01*
X145413649Y-103794683D01*
X145417166Y-103808724D01*
X145419290Y-103823042D01*
X145420000Y-103837500D01*
X145420000Y-104132500D01*
X145419290Y-104146958D01*
X145417166Y-104161276D01*
X145413649Y-104175317D01*
X145408772Y-104188946D01*
X145402583Y-104202031D01*
X145395142Y-104214447D01*
X145386519Y-104226073D01*
X145376798Y-104236798D01*
X145366073Y-104246519D01*
X145354447Y-104255142D01*
X145342031Y-104262583D01*
X145328946Y-104268772D01*
X145315317Y-104273649D01*
X145301276Y-104277166D01*
X145286958Y-104279290D01*
X145272500Y-104280000D01*
X144927500Y-104280000D01*
X144913042Y-104279290D01*
X144898724Y-104277166D01*
X144884683Y-104273649D01*
X144871054Y-104268772D01*
X144857969Y-104262583D01*
X144845553Y-104255142D01*
X144833927Y-104246519D01*
X144823202Y-104236798D01*
X144813481Y-104226073D01*
X144804858Y-104214447D01*
X144797417Y-104202031D01*
X144791228Y-104188946D01*
X144786351Y-104175317D01*
X144782834Y-104161276D01*
X144780710Y-104146958D01*
X144780000Y-104132500D01*
X144780000Y-103837500D01*
X144780710Y-103823042D01*
X144782834Y-103808724D01*
X144786351Y-103794683D01*
X144791228Y-103781054D01*
X144797417Y-103767969D01*
X144804858Y-103755553D01*
X144813481Y-103743927D01*
X144823202Y-103733202D01*
X144833927Y-103723481D01*
X144845553Y-103714858D01*
X144857969Y-103707417D01*
X144871054Y-103701228D01*
X144884683Y-103696351D01*
X144898724Y-103692834D01*
X144913042Y-103690710D01*
X144927500Y-103690000D01*
X145272500Y-103690000D01*
X145286958Y-103690710D01*
X145286958Y-103690710D01*
G37*
D15*
G04 #@! TD*
G04 #@! TO.P,C2,1*
G04 #@! TO.N,+3V3*
X145100000Y-103985000D03*
D10*
G04 #@! TO.N,+3V3*
G04 #@! TO.C,C3*
G36*
X144846958Y-102700710D02*
X144861276Y-102702834D01*
X144875317Y-102706351D01*
X144888946Y-102711228D01*
X144902031Y-102717417D01*
X144914447Y-102724858D01*
X144926073Y-102733481D01*
X144936798Y-102743202D01*
X144946519Y-102753927D01*
X144955142Y-102765553D01*
X144962583Y-102777969D01*
X144968772Y-102791054D01*
X144973649Y-102804683D01*
X144977166Y-102818724D01*
X144979290Y-102833042D01*
X144980000Y-102847500D01*
X144980000Y-103192500D01*
X144979290Y-103206958D01*
X144977166Y-103221276D01*
X144973649Y-103235317D01*
X144968772Y-103248946D01*
X144962583Y-103262031D01*
X144955142Y-103274447D01*
X144946519Y-103286073D01*
X144936798Y-103296798D01*
X144926073Y-103306519D01*
X144914447Y-103315142D01*
X144902031Y-103322583D01*
X144888946Y-103328772D01*
X144875317Y-103333649D01*
X144861276Y-103337166D01*
X144846958Y-103339290D01*
X144832500Y-103340000D01*
X144537500Y-103340000D01*
X144523042Y-103339290D01*
X144508724Y-103337166D01*
X144494683Y-103333649D01*
X144481054Y-103328772D01*
X144467969Y-103322583D01*
X144455553Y-103315142D01*
X144443927Y-103306519D01*
X144433202Y-103296798D01*
X144423481Y-103286073D01*
X144414858Y-103274447D01*
X144407417Y-103262031D01*
X144401228Y-103248946D01*
X144396351Y-103235317D01*
X144392834Y-103221276D01*
X144390710Y-103206958D01*
X144390000Y-103192500D01*
X144390000Y-102847500D01*
X144390710Y-102833042D01*
X144392834Y-102818724D01*
X144396351Y-102804683D01*
X144401228Y-102791054D01*
X144407417Y-102777969D01*
X144414858Y-102765553D01*
X144423481Y-102753927D01*
X144433202Y-102743202D01*
X144443927Y-102733481D01*
X144455553Y-102724858D01*
X144467969Y-102717417D01*
X144481054Y-102711228D01*
X144494683Y-102706351D01*
X144508724Y-102702834D01*
X144523042Y-102700710D01*
X144537500Y-102700000D01*
X144832500Y-102700000D01*
X144846958Y-102700710D01*
X144846958Y-102700710D01*
G37*
D15*
G04 #@! TD*
G04 #@! TO.P,C3,1*
G04 #@! TO.N,+3V3*
X144685000Y-103020000D03*
D10*
G04 #@! TO.N,GND*
G04 #@! TO.C,C3*
G36*
X145816958Y-102700710D02*
X145831276Y-102702834D01*
X145845317Y-102706351D01*
X145858946Y-102711228D01*
X145872031Y-102717417D01*
X145884447Y-102724858D01*
X145896073Y-102733481D01*
X145906798Y-102743202D01*
X145916519Y-102753927D01*
X145925142Y-102765553D01*
X145932583Y-102777969D01*
X145938772Y-102791054D01*
X145943649Y-102804683D01*
X145947166Y-102818724D01*
X145949290Y-102833042D01*
X145950000Y-102847500D01*
X145950000Y-103192500D01*
X145949290Y-103206958D01*
X145947166Y-103221276D01*
X145943649Y-103235317D01*
X145938772Y-103248946D01*
X145932583Y-103262031D01*
X145925142Y-103274447D01*
X145916519Y-103286073D01*
X145906798Y-103296798D01*
X145896073Y-103306519D01*
X145884447Y-103315142D01*
X145872031Y-103322583D01*
X145858946Y-103328772D01*
X145845317Y-103333649D01*
X145831276Y-103337166D01*
X145816958Y-103339290D01*
X145802500Y-103340000D01*
X145507500Y-103340000D01*
X145493042Y-103339290D01*
X145478724Y-103337166D01*
X145464683Y-103333649D01*
X145451054Y-103328772D01*
X145437969Y-103322583D01*
X145425553Y-103315142D01*
X145413927Y-103306519D01*
X145403202Y-103296798D01*
X145393481Y-103286073D01*
X145384858Y-103274447D01*
X145377417Y-103262031D01*
X145371228Y-103248946D01*
X145366351Y-103235317D01*
X145362834Y-103221276D01*
X145360710Y-103206958D01*
X145360000Y-103192500D01*
X145360000Y-102847500D01*
X145360710Y-102833042D01*
X145362834Y-102818724D01*
X145366351Y-102804683D01*
X145371228Y-102791054D01*
X145377417Y-102777969D01*
X145384858Y-102765553D01*
X145393481Y-102753927D01*
X145403202Y-102743202D01*
X145413927Y-102733481D01*
X145425553Y-102724858D01*
X145437969Y-102717417D01*
X145451054Y-102711228D01*
X145464683Y-102706351D01*
X145478724Y-102702834D01*
X145493042Y-102700710D01*
X145507500Y-102700000D01*
X145802500Y-102700000D01*
X145816958Y-102700710D01*
X145816958Y-102700710D01*
G37*
D15*
G04 #@! TD*
G04 #@! TO.P,C3,2*
G04 #@! TO.N,GND*
X145655000Y-103020000D03*
D10*
G04 #@! TO.N,GND*
G04 #@! TO.C,C4*
G36*
X135396958Y-102690710D02*
X135411276Y-102692834D01*
X135425317Y-102696351D01*
X135438946Y-102701228D01*
X135452031Y-102707417D01*
X135464447Y-102714858D01*
X135476073Y-102723481D01*
X135486798Y-102733202D01*
X135496519Y-102743927D01*
X135505142Y-102755553D01*
X135512583Y-102767969D01*
X135518772Y-102781054D01*
X135523649Y-102794683D01*
X135527166Y-102808724D01*
X135529290Y-102823042D01*
X135530000Y-102837500D01*
X135530000Y-103182500D01*
X135529290Y-103196958D01*
X135527166Y-103211276D01*
X135523649Y-103225317D01*
X135518772Y-103238946D01*
X135512583Y-103252031D01*
X135505142Y-103264447D01*
X135496519Y-103276073D01*
X135486798Y-103286798D01*
X135476073Y-103296519D01*
X135464447Y-103305142D01*
X135452031Y-103312583D01*
X135438946Y-103318772D01*
X135425317Y-103323649D01*
X135411276Y-103327166D01*
X135396958Y-103329290D01*
X135382500Y-103330000D01*
X135087500Y-103330000D01*
X135073042Y-103329290D01*
X135058724Y-103327166D01*
X135044683Y-103323649D01*
X135031054Y-103318772D01*
X135017969Y-103312583D01*
X135005553Y-103305142D01*
X134993927Y-103296519D01*
X134983202Y-103286798D01*
X134973481Y-103276073D01*
X134964858Y-103264447D01*
X134957417Y-103252031D01*
X134951228Y-103238946D01*
X134946351Y-103225317D01*
X134942834Y-103211276D01*
X134940710Y-103196958D01*
X134940000Y-103182500D01*
X134940000Y-102837500D01*
X134940710Y-102823042D01*
X134942834Y-102808724D01*
X134946351Y-102794683D01*
X134951228Y-102781054D01*
X134957417Y-102767969D01*
X134964858Y-102755553D01*
X134973481Y-102743927D01*
X134983202Y-102733202D01*
X134993927Y-102723481D01*
X135005553Y-102714858D01*
X135017969Y-102707417D01*
X135031054Y-102701228D01*
X135044683Y-102696351D01*
X135058724Y-102692834D01*
X135073042Y-102690710D01*
X135087500Y-102690000D01*
X135382500Y-102690000D01*
X135396958Y-102690710D01*
X135396958Y-102690710D01*
G37*
D15*
G04 #@! TD*
G04 #@! TO.P,C4,2*
G04 #@! TO.N,GND*
X135235000Y-103010000D03*
D10*
G04 #@! TO.N,+3V3*
G04 #@! TO.C,C4*
G36*
X136366958Y-102690710D02*
X136381276Y-102692834D01*
X136395317Y-102696351D01*
X136408946Y-102701228D01*
X136422031Y-102707417D01*
X136434447Y-102714858D01*
X136446073Y-102723481D01*
X136456798Y-102733202D01*
X136466519Y-102743927D01*
X136475142Y-102755553D01*
X136482583Y-102767969D01*
X136488772Y-102781054D01*
X136493649Y-102794683D01*
X136497166Y-102808724D01*
X136499290Y-102823042D01*
X136500000Y-102837500D01*
X136500000Y-103182500D01*
X136499290Y-103196958D01*
X136497166Y-103211276D01*
X136493649Y-103225317D01*
X136488772Y-103238946D01*
X136482583Y-103252031D01*
X136475142Y-103264447D01*
X136466519Y-103276073D01*
X136456798Y-103286798D01*
X136446073Y-103296519D01*
X136434447Y-103305142D01*
X136422031Y-103312583D01*
X136408946Y-103318772D01*
X136395317Y-103323649D01*
X136381276Y-103327166D01*
X136366958Y-103329290D01*
X136352500Y-103330000D01*
X136057500Y-103330000D01*
X136043042Y-103329290D01*
X136028724Y-103327166D01*
X136014683Y-103323649D01*
X136001054Y-103318772D01*
X135987969Y-103312583D01*
X135975553Y-103305142D01*
X135963927Y-103296519D01*
X135953202Y-103286798D01*
X135943481Y-103276073D01*
X135934858Y-103264447D01*
X135927417Y-103252031D01*
X135921228Y-103238946D01*
X135916351Y-103225317D01*
X135912834Y-103211276D01*
X135910710Y-103196958D01*
X135910000Y-103182500D01*
X135910000Y-102837500D01*
X135910710Y-102823042D01*
X135912834Y-102808724D01*
X135916351Y-102794683D01*
X135921228Y-102781054D01*
X135927417Y-102767969D01*
X135934858Y-102755553D01*
X135943481Y-102743927D01*
X135953202Y-102733202D01*
X135963927Y-102723481D01*
X135975553Y-102714858D01*
X135987969Y-102707417D01*
X136001054Y-102701228D01*
X136014683Y-102696351D01*
X136028724Y-102692834D01*
X136043042Y-102690710D01*
X136057500Y-102690000D01*
X136352500Y-102690000D01*
X136366958Y-102690710D01*
X136366958Y-102690710D01*
G37*
D15*
G04 #@! TD*
G04 #@! TO.P,C4,1*
G04 #@! TO.N,+3V3*
X136205000Y-103010000D03*
D10*
G04 #@! TO.N,+3V3*
G04 #@! TO.C,C5*
G36*
X136976958Y-94700710D02*
X136991276Y-94702834D01*
X137005317Y-94706351D01*
X137018946Y-94711228D01*
X137032031Y-94717417D01*
X137044447Y-94724858D01*
X137056073Y-94733481D01*
X137066798Y-94743202D01*
X137076519Y-94753927D01*
X137085142Y-94765553D01*
X137092583Y-94777969D01*
X137098772Y-94791054D01*
X137103649Y-94804683D01*
X137107166Y-94818724D01*
X137109290Y-94833042D01*
X137110000Y-94847500D01*
X137110000Y-95142500D01*
X137109290Y-95156958D01*
X137107166Y-95171276D01*
X137103649Y-95185317D01*
X137098772Y-95198946D01*
X137092583Y-95212031D01*
X137085142Y-95224447D01*
X137076519Y-95236073D01*
X137066798Y-95246798D01*
X137056073Y-95256519D01*
X137044447Y-95265142D01*
X137032031Y-95272583D01*
X137018946Y-95278772D01*
X137005317Y-95283649D01*
X136991276Y-95287166D01*
X136976958Y-95289290D01*
X136962500Y-95290000D01*
X136617500Y-95290000D01*
X136603042Y-95289290D01*
X136588724Y-95287166D01*
X136574683Y-95283649D01*
X136561054Y-95278772D01*
X136547969Y-95272583D01*
X136535553Y-95265142D01*
X136523927Y-95256519D01*
X136513202Y-95246798D01*
X136503481Y-95236073D01*
X136494858Y-95224447D01*
X136487417Y-95212031D01*
X136481228Y-95198946D01*
X136476351Y-95185317D01*
X136472834Y-95171276D01*
X136470710Y-95156958D01*
X136470000Y-95142500D01*
X136470000Y-94847500D01*
X136470710Y-94833042D01*
X136472834Y-94818724D01*
X136476351Y-94804683D01*
X136481228Y-94791054D01*
X136487417Y-94777969D01*
X136494858Y-94765553D01*
X136503481Y-94753927D01*
X136513202Y-94743202D01*
X136523927Y-94733481D01*
X136535553Y-94724858D01*
X136547969Y-94717417D01*
X136561054Y-94711228D01*
X136574683Y-94706351D01*
X136588724Y-94702834D01*
X136603042Y-94700710D01*
X136617500Y-94700000D01*
X136962500Y-94700000D01*
X136976958Y-94700710D01*
X136976958Y-94700710D01*
G37*
D15*
G04 #@! TD*
G04 #@! TO.P,C5,1*
G04 #@! TO.N,+3V3*
X136790000Y-94995000D03*
D10*
G04 #@! TO.N,GND*
G04 #@! TO.C,C5*
G36*
X136976958Y-93730710D02*
X136991276Y-93732834D01*
X137005317Y-93736351D01*
X137018946Y-93741228D01*
X137032031Y-93747417D01*
X137044447Y-93754858D01*
X137056073Y-93763481D01*
X137066798Y-93773202D01*
X137076519Y-93783927D01*
X137085142Y-93795553D01*
X137092583Y-93807969D01*
X137098772Y-93821054D01*
X137103649Y-93834683D01*
X137107166Y-93848724D01*
X137109290Y-93863042D01*
X137110000Y-93877500D01*
X137110000Y-94172500D01*
X137109290Y-94186958D01*
X137107166Y-94201276D01*
X137103649Y-94215317D01*
X137098772Y-94228946D01*
X137092583Y-94242031D01*
X137085142Y-94254447D01*
X137076519Y-94266073D01*
X137066798Y-94276798D01*
X137056073Y-94286519D01*
X137044447Y-94295142D01*
X137032031Y-94302583D01*
X137018946Y-94308772D01*
X137005317Y-94313649D01*
X136991276Y-94317166D01*
X136976958Y-94319290D01*
X136962500Y-94320000D01*
X136617500Y-94320000D01*
X136603042Y-94319290D01*
X136588724Y-94317166D01*
X136574683Y-94313649D01*
X136561054Y-94308772D01*
X136547969Y-94302583D01*
X136535553Y-94295142D01*
X136523927Y-94286519D01*
X136513202Y-94276798D01*
X136503481Y-94266073D01*
X136494858Y-94254447D01*
X136487417Y-94242031D01*
X136481228Y-94228946D01*
X136476351Y-94215317D01*
X136472834Y-94201276D01*
X136470710Y-94186958D01*
X136470000Y-94172500D01*
X136470000Y-93877500D01*
X136470710Y-93863042D01*
X136472834Y-93848724D01*
X136476351Y-93834683D01*
X136481228Y-93821054D01*
X136487417Y-93807969D01*
X136494858Y-93795553D01*
X136503481Y-93783927D01*
X136513202Y-93773202D01*
X136523927Y-93763481D01*
X136535553Y-93754858D01*
X136547969Y-93747417D01*
X136561054Y-93741228D01*
X136574683Y-93736351D01*
X136588724Y-93732834D01*
X136603042Y-93730710D01*
X136617500Y-93730000D01*
X136962500Y-93730000D01*
X136976958Y-93730710D01*
X136976958Y-93730710D01*
G37*
D15*
G04 #@! TD*
G04 #@! TO.P,C5,2*
G04 #@! TO.N,GND*
X136790000Y-94025000D03*
D10*
G04 #@! TO.N,GND*
G04 #@! TO.C,C6*
G36*
X135986958Y-93730710D02*
X136001276Y-93732834D01*
X136015317Y-93736351D01*
X136028946Y-93741228D01*
X136042031Y-93747417D01*
X136054447Y-93754858D01*
X136066073Y-93763481D01*
X136076798Y-93773202D01*
X136086519Y-93783927D01*
X136095142Y-93795553D01*
X136102583Y-93807969D01*
X136108772Y-93821054D01*
X136113649Y-93834683D01*
X136117166Y-93848724D01*
X136119290Y-93863042D01*
X136120000Y-93877500D01*
X136120000Y-94172500D01*
X136119290Y-94186958D01*
X136117166Y-94201276D01*
X136113649Y-94215317D01*
X136108772Y-94228946D01*
X136102583Y-94242031D01*
X136095142Y-94254447D01*
X136086519Y-94266073D01*
X136076798Y-94276798D01*
X136066073Y-94286519D01*
X136054447Y-94295142D01*
X136042031Y-94302583D01*
X136028946Y-94308772D01*
X136015317Y-94313649D01*
X136001276Y-94317166D01*
X135986958Y-94319290D01*
X135972500Y-94320000D01*
X135627500Y-94320000D01*
X135613042Y-94319290D01*
X135598724Y-94317166D01*
X135584683Y-94313649D01*
X135571054Y-94308772D01*
X135557969Y-94302583D01*
X135545553Y-94295142D01*
X135533927Y-94286519D01*
X135523202Y-94276798D01*
X135513481Y-94266073D01*
X135504858Y-94254447D01*
X135497417Y-94242031D01*
X135491228Y-94228946D01*
X135486351Y-94215317D01*
X135482834Y-94201276D01*
X135480710Y-94186958D01*
X135480000Y-94172500D01*
X135480000Y-93877500D01*
X135480710Y-93863042D01*
X135482834Y-93848724D01*
X135486351Y-93834683D01*
X135491228Y-93821054D01*
X135497417Y-93807969D01*
X135504858Y-93795553D01*
X135513481Y-93783927D01*
X135523202Y-93773202D01*
X135533927Y-93763481D01*
X135545553Y-93754858D01*
X135557969Y-93747417D01*
X135571054Y-93741228D01*
X135584683Y-93736351D01*
X135598724Y-93732834D01*
X135613042Y-93730710D01*
X135627500Y-93730000D01*
X135972500Y-93730000D01*
X135986958Y-93730710D01*
X135986958Y-93730710D01*
G37*
D15*
G04 #@! TD*
G04 #@! TO.P,C6,2*
G04 #@! TO.N,GND*
X135800000Y-94025000D03*
D10*
G04 #@! TO.N,+3V3*
G04 #@! TO.C,C6*
G36*
X135986958Y-94700710D02*
X136001276Y-94702834D01*
X136015317Y-94706351D01*
X136028946Y-94711228D01*
X136042031Y-94717417D01*
X136054447Y-94724858D01*
X136066073Y-94733481D01*
X136076798Y-94743202D01*
X136086519Y-94753927D01*
X136095142Y-94765553D01*
X136102583Y-94777969D01*
X136108772Y-94791054D01*
X136113649Y-94804683D01*
X136117166Y-94818724D01*
X136119290Y-94833042D01*
X136120000Y-94847500D01*
X136120000Y-95142500D01*
X136119290Y-95156958D01*
X136117166Y-95171276D01*
X136113649Y-95185317D01*
X136108772Y-95198946D01*
X136102583Y-95212031D01*
X136095142Y-95224447D01*
X136086519Y-95236073D01*
X136076798Y-95246798D01*
X136066073Y-95256519D01*
X136054447Y-95265142D01*
X136042031Y-95272583D01*
X136028946Y-95278772D01*
X136015317Y-95283649D01*
X136001276Y-95287166D01*
X135986958Y-95289290D01*
X135972500Y-95290000D01*
X135627500Y-95290000D01*
X135613042Y-95289290D01*
X135598724Y-95287166D01*
X135584683Y-95283649D01*
X135571054Y-95278772D01*
X135557969Y-95272583D01*
X135545553Y-95265142D01*
X135533927Y-95256519D01*
X135523202Y-95246798D01*
X135513481Y-95236073D01*
X135504858Y-95224447D01*
X135497417Y-95212031D01*
X135491228Y-95198946D01*
X135486351Y-95185317D01*
X135482834Y-95171276D01*
X135480710Y-95156958D01*
X135480000Y-95142500D01*
X135480000Y-94847500D01*
X135480710Y-94833042D01*
X135482834Y-94818724D01*
X135486351Y-94804683D01*
X135491228Y-94791054D01*
X135497417Y-94777969D01*
X135504858Y-94765553D01*
X135513481Y-94753927D01*
X135523202Y-94743202D01*
X135533927Y-94733481D01*
X135545553Y-94724858D01*
X135557969Y-94717417D01*
X135571054Y-94711228D01*
X135584683Y-94706351D01*
X135598724Y-94702834D01*
X135613042Y-94700710D01*
X135627500Y-94700000D01*
X135972500Y-94700000D01*
X135986958Y-94700710D01*
X135986958Y-94700710D01*
G37*
D15*
G04 #@! TD*
G04 #@! TO.P,C6,1*
G04 #@! TO.N,+3V3*
X135800000Y-94995000D03*
D10*
G04 #@! TO.N,+3V3*
G04 #@! TO.C,C7*
G36*
X136366958Y-103750710D02*
X136381276Y-103752834D01*
X136395317Y-103756351D01*
X136408946Y-103761228D01*
X136422031Y-103767417D01*
X136434447Y-103774858D01*
X136446073Y-103783481D01*
X136456798Y-103793202D01*
X136466519Y-103803927D01*
X136475142Y-103815553D01*
X136482583Y-103827969D01*
X136488772Y-103841054D01*
X136493649Y-103854683D01*
X136497166Y-103868724D01*
X136499290Y-103883042D01*
X136500000Y-103897500D01*
X136500000Y-104242500D01*
X136499290Y-104256958D01*
X136497166Y-104271276D01*
X136493649Y-104285317D01*
X136488772Y-104298946D01*
X136482583Y-104312031D01*
X136475142Y-104324447D01*
X136466519Y-104336073D01*
X136456798Y-104346798D01*
X136446073Y-104356519D01*
X136434447Y-104365142D01*
X136422031Y-104372583D01*
X136408946Y-104378772D01*
X136395317Y-104383649D01*
X136381276Y-104387166D01*
X136366958Y-104389290D01*
X136352500Y-104390000D01*
X136057500Y-104390000D01*
X136043042Y-104389290D01*
X136028724Y-104387166D01*
X136014683Y-104383649D01*
X136001054Y-104378772D01*
X135987969Y-104372583D01*
X135975553Y-104365142D01*
X135963927Y-104356519D01*
X135953202Y-104346798D01*
X135943481Y-104336073D01*
X135934858Y-104324447D01*
X135927417Y-104312031D01*
X135921228Y-104298946D01*
X135916351Y-104285317D01*
X135912834Y-104271276D01*
X135910710Y-104256958D01*
X135910000Y-104242500D01*
X135910000Y-103897500D01*
X135910710Y-103883042D01*
X135912834Y-103868724D01*
X135916351Y-103854683D01*
X135921228Y-103841054D01*
X135927417Y-103827969D01*
X135934858Y-103815553D01*
X135943481Y-103803927D01*
X135953202Y-103793202D01*
X135963927Y-103783481D01*
X135975553Y-103774858D01*
X135987969Y-103767417D01*
X136001054Y-103761228D01*
X136014683Y-103756351D01*
X136028724Y-103752834D01*
X136043042Y-103750710D01*
X136057500Y-103750000D01*
X136352500Y-103750000D01*
X136366958Y-103750710D01*
X136366958Y-103750710D01*
G37*
D15*
G04 #@! TD*
G04 #@! TO.P,C7,1*
G04 #@! TO.N,+3V3*
X136205000Y-104070000D03*
D10*
G04 #@! TO.N,GND*
G04 #@! TO.C,C7*
G36*
X135396958Y-103750710D02*
X135411276Y-103752834D01*
X135425317Y-103756351D01*
X135438946Y-103761228D01*
X135452031Y-103767417D01*
X135464447Y-103774858D01*
X135476073Y-103783481D01*
X135486798Y-103793202D01*
X135496519Y-103803927D01*
X135505142Y-103815553D01*
X135512583Y-103827969D01*
X135518772Y-103841054D01*
X135523649Y-103854683D01*
X135527166Y-103868724D01*
X135529290Y-103883042D01*
X135530000Y-103897500D01*
X135530000Y-104242500D01*
X135529290Y-104256958D01*
X135527166Y-104271276D01*
X135523649Y-104285317D01*
X135518772Y-104298946D01*
X135512583Y-104312031D01*
X135505142Y-104324447D01*
X135496519Y-104336073D01*
X135486798Y-104346798D01*
X135476073Y-104356519D01*
X135464447Y-104365142D01*
X135452031Y-104372583D01*
X135438946Y-104378772D01*
X135425317Y-104383649D01*
X135411276Y-104387166D01*
X135396958Y-104389290D01*
X135382500Y-104390000D01*
X135087500Y-104390000D01*
X135073042Y-104389290D01*
X135058724Y-104387166D01*
X135044683Y-104383649D01*
X135031054Y-104378772D01*
X135017969Y-104372583D01*
X135005553Y-104365142D01*
X134993927Y-104356519D01*
X134983202Y-104346798D01*
X134973481Y-104336073D01*
X134964858Y-104324447D01*
X134957417Y-104312031D01*
X134951228Y-104298946D01*
X134946351Y-104285317D01*
X134942834Y-104271276D01*
X134940710Y-104256958D01*
X134940000Y-104242500D01*
X134940000Y-103897500D01*
X134940710Y-103883042D01*
X134942834Y-103868724D01*
X134946351Y-103854683D01*
X134951228Y-103841054D01*
X134957417Y-103827969D01*
X134964858Y-103815553D01*
X134973481Y-103803927D01*
X134983202Y-103793202D01*
X134993927Y-103783481D01*
X135005553Y-103774858D01*
X135017969Y-103767417D01*
X135031054Y-103761228D01*
X135044683Y-103756351D01*
X135058724Y-103752834D01*
X135073042Y-103750710D01*
X135087500Y-103750000D01*
X135382500Y-103750000D01*
X135396958Y-103750710D01*
X135396958Y-103750710D01*
G37*
D15*
G04 #@! TD*
G04 #@! TO.P,C7,2*
G04 #@! TO.N,GND*
X135235000Y-104070000D03*
D10*
G04 #@! TO.N,+3.3VA*
G04 #@! TO.C,C11*
G36*
X146361958Y-97690710D02*
X146376276Y-97692834D01*
X146390317Y-97696351D01*
X146403946Y-97701228D01*
X146417031Y-97707417D01*
X146429447Y-97714858D01*
X146441073Y-97723481D01*
X146451798Y-97733202D01*
X146461519Y-97743927D01*
X146470142Y-97755553D01*
X146477583Y-97767969D01*
X146483772Y-97781054D01*
X146488649Y-97794683D01*
X146492166Y-97808724D01*
X146494290Y-97823042D01*
X146495000Y-97837500D01*
X146495000Y-98182500D01*
X146494290Y-98196958D01*
X146492166Y-98211276D01*
X146488649Y-98225317D01*
X146483772Y-98238946D01*
X146477583Y-98252031D01*
X146470142Y-98264447D01*
X146461519Y-98276073D01*
X146451798Y-98286798D01*
X146441073Y-98296519D01*
X146429447Y-98305142D01*
X146417031Y-98312583D01*
X146403946Y-98318772D01*
X146390317Y-98323649D01*
X146376276Y-98327166D01*
X146361958Y-98329290D01*
X146347500Y-98330000D01*
X146052500Y-98330000D01*
X146038042Y-98329290D01*
X146023724Y-98327166D01*
X146009683Y-98323649D01*
X145996054Y-98318772D01*
X145982969Y-98312583D01*
X145970553Y-98305142D01*
X145958927Y-98296519D01*
X145948202Y-98286798D01*
X145938481Y-98276073D01*
X145929858Y-98264447D01*
X145922417Y-98252031D01*
X145916228Y-98238946D01*
X145911351Y-98225317D01*
X145907834Y-98211276D01*
X145905710Y-98196958D01*
X145905000Y-98182500D01*
X145905000Y-97837500D01*
X145905710Y-97823042D01*
X145907834Y-97808724D01*
X145911351Y-97794683D01*
X145916228Y-97781054D01*
X145922417Y-97767969D01*
X145929858Y-97755553D01*
X145938481Y-97743927D01*
X145948202Y-97733202D01*
X145958927Y-97723481D01*
X145970553Y-97714858D01*
X145982969Y-97707417D01*
X145996054Y-97701228D01*
X146009683Y-97696351D01*
X146023724Y-97692834D01*
X146038042Y-97690710D01*
X146052500Y-97690000D01*
X146347500Y-97690000D01*
X146361958Y-97690710D01*
X146361958Y-97690710D01*
G37*
D15*
G04 #@! TD*
G04 #@! TO.P,C11,1*
G04 #@! TO.N,+3.3VA*
X146200000Y-98010000D03*
D10*
G04 #@! TO.N,GND*
G04 #@! TO.C,C11*
G36*
X147331958Y-97690710D02*
X147346276Y-97692834D01*
X147360317Y-97696351D01*
X147373946Y-97701228D01*
X147387031Y-97707417D01*
X147399447Y-97714858D01*
X147411073Y-97723481D01*
X147421798Y-97733202D01*
X147431519Y-97743927D01*
X147440142Y-97755553D01*
X147447583Y-97767969D01*
X147453772Y-97781054D01*
X147458649Y-97794683D01*
X147462166Y-97808724D01*
X147464290Y-97823042D01*
X147465000Y-97837500D01*
X147465000Y-98182500D01*
X147464290Y-98196958D01*
X147462166Y-98211276D01*
X147458649Y-98225317D01*
X147453772Y-98238946D01*
X147447583Y-98252031D01*
X147440142Y-98264447D01*
X147431519Y-98276073D01*
X147421798Y-98286798D01*
X147411073Y-98296519D01*
X147399447Y-98305142D01*
X147387031Y-98312583D01*
X147373946Y-98318772D01*
X147360317Y-98323649D01*
X147346276Y-98327166D01*
X147331958Y-98329290D01*
X147317500Y-98330000D01*
X147022500Y-98330000D01*
X147008042Y-98329290D01*
X146993724Y-98327166D01*
X146979683Y-98323649D01*
X146966054Y-98318772D01*
X146952969Y-98312583D01*
X146940553Y-98305142D01*
X146928927Y-98296519D01*
X146918202Y-98286798D01*
X146908481Y-98276073D01*
X146899858Y-98264447D01*
X146892417Y-98252031D01*
X146886228Y-98238946D01*
X146881351Y-98225317D01*
X146877834Y-98211276D01*
X146875710Y-98196958D01*
X146875000Y-98182500D01*
X146875000Y-97837500D01*
X146875710Y-97823042D01*
X146877834Y-97808724D01*
X146881351Y-97794683D01*
X146886228Y-97781054D01*
X146892417Y-97767969D01*
X146899858Y-97755553D01*
X146908481Y-97743927D01*
X146918202Y-97733202D01*
X146928927Y-97723481D01*
X146940553Y-97714858D01*
X146952969Y-97707417D01*
X146966054Y-97701228D01*
X146979683Y-97696351D01*
X146993724Y-97692834D01*
X147008042Y-97690710D01*
X147022500Y-97690000D01*
X147317500Y-97690000D01*
X147331958Y-97690710D01*
X147331958Y-97690710D01*
G37*
D15*
G04 #@! TD*
G04 #@! TO.P,C11,2*
G04 #@! TO.N,GND*
X147170000Y-98010000D03*
D16*
G04 #@! TO.P,U2,48*
G04 #@! TO.N,+3V3*
X143200000Y-103700000D03*
G04 #@! TO.P,U2,47*
G04 #@! TO.N,GND*
X142700000Y-103700000D03*
G04 #@! TO.P,U2,46*
G04 #@! TO.N,N/C*
X142200000Y-103700000D03*
G04 #@! TO.P,U2,45*
X141700000Y-103700000D03*
G04 #@! TO.P,U2,44*
X141200000Y-103700000D03*
G04 #@! TO.P,U2,43*
X140700000Y-103700000D03*
G04 #@! TO.P,U2,42*
X140200000Y-103700000D03*
G04 #@! TO.P,U2,41*
X139700000Y-103700000D03*
G04 #@! TO.P,U2,40*
X139200000Y-103700000D03*
G04 #@! TO.P,U2,39*
G04 #@! TO.N,TRACE*
X138700000Y-103700000D03*
G04 #@! TO.P,U2,38*
G04 #@! TO.N,N/C*
X138200000Y-103700000D03*
G04 #@! TO.P,U2,37*
G04 #@! TO.N,SWCLK*
X137700000Y-103700000D03*
D17*
G04 #@! TO.P,U2,36*
G04 #@! TO.N,+3V3*
X136100000Y-102100000D03*
G04 #@! TO.P,U2,35*
G04 #@! TO.N,GND*
X136100000Y-101600000D03*
G04 #@! TO.P,U2,34*
G04 #@! TO.N,SWDIO*
X136100000Y-101100000D03*
G04 #@! TO.P,U2,33*
G04 #@! TO.N,USB_D+*
X136100000Y-100600000D03*
G04 #@! TO.P,U2,32*
G04 #@! TO.N,USB_D-*
X136100000Y-100100000D03*
G04 #@! TO.P,U2,31*
G04 #@! TO.N,N/C*
X136100000Y-99600000D03*
G04 #@! TO.P,U2,30*
X136100000Y-99100000D03*
G04 #@! TO.P,U2,29*
X136100000Y-98600000D03*
G04 #@! TO.P,U2,28*
G04 #@! TO.N,MEM_MOSI*
X136100000Y-98100000D03*
G04 #@! TO.P,U2,27*
G04 #@! TO.N,MEM_MISO*
X136100000Y-97600000D03*
G04 #@! TO.P,U2,26*
G04 #@! TO.N,MEM_SCK*
X136100000Y-97100000D03*
G04 #@! TO.P,U2,25*
G04 #@! TO.N,MEM_NSS*
X136100000Y-96600000D03*
D16*
G04 #@! TO.P,U2,24*
G04 #@! TO.N,+3V3*
X137700000Y-95000000D03*
G04 #@! TO.P,U2,23*
G04 #@! TO.N,GND*
X138200000Y-95000000D03*
G04 #@! TO.P,U2,22*
G04 #@! TO.N,N/C*
X138700000Y-95000000D03*
G04 #@! TO.P,U2,21*
X139200000Y-95000000D03*
G04 #@! TO.P,U2,20*
X139700000Y-95000000D03*
G04 #@! TO.P,U2,19*
X140200000Y-95000000D03*
G04 #@! TO.P,U2,18*
X140700000Y-95000000D03*
G04 #@! TO.P,U2,17*
X141200000Y-95000000D03*
G04 #@! TO.P,U2,16*
X141700000Y-95000000D03*
G04 #@! TO.P,U2,15*
X142200000Y-95000000D03*
G04 #@! TO.P,U2,14*
G04 #@! TO.N,trigger*
X142700000Y-95000000D03*
G04 #@! TO.P,U2,13*
G04 #@! TO.N,N/C*
X143200000Y-95000000D03*
D17*
G04 #@! TO.P,U2,12*
G04 #@! TO.N,ADC2*
X144800000Y-96600000D03*
G04 #@! TO.P,U2,11*
G04 #@! TO.N,ADC1*
X144800000Y-97100000D03*
G04 #@! TO.P,U2,10*
G04 #@! TO.N,N/C*
X144800000Y-97600000D03*
G04 #@! TO.P,U2,9*
G04 #@! TO.N,+3.3VA*
X144800000Y-98100000D03*
G04 #@! TO.P,U2,8*
G04 #@! TO.N,GND*
X144800000Y-98600000D03*
G04 #@! TO.P,U2,7*
G04 #@! TO.N,N/C*
X144800000Y-99100000D03*
G04 #@! TO.P,U2,6*
G04 #@! TO.N,OSC_OUT*
X144800000Y-99600000D03*
G04 #@! TO.P,U2,5*
G04 #@! TO.N,OSC_IN*
X144800000Y-100100000D03*
G04 #@! TO.P,U2,4*
G04 #@! TO.N,N/C*
X144800000Y-100600000D03*
G04 #@! TO.P,U2,3*
X144800000Y-101100000D03*
G04 #@! TO.P,U2,2*
X144800000Y-101600000D03*
G04 #@! TO.P,U2,1*
G04 #@! TO.N,+3V3*
X144800000Y-102100000D03*
G04 #@! TD*
D18*
G04 #@! TO.P,R2,2*
G04 #@! TO.N,+3V3*
X158040000Y-92750000D03*
G04 #@! TO.P,R2,1*
G04 #@! TO.N,ADC2*
X155500000Y-92750000D03*
G04 #@! TD*
G04 #@! TO.P,R3,1*
G04 #@! TO.N,+3V3*
X164250000Y-99000000D03*
G04 #@! TO.P,R3,2*
G04 #@! TO.N,ADC1*
X164250000Y-101540000D03*
G04 #@! TD*
D19*
G04 #@! TO.P,Y1,1*
G04 #@! TO.N,OSC_IN*
X144870000Y-108180000D03*
G04 #@! TO.P,Y1,2*
G04 #@! TO.N,Net-(C13-Pad2)*
X150070000Y-108180000D03*
G04 #@! TD*
D10*
G04 #@! TO.N,OSC_IN*
G04 #@! TO.C,C12*
G36*
X142327691Y-106726053D02*
X142348926Y-106729203D01*
X142369750Y-106734419D01*
X142389962Y-106741651D01*
X142409368Y-106750830D01*
X142427781Y-106761866D01*
X142445024Y-106774654D01*
X142460930Y-106789070D01*
X142475346Y-106804976D01*
X142488134Y-106822219D01*
X142499170Y-106840632D01*
X142508349Y-106860038D01*
X142515581Y-106880250D01*
X142520797Y-106901074D01*
X142523947Y-106922309D01*
X142525000Y-106943750D01*
X142525000Y-107381250D01*
X142523947Y-107402691D01*
X142520797Y-107423926D01*
X142515581Y-107444750D01*
X142508349Y-107464962D01*
X142499170Y-107484368D01*
X142488134Y-107502781D01*
X142475346Y-107520024D01*
X142460930Y-107535930D01*
X142445024Y-107550346D01*
X142427781Y-107563134D01*
X142409368Y-107574170D01*
X142389962Y-107583349D01*
X142369750Y-107590581D01*
X142348926Y-107595797D01*
X142327691Y-107598947D01*
X142306250Y-107600000D01*
X141793750Y-107600000D01*
X141772309Y-107598947D01*
X141751074Y-107595797D01*
X141730250Y-107590581D01*
X141710038Y-107583349D01*
X141690632Y-107574170D01*
X141672219Y-107563134D01*
X141654976Y-107550346D01*
X141639070Y-107535930D01*
X141624654Y-107520024D01*
X141611866Y-107502781D01*
X141600830Y-107484368D01*
X141591651Y-107464962D01*
X141584419Y-107444750D01*
X141579203Y-107423926D01*
X141576053Y-107402691D01*
X141575000Y-107381250D01*
X141575000Y-106943750D01*
X141576053Y-106922309D01*
X141579203Y-106901074D01*
X141584419Y-106880250D01*
X141591651Y-106860038D01*
X141600830Y-106840632D01*
X141611866Y-106822219D01*
X141624654Y-106804976D01*
X141639070Y-106789070D01*
X141654976Y-106774654D01*
X141672219Y-106761866D01*
X141690632Y-106750830D01*
X141710038Y-106741651D01*
X141730250Y-106734419D01*
X141751074Y-106729203D01*
X141772309Y-106726053D01*
X141793750Y-106725000D01*
X142306250Y-106725000D01*
X142327691Y-106726053D01*
X142327691Y-106726053D01*
G37*
D11*
G04 #@! TD*
G04 #@! TO.P,C12,2*
G04 #@! TO.N,OSC_IN*
X142050000Y-107162500D03*
D10*
G04 #@! TO.N,GND*
G04 #@! TO.C,C12*
G36*
X142327691Y-108301053D02*
X142348926Y-108304203D01*
X142369750Y-108309419D01*
X142389962Y-108316651D01*
X142409368Y-108325830D01*
X142427781Y-108336866D01*
X142445024Y-108349654D01*
X142460930Y-108364070D01*
X142475346Y-108379976D01*
X142488134Y-108397219D01*
X142499170Y-108415632D01*
X142508349Y-108435038D01*
X142515581Y-108455250D01*
X142520797Y-108476074D01*
X142523947Y-108497309D01*
X142525000Y-108518750D01*
X142525000Y-108956250D01*
X142523947Y-108977691D01*
X142520797Y-108998926D01*
X142515581Y-109019750D01*
X142508349Y-109039962D01*
X142499170Y-109059368D01*
X142488134Y-109077781D01*
X142475346Y-109095024D01*
X142460930Y-109110930D01*
X142445024Y-109125346D01*
X142427781Y-109138134D01*
X142409368Y-109149170D01*
X142389962Y-109158349D01*
X142369750Y-109165581D01*
X142348926Y-109170797D01*
X142327691Y-109173947D01*
X142306250Y-109175000D01*
X141793750Y-109175000D01*
X141772309Y-109173947D01*
X141751074Y-109170797D01*
X141730250Y-109165581D01*
X141710038Y-109158349D01*
X141690632Y-109149170D01*
X141672219Y-109138134D01*
X141654976Y-109125346D01*
X141639070Y-109110930D01*
X141624654Y-109095024D01*
X141611866Y-109077781D01*
X141600830Y-109059368D01*
X141591651Y-109039962D01*
X141584419Y-109019750D01*
X141579203Y-108998926D01*
X141576053Y-108977691D01*
X141575000Y-108956250D01*
X141575000Y-108518750D01*
X141576053Y-108497309D01*
X141579203Y-108476074D01*
X141584419Y-108455250D01*
X141591651Y-108435038D01*
X141600830Y-108415632D01*
X141611866Y-108397219D01*
X141624654Y-108379976D01*
X141639070Y-108364070D01*
X141654976Y-108349654D01*
X141672219Y-108336866D01*
X141690632Y-108325830D01*
X141710038Y-108316651D01*
X141730250Y-108309419D01*
X141751074Y-108304203D01*
X141772309Y-108301053D01*
X141793750Y-108300000D01*
X142306250Y-108300000D01*
X142327691Y-108301053D01*
X142327691Y-108301053D01*
G37*
D11*
G04 #@! TD*
G04 #@! TO.P,C12,1*
G04 #@! TO.N,GND*
X142050000Y-108737500D03*
D10*
G04 #@! TO.N,GND*
G04 #@! TO.C,C13*
G36*
X153167691Y-108508553D02*
X153188926Y-108511703D01*
X153209750Y-108516919D01*
X153229962Y-108524151D01*
X153249368Y-108533330D01*
X153267781Y-108544366D01*
X153285024Y-108557154D01*
X153300930Y-108571570D01*
X153315346Y-108587476D01*
X153328134Y-108604719D01*
X153339170Y-108623132D01*
X153348349Y-108642538D01*
X153355581Y-108662750D01*
X153360797Y-108683574D01*
X153363947Y-108704809D01*
X153365000Y-108726250D01*
X153365000Y-109163750D01*
X153363947Y-109185191D01*
X153360797Y-109206426D01*
X153355581Y-109227250D01*
X153348349Y-109247462D01*
X153339170Y-109266868D01*
X153328134Y-109285281D01*
X153315346Y-109302524D01*
X153300930Y-109318430D01*
X153285024Y-109332846D01*
X153267781Y-109345634D01*
X153249368Y-109356670D01*
X153229962Y-109365849D01*
X153209750Y-109373081D01*
X153188926Y-109378297D01*
X153167691Y-109381447D01*
X153146250Y-109382500D01*
X152633750Y-109382500D01*
X152612309Y-109381447D01*
X152591074Y-109378297D01*
X152570250Y-109373081D01*
X152550038Y-109365849D01*
X152530632Y-109356670D01*
X152512219Y-109345634D01*
X152494976Y-109332846D01*
X152479070Y-109318430D01*
X152464654Y-109302524D01*
X152451866Y-109285281D01*
X152440830Y-109266868D01*
X152431651Y-109247462D01*
X152424419Y-109227250D01*
X152419203Y-109206426D01*
X152416053Y-109185191D01*
X152415000Y-109163750D01*
X152415000Y-108726250D01*
X152416053Y-108704809D01*
X152419203Y-108683574D01*
X152424419Y-108662750D01*
X152431651Y-108642538D01*
X152440830Y-108623132D01*
X152451866Y-108604719D01*
X152464654Y-108587476D01*
X152479070Y-108571570D01*
X152494976Y-108557154D01*
X152512219Y-108544366D01*
X152530632Y-108533330D01*
X152550038Y-108524151D01*
X152570250Y-108516919D01*
X152591074Y-108511703D01*
X152612309Y-108508553D01*
X152633750Y-108507500D01*
X153146250Y-108507500D01*
X153167691Y-108508553D01*
X153167691Y-108508553D01*
G37*
D11*
G04 #@! TD*
G04 #@! TO.P,C13,1*
G04 #@! TO.N,GND*
X152890000Y-108945000D03*
D10*
G04 #@! TO.N,Net-(C13-Pad2)*
G04 #@! TO.C,C13*
G36*
X153167691Y-106933553D02*
X153188926Y-106936703D01*
X153209750Y-106941919D01*
X153229962Y-106949151D01*
X153249368Y-106958330D01*
X153267781Y-106969366D01*
X153285024Y-106982154D01*
X153300930Y-106996570D01*
X153315346Y-107012476D01*
X153328134Y-107029719D01*
X153339170Y-107048132D01*
X153348349Y-107067538D01*
X153355581Y-107087750D01*
X153360797Y-107108574D01*
X153363947Y-107129809D01*
X153365000Y-107151250D01*
X153365000Y-107588750D01*
X153363947Y-107610191D01*
X153360797Y-107631426D01*
X153355581Y-107652250D01*
X153348349Y-107672462D01*
X153339170Y-107691868D01*
X153328134Y-107710281D01*
X153315346Y-107727524D01*
X153300930Y-107743430D01*
X153285024Y-107757846D01*
X153267781Y-107770634D01*
X153249368Y-107781670D01*
X153229962Y-107790849D01*
X153209750Y-107798081D01*
X153188926Y-107803297D01*
X153167691Y-107806447D01*
X153146250Y-107807500D01*
X152633750Y-107807500D01*
X152612309Y-107806447D01*
X152591074Y-107803297D01*
X152570250Y-107798081D01*
X152550038Y-107790849D01*
X152530632Y-107781670D01*
X152512219Y-107770634D01*
X152494976Y-107757846D01*
X152479070Y-107743430D01*
X152464654Y-107727524D01*
X152451866Y-107710281D01*
X152440830Y-107691868D01*
X152431651Y-107672462D01*
X152424419Y-107652250D01*
X152419203Y-107631426D01*
X152416053Y-107610191D01*
X152415000Y-107588750D01*
X152415000Y-107151250D01*
X152416053Y-107129809D01*
X152419203Y-107108574D01*
X152424419Y-107087750D01*
X152431651Y-107067538D01*
X152440830Y-107048132D01*
X152451866Y-107029719D01*
X152464654Y-107012476D01*
X152479070Y-106996570D01*
X152494976Y-106982154D01*
X152512219Y-106969366D01*
X152530632Y-106958330D01*
X152550038Y-106949151D01*
X152570250Y-106941919D01*
X152591074Y-106936703D01*
X152612309Y-106933553D01*
X152633750Y-106932500D01*
X153146250Y-106932500D01*
X153167691Y-106933553D01*
X153167691Y-106933553D01*
G37*
D11*
G04 #@! TD*
G04 #@! TO.P,C13,2*
G04 #@! TO.N,Net-(C13-Pad2)*
X152890000Y-107370000D03*
D20*
G04 #@! TO.N,GND*
X154180000Y-108960000D03*
X140750000Y-108720000D03*
X141500000Y-93000000D03*
X145500000Y-93000000D03*
X136810000Y-93100000D03*
X149830000Y-97600000D03*
X146600000Y-104970000D03*
X146070000Y-101970000D03*
X134150000Y-103150000D03*
G04 #@! TO.N,+3V3*
X161150000Y-92780000D03*
X142500000Y-92090000D03*
X135095000Y-105600000D03*
X146130000Y-104030000D03*
G04 #@! TO.N,+3.3VA*
X147710000Y-96950000D03*
G04 #@! TO.N,SWCLK*
X137775000Y-108400000D03*
G04 #@! TO.N,SWDIO*
X136675000Y-108400000D03*
G04 #@! TO.N,TRACE*
X138875000Y-108400000D03*
G04 #@! TO.N,ADC1*
X148740000Y-96120000D03*
G04 #@! TO.N,ADC2*
X148740000Y-94910000D03*
G04 #@! TO.N,USB_D-*
X134400000Y-99600000D03*
G04 #@! TO.N,USB_D+*
X134400000Y-101100000D03*
G04 #@! TO.N,trigger*
X155750000Y-106000000D03*
G04 #@! TO.N,MEM_NSS*
X126300000Y-108100000D03*
X130650000Y-102630000D03*
X135000000Y-108200000D03*
G04 #@! TO.N,MEM_MISO*
X134990000Y-106920000D03*
X132420000Y-102640000D03*
G04 #@! TO.N,MEM_SCK*
X127380000Y-108100000D03*
X131530000Y-102640000D03*
G04 #@! TD*
D21*
G04 #@! TO.N,GND*
X141500000Y-93000000D02*
X145500000Y-93000000D01*
X147170000Y-98010000D02*
X147170000Y-98920000D01*
X135885000Y-94025000D02*
X136810000Y-93100000D01*
X135800000Y-94025000D02*
X135885000Y-94025000D01*
X136790000Y-93120000D02*
X136810000Y-93100000D01*
X136790000Y-94025000D02*
X136790000Y-93120000D01*
X137209999Y-93499999D02*
X136810000Y-93100000D01*
X137599999Y-93499999D02*
X137209999Y-93499999D01*
X138200000Y-94100000D02*
X137599999Y-93499999D01*
X138200000Y-95000000D02*
X138200000Y-94100000D01*
X146604315Y-98920000D02*
X147170000Y-98920000D01*
X145905001Y-98920000D02*
X146604315Y-98920000D01*
X145585001Y-98600000D02*
X145905001Y-98920000D01*
X144800000Y-98600000D02*
X145585001Y-98600000D01*
X142700000Y-104600000D02*
X142700000Y-103700000D01*
X143060000Y-104960000D02*
X142700000Y-104600000D01*
X144100000Y-104960000D02*
X144100000Y-104960000D01*
X145095000Y-104960000D02*
X145100000Y-104955000D01*
X144100000Y-104960000D02*
X145095000Y-104960000D01*
X146070000Y-102605000D02*
X146070000Y-101970000D01*
X145655000Y-103020000D02*
X146070000Y-102605000D01*
X144100000Y-104960000D02*
X143060000Y-104960000D01*
X145100000Y-104955000D02*
X146205000Y-104955000D01*
X135235000Y-104070000D02*
X135235000Y-103150000D01*
X135239998Y-101600000D02*
X134900832Y-101939166D01*
X135235000Y-103150000D02*
X135235000Y-103010000D01*
X133832500Y-103467500D02*
X134150000Y-103150000D01*
X133832500Y-104385000D02*
X133832500Y-103467500D01*
X134290000Y-103010000D02*
X134150000Y-103150000D01*
X135235000Y-103010000D02*
X134290000Y-103010000D01*
X135239998Y-101600000D02*
X135425000Y-101600000D01*
X134549999Y-102289999D02*
X135239998Y-101600000D01*
X134549999Y-102750001D02*
X134549999Y-102289999D01*
X134150000Y-103150000D02*
X134549999Y-102750001D01*
X136100000Y-101600000D02*
X135425000Y-101600000D01*
X146070000Y-101970000D02*
X146070000Y-102030000D01*
X147500000Y-98590000D02*
X148670000Y-98590000D01*
X147170000Y-98920000D02*
X147500000Y-98590000D01*
X148840000Y-98590000D02*
X149830000Y-97600000D01*
X148670000Y-98590000D02*
X148840000Y-98590000D01*
X147565000Y-98010000D02*
X147170000Y-98010000D01*
X148854315Y-98010000D02*
X147565000Y-98010000D01*
X149264315Y-97600000D02*
X148854315Y-98010000D01*
X149830000Y-97600000D02*
X149264315Y-97600000D01*
X152905000Y-108960000D02*
X152890000Y-108945000D01*
X154180000Y-108960000D02*
X152905000Y-108960000D01*
X140767500Y-108737500D02*
X140750000Y-108720000D01*
X142050000Y-108737500D02*
X140767500Y-108737500D01*
G04 #@! TO.N,+3V3*
X135975000Y-107125000D02*
X135775000Y-107325000D01*
X135775000Y-107325000D02*
X135775000Y-109175000D01*
X145100000Y-103985000D02*
X143150001Y-103985000D01*
X143150001Y-103749999D02*
X143200000Y-103700000D01*
X143150001Y-103985000D02*
X143150001Y-103749999D01*
X144800000Y-102905000D02*
X144685000Y-103020000D01*
X144800000Y-102100000D02*
X144800000Y-102905000D01*
X144685000Y-103570000D02*
X145100000Y-103985000D01*
X144685000Y-103020000D02*
X144685000Y-103570000D01*
X144685000Y-103440000D02*
X144685000Y-103020000D01*
X145245000Y-104000000D02*
X144685000Y-103440000D01*
X137695000Y-94995000D02*
X137700000Y-95000000D01*
X135800000Y-94995000D02*
X137695000Y-94995000D01*
X145105000Y-103990000D02*
X145100000Y-103985000D01*
X146360000Y-103990000D02*
X145105000Y-103990000D01*
X136210000Y-102210000D02*
X136100000Y-102100000D01*
X136210000Y-102980000D02*
X136210000Y-102210000D01*
X136180000Y-103035000D02*
X136205000Y-103010000D01*
X136180000Y-103980000D02*
X136180000Y-103035000D01*
X136205000Y-104490000D02*
X136205000Y-104070000D01*
X135040000Y-105655000D02*
X135095000Y-105600000D01*
X133832500Y-105655000D02*
X135040000Y-105655000D01*
X128507500Y-106925000D02*
X128507500Y-108195000D01*
X135095000Y-105600000D02*
X136205000Y-104490000D01*
X128507500Y-108195000D02*
X128507500Y-108545000D01*
G04 #@! TO.N,+3.3VA*
X146534168Y-97755832D02*
X146534168Y-97737600D01*
X146200000Y-98090000D02*
X146534168Y-97755832D01*
X146110000Y-98100000D02*
X146200000Y-98010000D01*
X144800000Y-98100000D02*
X146110000Y-98100000D01*
X147310001Y-97349999D02*
X147710000Y-96950000D01*
X146841769Y-97349999D02*
X147310001Y-97349999D01*
X146534168Y-97657600D02*
X146841769Y-97349999D01*
X146534168Y-97755832D02*
X146534168Y-97657600D01*
G04 #@! TO.N,OSC_IN*
X143852500Y-107162500D02*
X144870000Y-108180000D01*
X142050000Y-107162500D02*
X143852500Y-107162500D01*
X145700000Y-100100000D02*
X144800000Y-100100000D01*
X147325001Y-101725001D02*
X145700000Y-100100000D01*
X147325001Y-105318001D02*
X147325001Y-101725001D01*
X145480502Y-107162500D02*
X147325001Y-105318001D01*
X142050000Y-107162500D02*
X145480502Y-107162500D01*
G04 #@! TO.N,OSC_OUT*
X145700000Y-99600000D02*
X145745001Y-99645001D01*
X144800000Y-99600000D02*
X145700000Y-99600000D01*
X149287500Y-99600000D02*
X144800000Y-99600000D01*
X150120000Y-100432500D02*
X149287500Y-99600000D01*
G04 #@! TO.N,SWCLK*
X137770710Y-108395710D02*
X137775000Y-108400000D01*
X137700000Y-108325000D02*
X137770710Y-108395710D01*
X137706269Y-107519369D02*
X137700000Y-107575000D01*
X137724758Y-107466529D02*
X137706269Y-107519369D01*
X137754543Y-107419127D02*
X137724758Y-107466529D01*
X137794128Y-107379542D02*
X137754543Y-107419127D01*
X138269551Y-107300242D02*
X138216711Y-107318731D01*
X138386323Y-107183470D02*
X138356538Y-107230872D01*
X137794128Y-105379542D02*
X137754543Y-105419127D01*
X137706269Y-105519369D02*
X137700000Y-105575000D01*
X138286323Y-104966529D02*
X138304812Y-105019369D01*
X138269551Y-105849757D02*
X138316953Y-105879542D01*
X137724758Y-105466529D02*
X137706269Y-105519369D01*
X137754543Y-105419127D02*
X137724758Y-105466529D01*
X138169551Y-105300242D02*
X138116711Y-105318731D01*
X138316953Y-107270457D02*
X138269551Y-107300242D01*
X137841530Y-106349757D02*
X137794128Y-106379542D01*
X137794128Y-105770457D02*
X137841530Y-105800242D01*
X138404812Y-107019369D02*
X138411080Y-107075000D01*
X137950000Y-105325000D02*
X137894370Y-105331268D01*
X138356538Y-107230872D02*
X138316953Y-107270457D01*
X138061080Y-105325000D02*
X137950000Y-105325000D01*
X138304812Y-105130630D02*
X138286323Y-105183470D01*
X138311080Y-105075000D02*
X138304812Y-105130630D01*
X138386323Y-106183470D02*
X138356538Y-106230872D01*
X137754543Y-105730872D02*
X137794128Y-105770457D01*
X137724758Y-105683470D02*
X137754543Y-105730872D01*
X137700000Y-105575000D02*
X137706269Y-105630630D01*
X137700000Y-103700000D02*
X137700000Y-104575000D01*
X137724758Y-104683470D02*
X137754543Y-104730872D01*
X138169551Y-104849757D02*
X138216953Y-104879542D01*
X138116711Y-104831268D02*
X138169551Y-104849757D01*
X137841530Y-105349757D02*
X137794128Y-105379542D01*
X138256538Y-104919127D02*
X138286323Y-104966529D01*
X137706269Y-104630630D02*
X137724758Y-104683470D01*
X137724758Y-106466529D02*
X137706269Y-106519369D01*
X137894370Y-107331268D02*
X137841530Y-107349757D01*
X138269551Y-106300242D02*
X138216711Y-106318731D01*
X138356538Y-106919127D02*
X138386323Y-106966529D01*
X138286323Y-105183470D02*
X138256538Y-105230872D01*
X137700000Y-104575000D02*
X137706269Y-104630630D01*
X138216953Y-104879542D02*
X138256538Y-104919127D01*
X138216711Y-106831268D02*
X138269551Y-106849757D01*
X138116711Y-105318731D02*
X138061080Y-105325000D01*
X138386323Y-106966529D02*
X138404812Y-107019369D01*
X138216711Y-107318731D02*
X138161080Y-107325000D01*
X137794128Y-104770457D02*
X137841530Y-104800242D01*
X137950000Y-104825000D02*
X138061080Y-104825000D01*
X137894370Y-105818731D02*
X137950000Y-105825000D01*
X138161080Y-107325000D02*
X137950000Y-107325000D01*
X138061080Y-104825000D02*
X138116711Y-104831268D01*
X137841530Y-105800242D02*
X137894370Y-105818731D01*
X138404812Y-107130630D02*
X138386323Y-107183470D01*
X138161080Y-105825000D02*
X138216711Y-105831268D01*
X138216711Y-105831268D02*
X138269551Y-105849757D01*
X138356538Y-105919127D02*
X138386323Y-105966529D01*
X138386323Y-105966529D02*
X138404812Y-106019369D01*
X137894370Y-105331268D02*
X137841530Y-105349757D01*
X137706269Y-106519369D02*
X137700000Y-106575000D01*
X138404812Y-106019369D02*
X138411080Y-106075000D01*
X138411080Y-106075000D02*
X138404812Y-106130630D01*
X137894370Y-104818731D02*
X137950000Y-104825000D01*
X137950000Y-105825000D02*
X138161080Y-105825000D01*
X138404812Y-106130630D02*
X138386323Y-106183470D01*
X138356538Y-106230872D02*
X138316953Y-106270457D01*
X138256538Y-105230872D02*
X138216953Y-105270457D01*
X138411080Y-107075000D02*
X138404812Y-107130630D01*
X137706269Y-105630630D02*
X137724758Y-105683470D01*
X138216711Y-106318731D02*
X138161080Y-106325000D01*
X137841530Y-107349757D02*
X137794128Y-107379542D01*
X138316953Y-105879542D02*
X138356538Y-105919127D01*
X137950000Y-106325000D02*
X137894370Y-106331268D01*
X138316953Y-106270457D02*
X138269551Y-106300242D01*
X137894370Y-106331268D02*
X137841530Y-106349757D01*
X137724758Y-106683470D02*
X137754543Y-106730872D01*
X137754543Y-104730872D02*
X137794128Y-104770457D01*
X137794128Y-106379542D02*
X137754543Y-106419127D01*
X137950000Y-107325000D02*
X137894370Y-107331268D01*
X137754543Y-106730872D02*
X137794128Y-106770457D01*
X137754543Y-106419127D02*
X137724758Y-106466529D01*
X137700000Y-106575000D02*
X137706269Y-106630630D01*
X137706269Y-106630630D02*
X137724758Y-106683470D01*
X137700000Y-107575000D02*
X137700000Y-108325000D01*
X138304812Y-105019369D02*
X138311080Y-105075000D01*
X137841530Y-104800242D02*
X137894370Y-104818731D01*
X137794128Y-106770457D02*
X137841530Y-106800242D01*
X138216953Y-105270457D02*
X138169551Y-105300242D01*
X137841530Y-106800242D02*
X137894370Y-106818731D01*
X137894370Y-106818731D02*
X137950000Y-106825000D01*
X137950000Y-106825000D02*
X138161080Y-106825000D01*
X138161080Y-106325000D02*
X137950000Y-106325000D01*
X138161080Y-106825000D02*
X138216711Y-106831268D01*
X138269551Y-106849757D02*
X138316953Y-106879542D01*
X138316953Y-106879542D02*
X138356538Y-106919127D01*
G04 #@! TO.N,SWDIO*
X136100000Y-101100000D02*
X136960002Y-101100000D01*
X136960002Y-101100000D02*
X137075001Y-101214999D01*
X137180000Y-101280000D02*
X137000000Y-101100000D01*
X137000000Y-101100000D02*
X137175000Y-101275000D01*
X136100000Y-101100000D02*
X137000000Y-101100000D01*
X137175000Y-107334315D02*
X137175000Y-101275000D01*
X136675000Y-107834315D02*
X137175000Y-107334315D01*
X136675000Y-108400000D02*
X136675000Y-107834315D01*
G04 #@! TO.N,TRACE*
X138775000Y-108326998D02*
X138775000Y-108400000D01*
X138700000Y-108225000D02*
X138875000Y-108400000D01*
X139606269Y-106944369D02*
X139600000Y-107000000D01*
X139654543Y-106844127D02*
X139624758Y-106891529D01*
X139741530Y-106774757D02*
X139694128Y-106804542D01*
X139794370Y-106756268D02*
X139741530Y-106774757D01*
X139982047Y-106750000D02*
X139850000Y-106750000D01*
X140037678Y-106743731D02*
X139982047Y-106750000D01*
X139694128Y-106804542D02*
X139654543Y-106844127D01*
X140090518Y-106725242D02*
X140037678Y-106743731D01*
X138992710Y-105891529D02*
X138974221Y-105944369D01*
X138700000Y-104600000D02*
X139600000Y-105500000D01*
X140207290Y-106391529D02*
X140225779Y-106444369D01*
X139162322Y-105756268D02*
X139109482Y-105774757D01*
X138959880Y-108315120D02*
X138875000Y-108400000D01*
X139162322Y-106243731D02*
X139217953Y-106250000D01*
X139350000Y-105750000D02*
X139217953Y-105750000D01*
X139405630Y-105743731D02*
X139350000Y-105750000D01*
X139109482Y-105774757D02*
X139062080Y-105804542D01*
X139458470Y-105725242D02*
X139405630Y-105743731D01*
X139217953Y-105750000D02*
X139162322Y-105756268D01*
X139505872Y-105695457D02*
X139458470Y-105725242D01*
X140177505Y-106344127D02*
X140207290Y-106391529D01*
X139593731Y-105555630D02*
X139575242Y-105608470D01*
X139217953Y-106250000D02*
X139982047Y-106250000D01*
X139575242Y-105608470D02*
X139545457Y-105655872D01*
X139600000Y-105500000D02*
X139593731Y-105555630D01*
X140137920Y-106695457D02*
X140090518Y-106725242D01*
X138700000Y-103700000D02*
X138700000Y-104600000D01*
X139062080Y-106195457D02*
X139109482Y-106225242D01*
X139022495Y-105844127D02*
X138992710Y-105891529D01*
X140177505Y-106655872D02*
X140137920Y-106695457D01*
X139600000Y-107675000D02*
X138959880Y-108315120D01*
X139022495Y-106155872D02*
X139062080Y-106195457D01*
X139545457Y-105655872D02*
X139505872Y-105695457D01*
X138974221Y-105944369D02*
X138967953Y-106000000D01*
X139850000Y-106750000D02*
X139794370Y-106756268D01*
X139982047Y-106250000D02*
X140037678Y-106256268D01*
X140225779Y-106555630D02*
X140207290Y-106608470D01*
X138974221Y-106055630D02*
X138992710Y-106108470D01*
X139062080Y-105804542D02*
X139022495Y-105844127D01*
X138992710Y-106108470D02*
X139022495Y-106155872D01*
X139624758Y-106891529D02*
X139606269Y-106944369D01*
X139109482Y-106225242D02*
X139162322Y-106243731D01*
X138967953Y-106000000D02*
X138974221Y-106055630D01*
X140037678Y-106256268D02*
X140090518Y-106274757D01*
X140090518Y-106274757D02*
X140137920Y-106304542D01*
X140137920Y-106304542D02*
X140177505Y-106344127D01*
X140225779Y-106444369D02*
X140232047Y-106500000D01*
X140232047Y-106500000D02*
X140225779Y-106555630D01*
X139600000Y-107000000D02*
X139600000Y-107675000D01*
X140207290Y-106608470D02*
X140177505Y-106655872D01*
G04 #@! TO.N,ADC1*
X148174315Y-96120000D02*
X148740000Y-96120000D01*
X147236410Y-96120000D02*
X148174315Y-96120000D01*
X146256410Y-97100000D02*
X147236410Y-96120000D01*
X144800000Y-97100000D02*
X146256410Y-97100000D01*
X148740000Y-96120000D02*
X149770000Y-96120000D01*
X149770000Y-96120000D02*
X151230000Y-94660000D01*
X151230000Y-94660000D02*
X161990000Y-94660000D01*
X161990000Y-94660000D02*
X162630000Y-95300000D01*
X162630000Y-99920000D02*
X164250000Y-101540000D01*
X162630000Y-95300000D02*
X162630000Y-99920000D01*
G04 #@! TO.N,ADC2*
X148740000Y-94910000D02*
X147810000Y-94910000D01*
X146120000Y-96600000D02*
X144800000Y-96600000D01*
X147810000Y-94910000D02*
X146120000Y-96600000D01*
X150900000Y-92750000D02*
X155500000Y-92750000D01*
X148740000Y-94910000D02*
X150900000Y-92750000D01*
G04 #@! TO.N,USB_D-*
X134900000Y-100100000D02*
X134400000Y-99600000D01*
X136100000Y-100100000D02*
X134900000Y-100100000D01*
G04 #@! TO.N,USB_D+*
X134900000Y-100600000D02*
X134400000Y-101100000D01*
X136100000Y-100600000D02*
X134900000Y-100600000D01*
G04 #@! TO.N,trigger*
X142700000Y-94139998D02*
X142814999Y-94024999D01*
X142700000Y-95000000D02*
X142700000Y-94139998D01*
X143074999Y-93725001D02*
X148144999Y-93725001D01*
X142700000Y-95000000D02*
X142700000Y-94100000D01*
X142700000Y-94100000D02*
X143074999Y-93725001D01*
X150660000Y-91210000D02*
X161560000Y-91210000D01*
X148144999Y-93725001D02*
X150660000Y-91210000D01*
X161560000Y-91210000D02*
X166020000Y-95670000D01*
X166020000Y-95670000D02*
X166020000Y-104070000D01*
X166020000Y-104070000D02*
X164020000Y-106070000D01*
X164020000Y-106070000D02*
X163950000Y-106000000D01*
X163950000Y-106000000D02*
X155750000Y-106000000D01*
G04 #@! TO.N,MEM_NSS*
X136100000Y-96600000D02*
X135200000Y-96600000D01*
X131950000Y-96600000D02*
X136100000Y-96600000D01*
X130650000Y-97900000D02*
X131950000Y-96600000D01*
X130650000Y-102630000D02*
X130650000Y-97900000D01*
X133832500Y-108195000D02*
X133832500Y-108200000D01*
X134995000Y-108195000D02*
X135000000Y-108200000D01*
X133832500Y-108195000D02*
X134995000Y-108195000D01*
G04 #@! TO.N,MEM_MISO*
X134985000Y-106925000D02*
X134990000Y-106920000D01*
X133832500Y-106925000D02*
X134985000Y-106925000D01*
X132640000Y-97600000D02*
X136100000Y-97600000D01*
X132420000Y-97820000D02*
X132640000Y-97600000D01*
X132420000Y-102640000D02*
X132420000Y-97820000D01*
G04 #@! TO.N,MEM_MOSI*
X135200000Y-98100000D02*
X136100000Y-98100000D01*
X135200000Y-98100000D02*
X135160000Y-98060000D01*
X133400000Y-98330000D02*
X133400000Y-102874315D01*
X133670000Y-98060000D02*
X133400000Y-98330000D01*
X135160000Y-98060000D02*
X133670000Y-98060000D01*
X128828210Y-104064290D02*
X128507500Y-104385000D01*
X132640695Y-103964990D02*
X128927510Y-103964990D01*
X133400000Y-103205685D02*
X132640695Y-103964990D01*
X128927510Y-103964990D02*
X128828210Y-104064290D01*
X133400000Y-102640000D02*
X133400000Y-103205685D01*
G04 #@! TO.N,MEM_SCK*
X128186790Y-105975710D02*
X128507500Y-105655000D01*
X127779999Y-106382501D02*
X128186790Y-105975710D01*
X127779999Y-107700001D02*
X127779999Y-106382501D01*
X127380000Y-108100000D02*
X127779999Y-107700001D01*
X131530000Y-102629136D02*
X131530000Y-102640000D01*
X131530000Y-102000000D02*
X131530000Y-102629136D01*
X131910194Y-100686776D02*
X131886367Y-100724697D01*
X131374504Y-99794985D02*
X131285495Y-99805014D01*
X131886367Y-100375302D02*
X131910194Y-100413223D01*
X131854698Y-100756366D02*
X131816777Y-100780193D01*
X131924986Y-100455495D02*
X131930000Y-100500000D01*
X131285495Y-100294985D02*
X131330000Y-100300000D01*
X131243223Y-100280193D02*
X131285495Y-100294985D01*
X131130000Y-100100000D02*
X131135014Y-100144504D01*
X131910194Y-100413223D02*
X131924986Y-100455495D01*
X131530000Y-99600000D02*
X131524985Y-99644504D01*
X131530000Y-97830000D02*
X131530000Y-99600000D01*
X131130000Y-100000000D02*
X131130000Y-100100000D01*
X131510193Y-99686776D02*
X131486366Y-99724697D01*
X132260000Y-97100000D02*
X131530000Y-97830000D01*
X131416776Y-99780193D02*
X131374504Y-99794985D01*
X131605303Y-101843633D02*
X131573634Y-101875302D01*
X131730000Y-100300000D02*
X131774505Y-100305014D01*
X131886367Y-101375302D02*
X131910194Y-101413223D01*
X131524985Y-99644504D02*
X131510193Y-99686776D01*
X131486366Y-99724697D02*
X131454697Y-99756366D01*
X131149806Y-100186776D02*
X131173633Y-100224697D01*
X131135014Y-100955495D02*
X131130000Y-101000000D01*
X131774505Y-101305014D02*
X131816777Y-101319806D01*
X131173633Y-99875302D02*
X131149806Y-99913223D01*
X131330000Y-100300000D02*
X131730000Y-100300000D01*
X131816777Y-100780193D02*
X131774505Y-100794985D01*
X131930000Y-100600000D02*
X131924986Y-100644504D01*
X131930000Y-100500000D02*
X131930000Y-100600000D01*
X136100000Y-97100000D02*
X132260000Y-97100000D01*
X131643224Y-101819806D02*
X131605303Y-101843633D01*
X131285495Y-99805014D02*
X131243223Y-99819806D01*
X131330000Y-100800000D02*
X131285495Y-100805014D01*
X131910194Y-101413223D02*
X131924986Y-101455495D01*
X131854698Y-100343633D02*
X131886367Y-100375302D01*
X131243223Y-99819806D02*
X131205302Y-99843633D01*
X131205302Y-99843633D02*
X131173633Y-99875302D01*
X131135014Y-99955495D02*
X131130000Y-100000000D01*
X131549807Y-101913223D02*
X131535015Y-101955495D01*
X131149806Y-99913223D02*
X131135014Y-99955495D01*
X131205302Y-101256366D02*
X131243223Y-101280193D01*
X131886367Y-100724697D02*
X131854698Y-100756366D01*
X131774505Y-100794985D02*
X131730000Y-100800000D01*
X131285495Y-100805014D02*
X131243223Y-100819806D01*
X131730000Y-100800000D02*
X131330000Y-100800000D01*
X131243223Y-100819806D02*
X131205302Y-100843633D01*
X131243223Y-101280193D02*
X131285495Y-101294985D01*
X131205302Y-100843633D02*
X131173633Y-100875302D01*
X131130000Y-101000000D02*
X131130000Y-101100000D01*
X131816777Y-100319806D02*
X131854698Y-100343633D01*
X131173633Y-100224697D02*
X131205302Y-100256366D01*
X131205302Y-100256366D02*
X131243223Y-100280193D01*
X131130000Y-101100000D02*
X131135014Y-101144504D01*
X131173633Y-100875302D02*
X131149806Y-100913223D01*
X131535015Y-101955495D02*
X131530000Y-102000000D01*
X131149806Y-100913223D02*
X131135014Y-100955495D01*
X131135014Y-101144504D02*
X131149806Y-101186776D01*
X131910194Y-101686776D02*
X131886367Y-101724697D01*
X131135014Y-100144504D02*
X131149806Y-100186776D01*
X131149806Y-101186776D02*
X131173633Y-101224697D01*
X131454697Y-99756366D02*
X131416776Y-99780193D01*
X131774505Y-101794985D02*
X131685496Y-101805014D01*
X131173633Y-101224697D02*
X131205302Y-101256366D01*
X131930000Y-101600000D02*
X131924986Y-101644504D01*
X131285495Y-101294985D02*
X131330000Y-101300000D01*
X131685496Y-101805014D02*
X131643224Y-101819806D01*
X131924986Y-100644504D02*
X131910194Y-100686776D01*
X131330000Y-101300000D02*
X131730000Y-101300000D01*
X131924986Y-101644504D02*
X131910194Y-101686776D01*
X131816777Y-101319806D02*
X131854698Y-101343633D01*
X131854698Y-101343633D02*
X131886367Y-101375302D01*
X131924986Y-101455495D02*
X131930000Y-101500000D01*
X131930000Y-101500000D02*
X131930000Y-101600000D01*
X131886367Y-101724697D02*
X131854698Y-101756366D01*
X131730000Y-101300000D02*
X131774505Y-101305014D01*
X131854698Y-101756366D02*
X131816777Y-101780193D01*
X131816777Y-101780193D02*
X131774505Y-101794985D01*
X131774505Y-100305014D02*
X131816777Y-100319806D01*
X131573634Y-101875302D02*
X131549807Y-101913223D01*
G04 #@! TO.N,Net-(C13-Pad2)*
X150880000Y-107370000D02*
X150070000Y-108180000D01*
X152890000Y-107370000D02*
X150880000Y-107370000D01*
X150120000Y-108130000D02*
X150070000Y-108180000D01*
X150120000Y-105097500D02*
X150120000Y-108130000D01*
G04 #@! TO.N,Net-(R4-Pad2)*
X150120000Y-103522500D02*
X150120000Y-101570000D01*
X150120000Y-101570000D02*
X150110000Y-101560000D01*
G04 #@! TD*
D22*
G04 #@! TO.N,+3V3*
G36*
X128822560Y-108040002D02*
X128890873Y-108383437D01*
X129085414Y-108674586D01*
X129376563Y-108869127D01*
X129719998Y-108937440D01*
X132620002Y-108937440D01*
X132963437Y-108869127D01*
X133006523Y-108840338D01*
X133023802Y-108866198D01*
X133274400Y-109033642D01*
X133570000Y-109092440D01*
X134095000Y-109092440D01*
X134373360Y-109037071D01*
X134413720Y-109077431D01*
X134794126Y-109235000D01*
X135205874Y-109235000D01*
X135586280Y-109077431D01*
X135762381Y-108901330D01*
X135797569Y-108986280D01*
X136088720Y-109277431D01*
X136469126Y-109435000D01*
X136880874Y-109435000D01*
X137225000Y-109292459D01*
X137569126Y-109435000D01*
X137980874Y-109435000D01*
X138325000Y-109292459D01*
X138669126Y-109435000D01*
X139080874Y-109435000D01*
X139461280Y-109277431D01*
X139743656Y-108995055D01*
X139872569Y-109306280D01*
X140049858Y-109483569D01*
X126635000Y-109465964D01*
X126635000Y-109272387D01*
X126649399Y-109200000D01*
X126626529Y-109085023D01*
X126840000Y-108996601D01*
X127174126Y-109135000D01*
X127585874Y-109135000D01*
X127966280Y-108977431D01*
X128257431Y-108686280D01*
X128415000Y-108305874D01*
X128415000Y-108117618D01*
X128495903Y-107996538D01*
X128539999Y-107774853D01*
X128539999Y-107774849D01*
X128554887Y-107700002D01*
X128539999Y-107625155D01*
X128539999Y-106697303D01*
X128684862Y-106552440D01*
X128770000Y-106552440D01*
X128822560Y-106541985D01*
X128822560Y-108040002D01*
X128822560Y-108040002D01*
G37*
X128822560Y-108040002D02*
X128890873Y-108383437D01*
X129085414Y-108674586D01*
X129376563Y-108869127D01*
X129719998Y-108937440D01*
X132620002Y-108937440D01*
X132963437Y-108869127D01*
X133006523Y-108840338D01*
X133023802Y-108866198D01*
X133274400Y-109033642D01*
X133570000Y-109092440D01*
X134095000Y-109092440D01*
X134373360Y-109037071D01*
X134413720Y-109077431D01*
X134794126Y-109235000D01*
X135205874Y-109235000D01*
X135586280Y-109077431D01*
X135762381Y-108901330D01*
X135797569Y-108986280D01*
X136088720Y-109277431D01*
X136469126Y-109435000D01*
X136880874Y-109435000D01*
X137225000Y-109292459D01*
X137569126Y-109435000D01*
X137980874Y-109435000D01*
X138325000Y-109292459D01*
X138669126Y-109435000D01*
X139080874Y-109435000D01*
X139461280Y-109277431D01*
X139743656Y-108995055D01*
X139872569Y-109306280D01*
X140049858Y-109483569D01*
X126635000Y-109465964D01*
X126635000Y-109272387D01*
X126649399Y-109200000D01*
X126626529Y-109085023D01*
X126840000Y-108996601D01*
X127174126Y-109135000D01*
X127585874Y-109135000D01*
X127966280Y-108977431D01*
X128257431Y-108686280D01*
X128415000Y-108305874D01*
X128415000Y-108117618D01*
X128495903Y-107996538D01*
X128539999Y-107774853D01*
X128539999Y-107774849D01*
X128554887Y-107700002D01*
X128539999Y-107625155D01*
X128539999Y-106697303D01*
X128684862Y-106552440D01*
X128770000Y-106552440D01*
X128822560Y-106541985D01*
X128822560Y-108040002D01*
G36*
X136415000Y-107019513D02*
X136190527Y-107243986D01*
X136127072Y-107286386D01*
X136084671Y-107349843D01*
X136077359Y-107360786D01*
X135959096Y-107537778D01*
X135930686Y-107680603D01*
X135912619Y-107698670D01*
X135877431Y-107613720D01*
X135818711Y-107555000D01*
X135867431Y-107506280D01*
X136025000Y-107125874D01*
X136025000Y-106714126D01*
X135867431Y-106333720D01*
X135576280Y-106042569D01*
X135195874Y-105885000D01*
X134784126Y-105885000D01*
X134403720Y-106042569D01*
X134365019Y-106081270D01*
X134095000Y-106027560D01*
X133570000Y-106027560D01*
X133517440Y-106038015D01*
X133517440Y-105271985D01*
X133570000Y-105282440D01*
X134095000Y-105282440D01*
X134390600Y-105223642D01*
X134641198Y-105056198D01*
X134721673Y-104935758D01*
X134783290Y-104976929D01*
X135087500Y-105037440D01*
X135382500Y-105037440D01*
X135686710Y-104976929D01*
X135944607Y-104804607D01*
X136116929Y-104546710D01*
X136177440Y-104242500D01*
X136177440Y-103897500D01*
X136116929Y-103593290D01*
X136081322Y-103540000D01*
X136116929Y-103486710D01*
X136177440Y-103182500D01*
X136177440Y-102837500D01*
X136116929Y-102533290D01*
X136009452Y-102372440D01*
X136415001Y-102372440D01*
X136415000Y-107019513D01*
X136415000Y-107019513D01*
G37*
X136415000Y-107019513D02*
X136190527Y-107243986D01*
X136127072Y-107286386D01*
X136084671Y-107349843D01*
X136077359Y-107360786D01*
X135959096Y-107537778D01*
X135930686Y-107680603D01*
X135912619Y-107698670D01*
X135877431Y-107613720D01*
X135818711Y-107555000D01*
X135867431Y-107506280D01*
X136025000Y-107125874D01*
X136025000Y-106714126D01*
X135867431Y-106333720D01*
X135576280Y-106042569D01*
X135195874Y-105885000D01*
X134784126Y-105885000D01*
X134403720Y-106042569D01*
X134365019Y-106081270D01*
X134095000Y-106027560D01*
X133570000Y-106027560D01*
X133517440Y-106038015D01*
X133517440Y-105271985D01*
X133570000Y-105282440D01*
X134095000Y-105282440D01*
X134390600Y-105223642D01*
X134641198Y-105056198D01*
X134721673Y-104935758D01*
X134783290Y-104976929D01*
X135087500Y-105037440D01*
X135382500Y-105037440D01*
X135686710Y-104976929D01*
X135944607Y-104804607D01*
X136116929Y-104546710D01*
X136177440Y-104242500D01*
X136177440Y-103897500D01*
X136116929Y-103593290D01*
X136081322Y-103540000D01*
X136116929Y-103486710D01*
X136177440Y-103182500D01*
X136177440Y-102837500D01*
X136116929Y-102533290D01*
X136009452Y-102372440D01*
X136415001Y-102372440D01*
X136415000Y-107019513D01*
G36*
X150498268Y-90467281D02*
X150363463Y-90494096D01*
X150112071Y-90662071D01*
X150069671Y-90725527D01*
X147830198Y-92965001D01*
X146535000Y-92965001D01*
X146535000Y-92794126D01*
X146377431Y-92413720D01*
X146086280Y-92122569D01*
X145705874Y-91965000D01*
X145294126Y-91965000D01*
X144913720Y-92122569D01*
X144796289Y-92240000D01*
X142203711Y-92240000D01*
X142086280Y-92122569D01*
X141705874Y-91965000D01*
X141294126Y-91965000D01*
X140913720Y-92122569D01*
X140622569Y-92413720D01*
X140465000Y-92794126D01*
X140465000Y-93205874D01*
X140622569Y-93586280D01*
X140738849Y-93702560D01*
X140575000Y-93702560D01*
X140450000Y-93727424D01*
X140325000Y-93702560D01*
X140075000Y-93702560D01*
X139950000Y-93727424D01*
X139825000Y-93702560D01*
X139575000Y-93702560D01*
X139450000Y-93727424D01*
X139325000Y-93702560D01*
X139075000Y-93702560D01*
X138950000Y-93727424D01*
X138852082Y-93707947D01*
X138747929Y-93552071D01*
X138684473Y-93509671D01*
X138190330Y-93015529D01*
X138147928Y-92952070D01*
X137896536Y-92784095D01*
X137790704Y-92763044D01*
X137687431Y-92513720D01*
X137396280Y-92222569D01*
X137015874Y-92065000D01*
X136604126Y-92065000D01*
X136223720Y-92222569D01*
X135932569Y-92513720D01*
X135775000Y-92894126D01*
X135775000Y-93060199D01*
X135752639Y-93082560D01*
X135627500Y-93082560D01*
X135323290Y-93143071D01*
X135065393Y-93315393D01*
X134893071Y-93573290D01*
X134832560Y-93877500D01*
X134832560Y-94172500D01*
X134893071Y-94476710D01*
X135065393Y-94734607D01*
X135323290Y-94906929D01*
X135627500Y-94967440D01*
X135972500Y-94967440D01*
X136276710Y-94906929D01*
X136295000Y-94894708D01*
X136313290Y-94906929D01*
X136617500Y-94967440D01*
X136962500Y-94967440D01*
X137266710Y-94906929D01*
X137427560Y-94799452D01*
X137427560Y-95650000D01*
X137476843Y-95897765D01*
X137617191Y-96107809D01*
X137827235Y-96248157D01*
X138075000Y-96297440D01*
X138325000Y-96297440D01*
X138450000Y-96272576D01*
X138575000Y-96297440D01*
X138825000Y-96297440D01*
X138950000Y-96272576D01*
X139075000Y-96297440D01*
X139325000Y-96297440D01*
X139450000Y-96272576D01*
X139575000Y-96297440D01*
X139825000Y-96297440D01*
X139950000Y-96272576D01*
X140075000Y-96297440D01*
X140325000Y-96297440D01*
X140450000Y-96272576D01*
X140575000Y-96297440D01*
X140825000Y-96297440D01*
X140950000Y-96272576D01*
X141075000Y-96297440D01*
X141325000Y-96297440D01*
X141450000Y-96272576D01*
X141575000Y-96297440D01*
X141825000Y-96297440D01*
X141950000Y-96272576D01*
X142075000Y-96297440D01*
X142325000Y-96297440D01*
X142450000Y-96272576D01*
X142575000Y-96297440D01*
X142825000Y-96297440D01*
X142950000Y-96272576D01*
X143075000Y-96297440D01*
X143325000Y-96297440D01*
X143546648Y-96253352D01*
X143502560Y-96475000D01*
X143502560Y-96725000D01*
X143527424Y-96850000D01*
X143502560Y-96975000D01*
X143502560Y-97225000D01*
X143527424Y-97349999D01*
X143502560Y-97475000D01*
X143502560Y-97725000D01*
X143527424Y-97850000D01*
X143502560Y-97975000D01*
X143502560Y-98225000D01*
X143527424Y-98350000D01*
X143502560Y-98475000D01*
X143502560Y-98725000D01*
X143527424Y-98850000D01*
X143502560Y-98975000D01*
X143502560Y-99225000D01*
X143527424Y-99350000D01*
X143502560Y-99475000D01*
X143502560Y-99725000D01*
X143527424Y-99850000D01*
X143502560Y-99975000D01*
X143502560Y-100225000D01*
X143527424Y-100350000D01*
X143502560Y-100475000D01*
X143502560Y-100725000D01*
X143527424Y-100850000D01*
X143502560Y-100975000D01*
X143502560Y-101225000D01*
X143527424Y-101350000D01*
X143502560Y-101475000D01*
X143502560Y-101725000D01*
X143551843Y-101972765D01*
X143692191Y-102182809D01*
X143902235Y-102323157D01*
X144150000Y-102372440D01*
X144887230Y-102372440D01*
X144773071Y-102543290D01*
X144712560Y-102847500D01*
X144712560Y-103192500D01*
X144773071Y-103496710D01*
X144945393Y-103754607D01*
X145203290Y-103926929D01*
X145507500Y-103987440D01*
X145802500Y-103987440D01*
X146106710Y-103926929D01*
X146364607Y-103754607D01*
X146536929Y-103496710D01*
X146565002Y-103355579D01*
X146565001Y-103935000D01*
X146394126Y-103935000D01*
X146013720Y-104092569D01*
X145911289Y-104195000D01*
X145759189Y-104195000D01*
X145576710Y-104073071D01*
X145272500Y-104012560D01*
X144927500Y-104012560D01*
X144623290Y-104073071D01*
X144596259Y-104091133D01*
X144576710Y-104078071D01*
X144272500Y-104017560D01*
X143927500Y-104017560D01*
X143623290Y-104078071D01*
X143472440Y-104178866D01*
X143472440Y-103050000D01*
X143423157Y-102802235D01*
X143282809Y-102592191D01*
X143072765Y-102451843D01*
X142825000Y-102402560D01*
X142575000Y-102402560D01*
X142450000Y-102427424D01*
X142325000Y-102402560D01*
X142075000Y-102402560D01*
X141950000Y-102427424D01*
X141825000Y-102402560D01*
X141575000Y-102402560D01*
X141450000Y-102427424D01*
X141325000Y-102402560D01*
X141075000Y-102402560D01*
X140950000Y-102427424D01*
X140825000Y-102402560D01*
X140575000Y-102402560D01*
X140450000Y-102427424D01*
X140325000Y-102402560D01*
X140075000Y-102402560D01*
X139950000Y-102427424D01*
X139825000Y-102402560D01*
X139575000Y-102402560D01*
X139450000Y-102427424D01*
X139325000Y-102402560D01*
X139075000Y-102402560D01*
X138950000Y-102427424D01*
X138825000Y-102402560D01*
X138575000Y-102402560D01*
X138450000Y-102427424D01*
X138325000Y-102402560D01*
X138075000Y-102402560D01*
X137950000Y-102427424D01*
X137935000Y-102424440D01*
X137935000Y-101379983D01*
X137954888Y-101279999D01*
X137895903Y-100983463D01*
X137770329Y-100795527D01*
X137765329Y-100790527D01*
X137722929Y-100727071D01*
X137659472Y-100684670D01*
X137626052Y-100651250D01*
X137590330Y-100615529D01*
X137547929Y-100552071D01*
X137392053Y-100447918D01*
X137372576Y-100350000D01*
X137397440Y-100225000D01*
X137397440Y-99975000D01*
X137372576Y-99850000D01*
X137397440Y-99725000D01*
X137397440Y-99475000D01*
X137372576Y-99350000D01*
X137397440Y-99225000D01*
X137397440Y-98975000D01*
X137372576Y-98850000D01*
X137397440Y-98725000D01*
X137397440Y-98475000D01*
X137372576Y-98350000D01*
X137397440Y-98225000D01*
X137397440Y-97975000D01*
X137372576Y-97850000D01*
X137397440Y-97725000D01*
X137397440Y-97475000D01*
X137372576Y-97349999D01*
X137397440Y-97225000D01*
X137397440Y-96975000D01*
X137372576Y-96850000D01*
X137397440Y-96725000D01*
X137397440Y-96475000D01*
X137348157Y-96227235D01*
X137207809Y-96017191D01*
X136997765Y-95876843D01*
X136750000Y-95827560D01*
X135450000Y-95827560D01*
X135387459Y-95840000D01*
X132024848Y-95840000D01*
X131950000Y-95825112D01*
X131875152Y-95840000D01*
X131875148Y-95840000D01*
X131653463Y-95884096D01*
X131402071Y-96052071D01*
X131359671Y-96115527D01*
X130165528Y-97309671D01*
X130102072Y-97352071D01*
X130059672Y-97415527D01*
X130059671Y-97415528D01*
X129934097Y-97603463D01*
X129875112Y-97900000D01*
X129890001Y-97974852D01*
X129890000Y-101926289D01*
X129772569Y-102043720D01*
X129615000Y-102424126D01*
X129615000Y-102835874D01*
X129767893Y-103204990D01*
X129002356Y-103204990D01*
X128927509Y-103190102D01*
X128852662Y-103204990D01*
X128852658Y-103204990D01*
X128630973Y-103249086D01*
X128379581Y-103417061D01*
X128337181Y-103480517D01*
X128330138Y-103487560D01*
X128245000Y-103487560D01*
X127949400Y-103546358D01*
X127698802Y-103713802D01*
X127531358Y-103964400D01*
X127472560Y-104260000D01*
X127472560Y-104476990D01*
X127068436Y-104206964D01*
X126606103Y-104115000D01*
X124693897Y-104115000D01*
X124231564Y-104206964D01*
X123707279Y-104557279D01*
X123356964Y-105081564D01*
X123235000Y-105694716D01*
X123235000Y-102064289D01*
X124465000Y-102064289D01*
X124465000Y-102535711D01*
X124645405Y-102971249D01*
X124978751Y-103304595D01*
X125414289Y-103485000D01*
X125885711Y-103485000D01*
X126321249Y-103304595D01*
X126654595Y-102971249D01*
X126835000Y-102535711D01*
X126835000Y-102064289D01*
X126654595Y-101628751D01*
X126321249Y-101295405D01*
X125885711Y-101115000D01*
X125414289Y-101115000D01*
X124978751Y-101295405D01*
X124645405Y-101628751D01*
X124465000Y-102064289D01*
X123235000Y-102064289D01*
X123235000Y-97464289D01*
X124465000Y-97464289D01*
X124465000Y-97935711D01*
X124645405Y-98371249D01*
X124978751Y-98704595D01*
X125414289Y-98885000D01*
X125885711Y-98885000D01*
X126321249Y-98704595D01*
X126654595Y-98371249D01*
X126835000Y-97935711D01*
X126835000Y-97464289D01*
X126654595Y-97028751D01*
X126321249Y-96695405D01*
X125885711Y-96515000D01*
X125414289Y-96515000D01*
X124978751Y-96695405D01*
X124645405Y-97028751D01*
X124465000Y-97464289D01*
X123235000Y-97464289D01*
X123235000Y-94305284D01*
X123356964Y-94918436D01*
X123707279Y-95442721D01*
X124231564Y-95793036D01*
X124693897Y-95885000D01*
X126606103Y-95885000D01*
X127068436Y-95793036D01*
X127592721Y-95442721D01*
X127943036Y-94918436D01*
X128066051Y-94300000D01*
X127943036Y-93681564D01*
X127911333Y-93634117D01*
X128154887Y-93735000D01*
X128845113Y-93735000D01*
X129482799Y-93470862D01*
X129970862Y-92982799D01*
X130235000Y-92345113D01*
X130235000Y-91654887D01*
X129970862Y-91017201D01*
X129482799Y-90529138D01*
X129266195Y-90439418D01*
X150498268Y-90467281D01*
X150498268Y-90467281D01*
G37*
X150498268Y-90467281D02*
X150363463Y-90494096D01*
X150112071Y-90662071D01*
X150069671Y-90725527D01*
X147830198Y-92965001D01*
X146535000Y-92965001D01*
X146535000Y-92794126D01*
X146377431Y-92413720D01*
X146086280Y-92122569D01*
X145705874Y-91965000D01*
X145294126Y-91965000D01*
X144913720Y-92122569D01*
X144796289Y-92240000D01*
X142203711Y-92240000D01*
X142086280Y-92122569D01*
X141705874Y-91965000D01*
X141294126Y-91965000D01*
X140913720Y-92122569D01*
X140622569Y-92413720D01*
X140465000Y-92794126D01*
X140465000Y-93205874D01*
X140622569Y-93586280D01*
X140738849Y-93702560D01*
X140575000Y-93702560D01*
X140450000Y-93727424D01*
X140325000Y-93702560D01*
X140075000Y-93702560D01*
X139950000Y-93727424D01*
X139825000Y-93702560D01*
X139575000Y-93702560D01*
X139450000Y-93727424D01*
X139325000Y-93702560D01*
X139075000Y-93702560D01*
X138950000Y-93727424D01*
X138852082Y-93707947D01*
X138747929Y-93552071D01*
X138684473Y-93509671D01*
X138190330Y-93015529D01*
X138147928Y-92952070D01*
X137896536Y-92784095D01*
X137790704Y-92763044D01*
X137687431Y-92513720D01*
X137396280Y-92222569D01*
X137015874Y-92065000D01*
X136604126Y-92065000D01*
X136223720Y-92222569D01*
X135932569Y-92513720D01*
X135775000Y-92894126D01*
X135775000Y-93060199D01*
X135752639Y-93082560D01*
X135627500Y-93082560D01*
X135323290Y-93143071D01*
X135065393Y-93315393D01*
X134893071Y-93573290D01*
X134832560Y-93877500D01*
X134832560Y-94172500D01*
X134893071Y-94476710D01*
X135065393Y-94734607D01*
X135323290Y-94906929D01*
X135627500Y-94967440D01*
X135972500Y-94967440D01*
X136276710Y-94906929D01*
X136295000Y-94894708D01*
X136313290Y-94906929D01*
X136617500Y-94967440D01*
X136962500Y-94967440D01*
X137266710Y-94906929D01*
X137427560Y-94799452D01*
X137427560Y-95650000D01*
X137476843Y-95897765D01*
X137617191Y-96107809D01*
X137827235Y-96248157D01*
X138075000Y-96297440D01*
X138325000Y-96297440D01*
X138450000Y-96272576D01*
X138575000Y-96297440D01*
X138825000Y-96297440D01*
X138950000Y-96272576D01*
X139075000Y-96297440D01*
X139325000Y-96297440D01*
X139450000Y-96272576D01*
X139575000Y-96297440D01*
X139825000Y-96297440D01*
X139950000Y-96272576D01*
X140075000Y-96297440D01*
X140325000Y-96297440D01*
X140450000Y-96272576D01*
X140575000Y-96297440D01*
X140825000Y-96297440D01*
X140950000Y-96272576D01*
X141075000Y-96297440D01*
X141325000Y-96297440D01*
X141450000Y-96272576D01*
X141575000Y-96297440D01*
X141825000Y-96297440D01*
X141950000Y-96272576D01*
X142075000Y-96297440D01*
X142325000Y-96297440D01*
X142450000Y-96272576D01*
X142575000Y-96297440D01*
X142825000Y-96297440D01*
X142950000Y-96272576D01*
X143075000Y-96297440D01*
X143325000Y-96297440D01*
X143546648Y-96253352D01*
X143502560Y-96475000D01*
X143502560Y-96725000D01*
X143527424Y-96850000D01*
X143502560Y-96975000D01*
X143502560Y-97225000D01*
X143527424Y-97349999D01*
X143502560Y-97475000D01*
X143502560Y-97725000D01*
X143527424Y-97850000D01*
X143502560Y-97975000D01*
X143502560Y-98225000D01*
X143527424Y-98350000D01*
X143502560Y-98475000D01*
X143502560Y-98725000D01*
X143527424Y-98850000D01*
X143502560Y-98975000D01*
X143502560Y-99225000D01*
X143527424Y-99350000D01*
X143502560Y-99475000D01*
X143502560Y-99725000D01*
X143527424Y-99850000D01*
X143502560Y-99975000D01*
X143502560Y-100225000D01*
X143527424Y-100350000D01*
X143502560Y-100475000D01*
X143502560Y-100725000D01*
X143527424Y-100850000D01*
X143502560Y-100975000D01*
X143502560Y-101225000D01*
X143527424Y-101350000D01*
X143502560Y-101475000D01*
X143502560Y-101725000D01*
X143551843Y-101972765D01*
X143692191Y-102182809D01*
X143902235Y-102323157D01*
X144150000Y-102372440D01*
X144887230Y-102372440D01*
X144773071Y-102543290D01*
X144712560Y-102847500D01*
X144712560Y-103192500D01*
X144773071Y-103496710D01*
X144945393Y-103754607D01*
X145203290Y-103926929D01*
X145507500Y-103987440D01*
X145802500Y-103987440D01*
X146106710Y-103926929D01*
X146364607Y-103754607D01*
X146536929Y-103496710D01*
X146565002Y-103355579D01*
X146565001Y-103935000D01*
X146394126Y-103935000D01*
X146013720Y-104092569D01*
X145911289Y-104195000D01*
X145759189Y-104195000D01*
X145576710Y-104073071D01*
X145272500Y-104012560D01*
X144927500Y-104012560D01*
X144623290Y-104073071D01*
X144596259Y-104091133D01*
X144576710Y-104078071D01*
X144272500Y-104017560D01*
X143927500Y-104017560D01*
X143623290Y-104078071D01*
X143472440Y-104178866D01*
X143472440Y-103050000D01*
X143423157Y-102802235D01*
X143282809Y-102592191D01*
X143072765Y-102451843D01*
X142825000Y-102402560D01*
X142575000Y-102402560D01*
X142450000Y-102427424D01*
X142325000Y-102402560D01*
X142075000Y-102402560D01*
X141950000Y-102427424D01*
X141825000Y-102402560D01*
X141575000Y-102402560D01*
X141450000Y-102427424D01*
X141325000Y-102402560D01*
X141075000Y-102402560D01*
X140950000Y-102427424D01*
X140825000Y-102402560D01*
X140575000Y-102402560D01*
X140450000Y-102427424D01*
X140325000Y-102402560D01*
X140075000Y-102402560D01*
X139950000Y-102427424D01*
X139825000Y-102402560D01*
X139575000Y-102402560D01*
X139450000Y-102427424D01*
X139325000Y-102402560D01*
X139075000Y-102402560D01*
X138950000Y-102427424D01*
X138825000Y-102402560D01*
X138575000Y-102402560D01*
X138450000Y-102427424D01*
X138325000Y-102402560D01*
X138075000Y-102402560D01*
X137950000Y-102427424D01*
X137935000Y-102424440D01*
X137935000Y-101379983D01*
X137954888Y-101279999D01*
X137895903Y-100983463D01*
X137770329Y-100795527D01*
X137765329Y-100790527D01*
X137722929Y-100727071D01*
X137659472Y-100684670D01*
X137626052Y-100651250D01*
X137590330Y-100615529D01*
X137547929Y-100552071D01*
X137392053Y-100447918D01*
X137372576Y-100350000D01*
X137397440Y-100225000D01*
X137397440Y-99975000D01*
X137372576Y-99850000D01*
X137397440Y-99725000D01*
X137397440Y-99475000D01*
X137372576Y-99350000D01*
X137397440Y-99225000D01*
X137397440Y-98975000D01*
X137372576Y-98850000D01*
X137397440Y-98725000D01*
X137397440Y-98475000D01*
X137372576Y-98350000D01*
X137397440Y-98225000D01*
X137397440Y-97975000D01*
X137372576Y-97850000D01*
X137397440Y-97725000D01*
X137397440Y-97475000D01*
X137372576Y-97349999D01*
X137397440Y-97225000D01*
X137397440Y-96975000D01*
X137372576Y-96850000D01*
X137397440Y-96725000D01*
X137397440Y-96475000D01*
X137348157Y-96227235D01*
X137207809Y-96017191D01*
X136997765Y-95876843D01*
X136750000Y-95827560D01*
X135450000Y-95827560D01*
X135387459Y-95840000D01*
X132024848Y-95840000D01*
X131950000Y-95825112D01*
X131875152Y-95840000D01*
X131875148Y-95840000D01*
X131653463Y-95884096D01*
X131402071Y-96052071D01*
X131359671Y-96115527D01*
X130165528Y-97309671D01*
X130102072Y-97352071D01*
X130059672Y-97415527D01*
X130059671Y-97415528D01*
X129934097Y-97603463D01*
X129875112Y-97900000D01*
X129890001Y-97974852D01*
X129890000Y-101926289D01*
X129772569Y-102043720D01*
X129615000Y-102424126D01*
X129615000Y-102835874D01*
X129767893Y-103204990D01*
X129002356Y-103204990D01*
X128927509Y-103190102D01*
X128852662Y-103204990D01*
X128852658Y-103204990D01*
X128630973Y-103249086D01*
X128379581Y-103417061D01*
X128337181Y-103480517D01*
X128330138Y-103487560D01*
X128245000Y-103487560D01*
X127949400Y-103546358D01*
X127698802Y-103713802D01*
X127531358Y-103964400D01*
X127472560Y-104260000D01*
X127472560Y-104476990D01*
X127068436Y-104206964D01*
X126606103Y-104115000D01*
X124693897Y-104115000D01*
X124231564Y-104206964D01*
X123707279Y-104557279D01*
X123356964Y-105081564D01*
X123235000Y-105694716D01*
X123235000Y-102064289D01*
X124465000Y-102064289D01*
X124465000Y-102535711D01*
X124645405Y-102971249D01*
X124978751Y-103304595D01*
X125414289Y-103485000D01*
X125885711Y-103485000D01*
X126321249Y-103304595D01*
X126654595Y-102971249D01*
X126835000Y-102535711D01*
X126835000Y-102064289D01*
X126654595Y-101628751D01*
X126321249Y-101295405D01*
X125885711Y-101115000D01*
X125414289Y-101115000D01*
X124978751Y-101295405D01*
X124645405Y-101628751D01*
X124465000Y-102064289D01*
X123235000Y-102064289D01*
X123235000Y-97464289D01*
X124465000Y-97464289D01*
X124465000Y-97935711D01*
X124645405Y-98371249D01*
X124978751Y-98704595D01*
X125414289Y-98885000D01*
X125885711Y-98885000D01*
X126321249Y-98704595D01*
X126654595Y-98371249D01*
X126835000Y-97935711D01*
X126835000Y-97464289D01*
X126654595Y-97028751D01*
X126321249Y-96695405D01*
X125885711Y-96515000D01*
X125414289Y-96515000D01*
X124978751Y-96695405D01*
X124645405Y-97028751D01*
X124465000Y-97464289D01*
X123235000Y-97464289D01*
X123235000Y-94305284D01*
X123356964Y-94918436D01*
X123707279Y-95442721D01*
X124231564Y-95793036D01*
X124693897Y-95885000D01*
X126606103Y-95885000D01*
X127068436Y-95793036D01*
X127592721Y-95442721D01*
X127943036Y-94918436D01*
X128066051Y-94300000D01*
X127943036Y-93681564D01*
X127911333Y-93634117D01*
X128154887Y-93735000D01*
X128845113Y-93735000D01*
X129482799Y-93470862D01*
X129970862Y-92982799D01*
X130235000Y-92345113D01*
X130235000Y-91654887D01*
X129970862Y-91017201D01*
X129482799Y-90529138D01*
X129266195Y-90439418D01*
X150498268Y-90467281D01*
G36*
X165260000Y-95984803D02*
X165260001Y-100520605D01*
X165062862Y-100323466D01*
X164535439Y-100105000D01*
X163964561Y-100105000D01*
X163911698Y-100126897D01*
X163390000Y-99605199D01*
X163390000Y-95374848D01*
X163404888Y-95300000D01*
X163390000Y-95225152D01*
X163390000Y-95225148D01*
X163345904Y-95003463D01*
X163345904Y-95003462D01*
X163220329Y-94815527D01*
X163177929Y-94752071D01*
X163114473Y-94709671D01*
X162580331Y-94175530D01*
X162537929Y-94112071D01*
X162286537Y-93944096D01*
X162064852Y-93900000D01*
X162064847Y-93900000D01*
X161990000Y-93885112D01*
X161915153Y-93900000D01*
X156379396Y-93900000D01*
X156716534Y-93562862D01*
X156935000Y-93035439D01*
X156935000Y-92464561D01*
X156730146Y-91970000D01*
X161245199Y-91970000D01*
X165260000Y-95984803D01*
X165260000Y-95984803D01*
G37*
X165260000Y-95984803D02*
X165260001Y-100520605D01*
X165062862Y-100323466D01*
X164535439Y-100105000D01*
X163964561Y-100105000D01*
X163911698Y-100126897D01*
X163390000Y-99605199D01*
X163390000Y-95374848D01*
X163404888Y-95300000D01*
X163390000Y-95225152D01*
X163390000Y-95225148D01*
X163345904Y-95003463D01*
X163345904Y-95003462D01*
X163220329Y-94815527D01*
X163177929Y-94752071D01*
X163114473Y-94709671D01*
X162580331Y-94175530D01*
X162537929Y-94112071D01*
X162286537Y-93944096D01*
X162064852Y-93900000D01*
X162064847Y-93900000D01*
X161990000Y-93885112D01*
X161915153Y-93900000D01*
X156379396Y-93900000D01*
X156716534Y-93562862D01*
X156935000Y-93035439D01*
X156935000Y-92464561D01*
X156730146Y-91970000D01*
X161245199Y-91970000D01*
X165260000Y-95984803D01*
G04 #@! TD*
M02*
