G04 #@! TF.GenerationSoftware,KiCad,Pcbnew,5.0.2-bee76a0~70~ubuntu18.04.1*
G04 #@! TF.CreationDate,2020-06-29T01:54:23-07:00*
G04 #@! TF.ProjectId,qrng,71726e67-2e6b-4696-9361-645f70636258,1*
G04 #@! TF.SameCoordinates,Original*
G04 #@! TF.FileFunction,Soldermask,Bot*
G04 #@! TF.FilePolarity,Negative*
%FSLAX46Y46*%
G04 Gerber Fmt 4.6, Leading zero omitted, Abs format (unit mm)*
G04 Created by KiCad (PCBNEW 5.0.2-bee76a0~70~ubuntu18.04.1) date Mon 29 Jun 2020 01:54:23 AM MST*
%MOMM*%
%LPD*%
G01*
G04 APERTURE LIST*
%ADD10C,0.100000*%
G04 APERTURE END LIST*
D10*
G36*
X158059466Y-107753565D02*
X158098137Y-107765296D01*
X158133779Y-107784348D01*
X158165017Y-107809983D01*
X158190652Y-107841221D01*
X158209704Y-107876863D01*
X158221435Y-107915534D01*
X158226000Y-107961888D01*
X158226000Y-109038112D01*
X158221435Y-109084466D01*
X158209704Y-109123137D01*
X158190652Y-109158779D01*
X158165017Y-109190017D01*
X158133779Y-109215652D01*
X158098137Y-109234704D01*
X158059466Y-109246435D01*
X158013112Y-109251000D01*
X157361888Y-109251000D01*
X157315534Y-109246435D01*
X157276863Y-109234704D01*
X157241221Y-109215652D01*
X157209983Y-109190017D01*
X157184348Y-109158779D01*
X157165296Y-109123137D01*
X157153565Y-109084466D01*
X157149000Y-109038112D01*
X157149000Y-107961888D01*
X157153565Y-107915534D01*
X157165296Y-107876863D01*
X157184348Y-107841221D01*
X157209983Y-107809983D01*
X157241221Y-107784348D01*
X157276863Y-107765296D01*
X157315534Y-107753565D01*
X157361888Y-107749000D01*
X158013112Y-107749000D01*
X158059466Y-107753565D01*
X158059466Y-107753565D01*
G37*
G36*
X156184466Y-107753565D02*
X156223137Y-107765296D01*
X156258779Y-107784348D01*
X156290017Y-107809983D01*
X156315652Y-107841221D01*
X156334704Y-107876863D01*
X156346435Y-107915534D01*
X156351000Y-107961888D01*
X156351000Y-109038112D01*
X156346435Y-109084466D01*
X156334704Y-109123137D01*
X156315652Y-109158779D01*
X156290017Y-109190017D01*
X156258779Y-109215652D01*
X156223137Y-109234704D01*
X156184466Y-109246435D01*
X156138112Y-109251000D01*
X155486888Y-109251000D01*
X155440534Y-109246435D01*
X155401863Y-109234704D01*
X155366221Y-109215652D01*
X155334983Y-109190017D01*
X155309348Y-109158779D01*
X155290296Y-109123137D01*
X155278565Y-109084466D01*
X155274000Y-109038112D01*
X155274000Y-107961888D01*
X155278565Y-107915534D01*
X155290296Y-107876863D01*
X155309348Y-107841221D01*
X155334983Y-107809983D01*
X155366221Y-107784348D01*
X155401863Y-107765296D01*
X155440534Y-107753565D01*
X155486888Y-107749000D01*
X156138112Y-107749000D01*
X156184466Y-107753565D01*
X156184466Y-107753565D01*
G37*
G36*
X161835734Y-106893232D02*
X162045202Y-106979996D01*
X162233723Y-107105962D01*
X162394038Y-107266277D01*
X162520004Y-107454798D01*
X162606768Y-107664266D01*
X162651000Y-107886635D01*
X162651000Y-108113365D01*
X162606768Y-108335734D01*
X162520004Y-108545202D01*
X162394038Y-108733723D01*
X162233723Y-108894038D01*
X162045202Y-109020004D01*
X161835734Y-109106768D01*
X161613365Y-109151000D01*
X161386635Y-109151000D01*
X161164266Y-109106768D01*
X160954798Y-109020004D01*
X160766277Y-108894038D01*
X160605962Y-108733723D01*
X160479996Y-108545202D01*
X160393232Y-108335734D01*
X160349000Y-108113365D01*
X160349000Y-107886635D01*
X160393232Y-107664266D01*
X160479996Y-107454798D01*
X160605962Y-107266277D01*
X160766277Y-107105962D01*
X160954798Y-106979996D01*
X161164266Y-106893232D01*
X161386635Y-106849000D01*
X161613365Y-106849000D01*
X161835734Y-106893232D01*
X161835734Y-106893232D01*
G37*
G36*
X126646232Y-104713483D02*
X126834919Y-104770721D01*
X127008817Y-104863671D01*
X127161239Y-104988761D01*
X127286329Y-105141183D01*
X127379279Y-105315081D01*
X127436517Y-105503768D01*
X127455843Y-105700000D01*
X127436517Y-105896232D01*
X127379279Y-106084919D01*
X127286329Y-106258817D01*
X127161239Y-106411239D01*
X127008817Y-106536329D01*
X126834919Y-106629279D01*
X126646232Y-106686517D01*
X126499176Y-106701000D01*
X124800824Y-106701000D01*
X124653768Y-106686517D01*
X124465081Y-106629279D01*
X124291183Y-106536329D01*
X124138761Y-106411239D01*
X124013671Y-106258817D01*
X123920721Y-106084919D01*
X123863483Y-105896232D01*
X123844157Y-105700000D01*
X123863483Y-105503768D01*
X123920721Y-105315081D01*
X124013671Y-105141183D01*
X124138761Y-104988761D01*
X124291183Y-104863671D01*
X124465081Y-104770721D01*
X124653768Y-104713483D01*
X124800824Y-104699000D01*
X126499176Y-104699000D01*
X126646232Y-104713483D01*
X126646232Y-104713483D01*
G37*
G36*
X129701000Y-104101000D02*
X127099000Y-104101000D01*
X127099000Y-102899000D01*
X129701000Y-102899000D01*
X129701000Y-104101000D01*
X129701000Y-104101000D01*
G37*
G36*
X138251000Y-103471000D02*
X136149000Y-103471000D01*
X136149000Y-101869000D01*
X138251000Y-101869000D01*
X138251000Y-103471000D01*
X138251000Y-103471000D01*
G37*
G36*
X125825305Y-101722096D02*
X125934680Y-101767400D01*
X126033118Y-101833175D01*
X126116825Y-101916882D01*
X126182600Y-102015320D01*
X126227904Y-102124695D01*
X126251000Y-102240806D01*
X126251000Y-102359194D01*
X126227904Y-102475305D01*
X126182600Y-102584680D01*
X126116825Y-102683118D01*
X126033118Y-102766825D01*
X125934680Y-102832600D01*
X125825305Y-102877904D01*
X125709194Y-102901000D01*
X125590806Y-102901000D01*
X125474695Y-102877904D01*
X125365320Y-102832600D01*
X125266882Y-102766825D01*
X125183175Y-102683118D01*
X125117400Y-102584680D01*
X125072096Y-102475305D01*
X125049000Y-102359194D01*
X125049000Y-102240806D01*
X125072096Y-102124695D01*
X125117400Y-102015320D01*
X125183175Y-101916882D01*
X125266882Y-101833175D01*
X125365320Y-101767400D01*
X125474695Y-101722096D01*
X125590806Y-101699000D01*
X125709194Y-101699000D01*
X125825305Y-101722096D01*
X125825305Y-101722096D01*
G37*
G36*
X164498228Y-100721703D02*
X164653100Y-100785853D01*
X164792481Y-100878985D01*
X164911015Y-100997519D01*
X165004147Y-101136900D01*
X165068297Y-101291772D01*
X165101000Y-101456184D01*
X165101000Y-101623816D01*
X165068297Y-101788228D01*
X165004147Y-101943100D01*
X164911015Y-102082481D01*
X164792481Y-102201015D01*
X164653100Y-102294147D01*
X164498228Y-102358297D01*
X164333816Y-102391000D01*
X164166184Y-102391000D01*
X164001772Y-102358297D01*
X163846900Y-102294147D01*
X163707519Y-102201015D01*
X163588985Y-102082481D01*
X163495853Y-101943100D01*
X163431703Y-101788228D01*
X163399000Y-101623816D01*
X163399000Y-101456184D01*
X163431703Y-101291772D01*
X163495853Y-101136900D01*
X163588985Y-100997519D01*
X163707519Y-100878985D01*
X163846900Y-100785853D01*
X164001772Y-100721703D01*
X164166184Y-100689000D01*
X164333816Y-100689000D01*
X164498228Y-100721703D01*
X164498228Y-100721703D01*
G37*
G36*
X144551000Y-102321000D02*
X142449000Y-102321000D01*
X142449000Y-98419000D01*
X144551000Y-98419000D01*
X144551000Y-102321000D01*
X144551000Y-102321000D01*
G37*
G36*
X129701000Y-101601000D02*
X127099000Y-101601000D01*
X127099000Y-100399000D01*
X129701000Y-100399000D01*
X129701000Y-101601000D01*
X129701000Y-101601000D01*
G37*
G36*
X138251000Y-101171000D02*
X136149000Y-101171000D01*
X136149000Y-99569000D01*
X138251000Y-99569000D01*
X138251000Y-101171000D01*
X138251000Y-101171000D01*
G37*
G36*
X145561938Y-99966716D02*
X145582556Y-99972970D01*
X145601556Y-99983126D01*
X145618208Y-99996792D01*
X145631874Y-100013444D01*
X145642030Y-100032444D01*
X145648284Y-100053062D01*
X145651000Y-100080640D01*
X145651000Y-100539360D01*
X145648284Y-100566938D01*
X145642030Y-100587556D01*
X145631874Y-100606556D01*
X145618208Y-100623208D01*
X145601556Y-100636874D01*
X145582556Y-100647030D01*
X145561938Y-100653284D01*
X145534360Y-100656000D01*
X145025640Y-100656000D01*
X144998062Y-100653284D01*
X144977444Y-100647030D01*
X144958444Y-100636874D01*
X144941792Y-100623208D01*
X144928126Y-100606556D01*
X144917970Y-100587556D01*
X144911716Y-100566938D01*
X144909000Y-100539360D01*
X144909000Y-100080640D01*
X144911716Y-100053062D01*
X144917970Y-100032444D01*
X144928126Y-100013444D01*
X144941792Y-99996792D01*
X144958444Y-99983126D01*
X144977444Y-99972970D01*
X144998062Y-99966716D01*
X145025640Y-99964000D01*
X145534360Y-99964000D01*
X145561938Y-99966716D01*
X145561938Y-99966716D01*
G37*
G36*
X135691938Y-99931716D02*
X135712556Y-99937970D01*
X135731556Y-99948126D01*
X135748208Y-99961792D01*
X135761874Y-99978444D01*
X135772030Y-99997444D01*
X135778284Y-100018062D01*
X135781000Y-100045640D01*
X135781000Y-100504360D01*
X135778284Y-100531938D01*
X135772030Y-100552556D01*
X135761874Y-100571556D01*
X135748208Y-100588208D01*
X135731556Y-100601874D01*
X135712556Y-100612030D01*
X135691938Y-100618284D01*
X135664360Y-100621000D01*
X135155640Y-100621000D01*
X135128062Y-100618284D01*
X135107444Y-100612030D01*
X135088444Y-100601874D01*
X135071792Y-100588208D01*
X135058126Y-100571556D01*
X135047970Y-100552556D01*
X135041716Y-100531938D01*
X135039000Y-100504360D01*
X135039000Y-100045640D01*
X135041716Y-100018062D01*
X135047970Y-99997444D01*
X135058126Y-99978444D01*
X135071792Y-99961792D01*
X135088444Y-99948126D01*
X135107444Y-99937970D01*
X135128062Y-99931716D01*
X135155640Y-99929000D01*
X135664360Y-99929000D01*
X135691938Y-99931716D01*
X135691938Y-99931716D01*
G37*
G36*
X164498228Y-98181703D02*
X164653100Y-98245853D01*
X164792481Y-98338985D01*
X164911015Y-98457519D01*
X165004147Y-98596900D01*
X165068297Y-98751772D01*
X165101000Y-98916184D01*
X165101000Y-99083816D01*
X165068297Y-99248228D01*
X165004147Y-99403100D01*
X164911015Y-99542481D01*
X164792481Y-99661015D01*
X164653100Y-99754147D01*
X164498228Y-99818297D01*
X164333816Y-99851000D01*
X164166184Y-99851000D01*
X164001772Y-99818297D01*
X163846900Y-99754147D01*
X163707519Y-99661015D01*
X163588985Y-99542481D01*
X163495853Y-99403100D01*
X163431703Y-99248228D01*
X163399000Y-99083816D01*
X163399000Y-98916184D01*
X163431703Y-98751772D01*
X163495853Y-98596900D01*
X163588985Y-98457519D01*
X163707519Y-98338985D01*
X163846900Y-98245853D01*
X164001772Y-98181703D01*
X164166184Y-98149000D01*
X164333816Y-98149000D01*
X164498228Y-98181703D01*
X164498228Y-98181703D01*
G37*
G36*
X145561938Y-98996716D02*
X145582556Y-99002970D01*
X145601556Y-99013126D01*
X145618208Y-99026792D01*
X145631874Y-99043444D01*
X145642030Y-99062444D01*
X145648284Y-99083062D01*
X145651000Y-99110640D01*
X145651000Y-99569360D01*
X145648284Y-99596938D01*
X145642030Y-99617556D01*
X145631874Y-99636556D01*
X145618208Y-99653208D01*
X145601556Y-99666874D01*
X145582556Y-99677030D01*
X145561938Y-99683284D01*
X145534360Y-99686000D01*
X145025640Y-99686000D01*
X144998062Y-99683284D01*
X144977444Y-99677030D01*
X144958444Y-99666874D01*
X144941792Y-99653208D01*
X144928126Y-99636556D01*
X144917970Y-99617556D01*
X144911716Y-99596938D01*
X144909000Y-99569360D01*
X144909000Y-99110640D01*
X144911716Y-99083062D01*
X144917970Y-99062444D01*
X144928126Y-99043444D01*
X144941792Y-99026792D01*
X144958444Y-99013126D01*
X144977444Y-99002970D01*
X144998062Y-98996716D01*
X145025640Y-98994000D01*
X145534360Y-98994000D01*
X145561938Y-98996716D01*
X145561938Y-98996716D01*
G37*
G36*
X135691938Y-98961716D02*
X135712556Y-98967970D01*
X135731556Y-98978126D01*
X135748208Y-98991792D01*
X135761874Y-99008444D01*
X135772030Y-99027444D01*
X135778284Y-99048062D01*
X135781000Y-99075640D01*
X135781000Y-99534360D01*
X135778284Y-99561938D01*
X135772030Y-99582556D01*
X135761874Y-99601556D01*
X135748208Y-99618208D01*
X135731556Y-99631874D01*
X135712556Y-99642030D01*
X135691938Y-99648284D01*
X135664360Y-99651000D01*
X135155640Y-99651000D01*
X135128062Y-99648284D01*
X135107444Y-99642030D01*
X135088444Y-99631874D01*
X135071792Y-99618208D01*
X135058126Y-99601556D01*
X135047970Y-99582556D01*
X135041716Y-99561938D01*
X135039000Y-99534360D01*
X135039000Y-99075640D01*
X135041716Y-99048062D01*
X135047970Y-99027444D01*
X135058126Y-99008444D01*
X135071792Y-98991792D01*
X135088444Y-98978126D01*
X135107444Y-98967970D01*
X135128062Y-98961716D01*
X135155640Y-98959000D01*
X135664360Y-98959000D01*
X135691938Y-98961716D01*
X135691938Y-98961716D01*
G37*
G36*
X129701000Y-99601000D02*
X127099000Y-99601000D01*
X127099000Y-98399000D01*
X129701000Y-98399000D01*
X129701000Y-99601000D01*
X129701000Y-99601000D01*
G37*
G36*
X138251000Y-98871000D02*
X136149000Y-98871000D01*
X136149000Y-97269000D01*
X138251000Y-97269000D01*
X138251000Y-98871000D01*
X138251000Y-98871000D01*
G37*
G36*
X135484466Y-97533565D02*
X135523137Y-97545296D01*
X135558779Y-97564348D01*
X135590017Y-97589983D01*
X135615652Y-97621221D01*
X135634704Y-97656863D01*
X135646435Y-97695534D01*
X135651000Y-97741888D01*
X135651000Y-98393112D01*
X135646435Y-98439466D01*
X135634704Y-98478137D01*
X135615652Y-98513779D01*
X135590017Y-98545017D01*
X135558779Y-98570652D01*
X135523137Y-98589704D01*
X135484466Y-98601435D01*
X135438112Y-98606000D01*
X134361888Y-98606000D01*
X134315534Y-98601435D01*
X134276863Y-98589704D01*
X134241221Y-98570652D01*
X134209983Y-98545017D01*
X134184348Y-98513779D01*
X134165296Y-98478137D01*
X134153565Y-98439466D01*
X134149000Y-98393112D01*
X134149000Y-97741888D01*
X134153565Y-97695534D01*
X134165296Y-97656863D01*
X134184348Y-97621221D01*
X134209983Y-97589983D01*
X134241221Y-97564348D01*
X134276863Y-97545296D01*
X134315534Y-97533565D01*
X134361888Y-97529000D01*
X135438112Y-97529000D01*
X135484466Y-97533565D01*
X135484466Y-97533565D01*
G37*
G36*
X125825305Y-97122096D02*
X125934680Y-97167400D01*
X126033118Y-97233175D01*
X126116825Y-97316882D01*
X126182600Y-97415320D01*
X126227904Y-97524695D01*
X126251000Y-97640806D01*
X126251000Y-97759194D01*
X126227904Y-97875305D01*
X126182600Y-97984680D01*
X126116825Y-98083118D01*
X126033118Y-98166825D01*
X125934680Y-98232600D01*
X125825305Y-98277904D01*
X125709194Y-98301000D01*
X125590806Y-98301000D01*
X125474695Y-98277904D01*
X125365320Y-98232600D01*
X125266882Y-98166825D01*
X125183175Y-98083118D01*
X125117400Y-97984680D01*
X125072096Y-97875305D01*
X125049000Y-97759194D01*
X125049000Y-97640806D01*
X125072096Y-97524695D01*
X125117400Y-97415320D01*
X125183175Y-97316882D01*
X125266882Y-97233175D01*
X125365320Y-97167400D01*
X125474695Y-97122096D01*
X125590806Y-97099000D01*
X125709194Y-97099000D01*
X125825305Y-97122096D01*
X125825305Y-97122096D01*
G37*
G36*
X129701000Y-97101000D02*
X127099000Y-97101000D01*
X127099000Y-95899000D01*
X129701000Y-95899000D01*
X129701000Y-97101000D01*
X129701000Y-97101000D01*
G37*
G36*
X135484466Y-95658565D02*
X135523137Y-95670296D01*
X135558779Y-95689348D01*
X135590017Y-95714983D01*
X135615652Y-95746221D01*
X135634704Y-95781863D01*
X135646435Y-95820534D01*
X135651000Y-95866888D01*
X135651000Y-96518112D01*
X135646435Y-96564466D01*
X135634704Y-96603137D01*
X135615652Y-96638779D01*
X135590017Y-96670017D01*
X135558779Y-96695652D01*
X135523137Y-96714704D01*
X135484466Y-96726435D01*
X135438112Y-96731000D01*
X134361888Y-96731000D01*
X134315534Y-96726435D01*
X134276863Y-96714704D01*
X134241221Y-96695652D01*
X134209983Y-96670017D01*
X134184348Y-96638779D01*
X134165296Y-96603137D01*
X134153565Y-96564466D01*
X134149000Y-96518112D01*
X134149000Y-95866888D01*
X134153565Y-95820534D01*
X134165296Y-95781863D01*
X134184348Y-95746221D01*
X134209983Y-95714983D01*
X134241221Y-95689348D01*
X134276863Y-95670296D01*
X134315534Y-95658565D01*
X134361888Y-95654000D01*
X135438112Y-95654000D01*
X135484466Y-95658565D01*
X135484466Y-95658565D01*
G37*
G36*
X144094466Y-95251065D02*
X144133137Y-95262796D01*
X144168779Y-95281848D01*
X144200017Y-95307483D01*
X144225652Y-95338721D01*
X144244704Y-95374363D01*
X144256435Y-95413034D01*
X144261000Y-95459388D01*
X144261000Y-96110612D01*
X144256435Y-96156966D01*
X144244704Y-96195637D01*
X144225652Y-96231279D01*
X144200017Y-96262517D01*
X144168779Y-96288152D01*
X144133137Y-96307204D01*
X144094466Y-96318935D01*
X144048112Y-96323500D01*
X142971888Y-96323500D01*
X142925534Y-96318935D01*
X142886863Y-96307204D01*
X142851221Y-96288152D01*
X142819983Y-96262517D01*
X142794348Y-96231279D01*
X142775296Y-96195637D01*
X142763565Y-96156966D01*
X142759000Y-96110612D01*
X142759000Y-95459388D01*
X142763565Y-95413034D01*
X142775296Y-95374363D01*
X142794348Y-95338721D01*
X142819983Y-95307483D01*
X142851221Y-95281848D01*
X142886863Y-95262796D01*
X142925534Y-95251065D01*
X142971888Y-95246500D01*
X144048112Y-95246500D01*
X144094466Y-95251065D01*
X144094466Y-95251065D01*
G37*
G36*
X126646232Y-93313483D02*
X126834919Y-93370721D01*
X127008817Y-93463671D01*
X127161239Y-93588761D01*
X127286329Y-93741183D01*
X127379279Y-93915081D01*
X127436517Y-94103768D01*
X127455843Y-94300000D01*
X127436517Y-94496232D01*
X127379279Y-94684919D01*
X127286329Y-94858817D01*
X127161239Y-95011239D01*
X127008817Y-95136329D01*
X126834919Y-95229279D01*
X126646232Y-95286517D01*
X126499176Y-95301000D01*
X124800824Y-95301000D01*
X124653768Y-95286517D01*
X124465081Y-95229279D01*
X124291183Y-95136329D01*
X124138761Y-95011239D01*
X124013671Y-94858817D01*
X123920721Y-94684919D01*
X123863483Y-94496232D01*
X123844157Y-94300000D01*
X123863483Y-94103768D01*
X123920721Y-93915081D01*
X124013671Y-93741183D01*
X124138761Y-93588761D01*
X124291183Y-93463671D01*
X124465081Y-93370721D01*
X124653768Y-93313483D01*
X124800824Y-93299000D01*
X126499176Y-93299000D01*
X126646232Y-93313483D01*
X126646232Y-93313483D01*
G37*
G36*
X132911000Y-94891000D02*
X131909000Y-94891000D01*
X131909000Y-93589000D01*
X132911000Y-93589000D01*
X132911000Y-94891000D01*
X132911000Y-94891000D01*
G37*
G36*
X136211000Y-94891000D02*
X135209000Y-94891000D01*
X135209000Y-93589000D01*
X136211000Y-93589000D01*
X136211000Y-94891000D01*
X136211000Y-94891000D01*
G37*
G36*
X144094466Y-93376065D02*
X144133137Y-93387796D01*
X144168779Y-93406848D01*
X144200017Y-93432483D01*
X144225652Y-93463721D01*
X144244704Y-93499363D01*
X144256435Y-93538034D01*
X144261000Y-93584388D01*
X144261000Y-94235612D01*
X144256435Y-94281966D01*
X144244704Y-94320637D01*
X144225652Y-94356279D01*
X144200017Y-94387517D01*
X144168779Y-94413152D01*
X144133137Y-94432204D01*
X144094466Y-94443935D01*
X144048112Y-94448500D01*
X142971888Y-94448500D01*
X142925534Y-94443935D01*
X142886863Y-94432204D01*
X142851221Y-94413152D01*
X142819983Y-94387517D01*
X142794348Y-94356279D01*
X142775296Y-94320637D01*
X142763565Y-94281966D01*
X142759000Y-94235612D01*
X142759000Y-93584388D01*
X142763565Y-93538034D01*
X142775296Y-93499363D01*
X142794348Y-93463721D01*
X142819983Y-93432483D01*
X142851221Y-93406848D01*
X142886863Y-93387796D01*
X142925534Y-93376065D01*
X142971888Y-93371500D01*
X144048112Y-93371500D01*
X144094466Y-93376065D01*
X144094466Y-93376065D01*
G37*
G36*
X145301938Y-93541716D02*
X145322556Y-93547970D01*
X145341556Y-93558126D01*
X145358208Y-93571792D01*
X145371874Y-93588444D01*
X145382030Y-93607444D01*
X145388284Y-93628062D01*
X145391000Y-93655640D01*
X145391000Y-94164360D01*
X145388284Y-94191938D01*
X145382030Y-94212556D01*
X145371874Y-94231556D01*
X145358208Y-94248208D01*
X145341556Y-94261874D01*
X145322556Y-94272030D01*
X145301938Y-94278284D01*
X145274360Y-94281000D01*
X144815640Y-94281000D01*
X144788062Y-94278284D01*
X144767444Y-94272030D01*
X144748444Y-94261874D01*
X144731792Y-94248208D01*
X144718126Y-94231556D01*
X144707970Y-94212556D01*
X144701716Y-94191938D01*
X144699000Y-94164360D01*
X144699000Y-93655640D01*
X144701716Y-93628062D01*
X144707970Y-93607444D01*
X144718126Y-93588444D01*
X144731792Y-93571792D01*
X144748444Y-93558126D01*
X144767444Y-93547970D01*
X144788062Y-93541716D01*
X144815640Y-93539000D01*
X145274360Y-93539000D01*
X145301938Y-93541716D01*
X145301938Y-93541716D01*
G37*
G36*
X146271938Y-93541716D02*
X146292556Y-93547970D01*
X146311556Y-93558126D01*
X146328208Y-93571792D01*
X146341874Y-93588444D01*
X146352030Y-93607444D01*
X146358284Y-93628062D01*
X146361000Y-93655640D01*
X146361000Y-94164360D01*
X146358284Y-94191938D01*
X146352030Y-94212556D01*
X146341874Y-94231556D01*
X146328208Y-94248208D01*
X146311556Y-94261874D01*
X146292556Y-94272030D01*
X146271938Y-94278284D01*
X146244360Y-94281000D01*
X145785640Y-94281000D01*
X145758062Y-94278284D01*
X145737444Y-94272030D01*
X145718444Y-94261874D01*
X145701792Y-94248208D01*
X145688126Y-94231556D01*
X145677970Y-94212556D01*
X145671716Y-94191938D01*
X145669000Y-94164360D01*
X145669000Y-93655640D01*
X145671716Y-93628062D01*
X145677970Y-93607444D01*
X145688126Y-93588444D01*
X145701792Y-93571792D01*
X145718444Y-93558126D01*
X145737444Y-93547970D01*
X145758062Y-93541716D01*
X145785640Y-93539000D01*
X146244360Y-93539000D01*
X146271938Y-93541716D01*
X146271938Y-93541716D01*
G37*
G36*
X155748228Y-91931703D02*
X155903100Y-91995853D01*
X156042481Y-92088985D01*
X156161015Y-92207519D01*
X156254147Y-92346900D01*
X156318297Y-92501772D01*
X156351000Y-92666184D01*
X156351000Y-92833816D01*
X156318297Y-92998228D01*
X156254147Y-93153100D01*
X156161015Y-93292481D01*
X156042481Y-93411015D01*
X155903100Y-93504147D01*
X155748228Y-93568297D01*
X155583816Y-93601000D01*
X155416184Y-93601000D01*
X155251772Y-93568297D01*
X155096900Y-93504147D01*
X154957519Y-93411015D01*
X154838985Y-93292481D01*
X154745853Y-93153100D01*
X154681703Y-92998228D01*
X154649000Y-92833816D01*
X154649000Y-92666184D01*
X154681703Y-92501772D01*
X154745853Y-92346900D01*
X154838985Y-92207519D01*
X154957519Y-92088985D01*
X155096900Y-91995853D01*
X155251772Y-91931703D01*
X155416184Y-91899000D01*
X155583816Y-91899000D01*
X155748228Y-91931703D01*
X155748228Y-91931703D01*
G37*
G36*
X158288228Y-91931703D02*
X158443100Y-91995853D01*
X158582481Y-92088985D01*
X158701015Y-92207519D01*
X158794147Y-92346900D01*
X158858297Y-92501772D01*
X158891000Y-92666184D01*
X158891000Y-92833816D01*
X158858297Y-92998228D01*
X158794147Y-93153100D01*
X158701015Y-93292481D01*
X158582481Y-93411015D01*
X158443100Y-93504147D01*
X158288228Y-93568297D01*
X158123816Y-93601000D01*
X157956184Y-93601000D01*
X157791772Y-93568297D01*
X157636900Y-93504147D01*
X157497519Y-93411015D01*
X157378985Y-93292481D01*
X157285853Y-93153100D01*
X157221703Y-92998228D01*
X157189000Y-92833816D01*
X157189000Y-92666184D01*
X157221703Y-92501772D01*
X157285853Y-92346900D01*
X157378985Y-92207519D01*
X157497519Y-92088985D01*
X157636900Y-91995853D01*
X157791772Y-91931703D01*
X157956184Y-91899000D01*
X158123816Y-91899000D01*
X158288228Y-91931703D01*
X158288228Y-91931703D01*
G37*
G36*
X128835734Y-90893232D02*
X129045202Y-90979996D01*
X129233723Y-91105962D01*
X129394038Y-91266277D01*
X129520004Y-91454798D01*
X129606768Y-91664266D01*
X129651000Y-91886635D01*
X129651000Y-92113365D01*
X129606768Y-92335734D01*
X129520004Y-92545202D01*
X129394038Y-92733723D01*
X129233723Y-92894038D01*
X129045202Y-93020004D01*
X128835734Y-93106768D01*
X128613365Y-93151000D01*
X128386635Y-93151000D01*
X128164266Y-93106768D01*
X127954798Y-93020004D01*
X127766277Y-92894038D01*
X127605962Y-92733723D01*
X127479996Y-92545202D01*
X127393232Y-92335734D01*
X127349000Y-92113365D01*
X127349000Y-91886635D01*
X127393232Y-91664266D01*
X127479996Y-91454798D01*
X127605962Y-91266277D01*
X127766277Y-91105962D01*
X127954798Y-90979996D01*
X128164266Y-90893232D01*
X128386635Y-90849000D01*
X128613365Y-90849000D01*
X128835734Y-90893232D01*
X128835734Y-90893232D01*
G37*
M02*
