M48
;DRILL file {KiCad 5.0.2-bee76a0~70~ubuntu18.04.1} date Mon 29 Jun 2020 01:54:19 AM MST
;FORMAT={-:-/ absolute / metric / decimal}
FMAT,2
METRIC,TZ
T1C0.400
T2C0.800
T3C0.900
T4C1.100
T5C2.200
%
G90
G05
T1
X126.3Y-108.1
X127.38Y-108.1
X130.65Y-102.63
X131.53Y-102.64
X132.42Y-102.64
X134.15Y-103.15
X134.4Y-99.6
X134.4Y-101.1
X134.99Y-106.92
X135.Y-108.2
X135.095Y-105.6
X136.675Y-108.4
X136.81Y-93.1
X137.775Y-108.4
X138.875Y-108.4
X140.75Y-108.72
X141.5Y-93.
X142.5Y-92.09
X145.5Y-93.
X146.07Y-101.97
X146.13Y-104.03
X146.6Y-104.97
X147.71Y-96.95
X148.74Y-94.91
X148.74Y-96.12
X149.83Y-97.6
X154.18Y-108.96
X155.75Y-106.
X161.15Y-92.78
T2
X164.25Y-99.
X164.25Y-101.54
X155.5Y-92.75
X158.04Y-92.75
T4
X125.65Y-97.7
X125.65Y-102.3
T5
X128.5Y-92.
X161.5Y-108.
T3
X126.45Y-94.3G85X124.85Y-94.3
G05
X126.45Y-105.7G85X124.85Y-105.7
G05
T0
M30
