G04 #@! TF.GenerationSoftware,KiCad,Pcbnew,5.0.2-bee76a0~70~ubuntu18.04.1*
G04 #@! TF.CreationDate,2020-06-29T01:54:23-07:00*
G04 #@! TF.ProjectId,qrng,71726e67-2e6b-4696-9361-645f70636258,1*
G04 #@! TF.SameCoordinates,Original*
G04 #@! TF.FileFunction,Legend,Bot*
G04 #@! TF.FilePolarity,Positive*
%FSLAX46Y46*%
G04 Gerber Fmt 4.6, Leading zero omitted, Abs format (unit mm)*
G04 Created by KiCad (PCBNEW 5.0.2-bee76a0~70~ubuntu18.04.1) date Mon 29 Jun 2020 01:54:23 AM MST*
%MOMM*%
%LPD*%
G01*
G04 APERTURE LIST*
%ADD10C,0.120000*%
%ADD11C,0.150000*%
G04 APERTURE END LIST*
D10*
G04 #@! TO.C,J1*
X123600000Y-106145000D02*
X122550000Y-106145000D01*
X123600000Y-93855000D02*
X122550000Y-93855000D01*
X126770000Y-95600000D02*
X126770000Y-104400000D01*
D11*
G04 #@! TO.C,BS1*
G36*
X161830000Y-95170000D02*
X151670000Y-95170000D01*
X161830000Y-105330000D01*
X161830000Y-95170000D01*
G37*
X161830000Y-95170000D02*
X151670000Y-95170000D01*
X161830000Y-105330000D01*
X161830000Y-95170000D01*
X151670000Y-95170000D02*
X161830000Y-105330000D01*
X151670000Y-95170000D02*
X151670000Y-105330000D01*
X161830000Y-95170000D02*
X151670000Y-95170000D01*
X161830000Y-105330000D02*
X161830000Y-95170000D01*
X151670000Y-105330000D02*
X161830000Y-105330000D01*
D10*
G04 #@! TO.C,D1*
X136310000Y-93240000D02*
X132410000Y-93240000D01*
X136310000Y-95240000D02*
X132410000Y-95240000D01*
X136310000Y-93240000D02*
X136310000Y-95240000D01*
G04 #@! TO.C,FB1*
X134190000Y-97388578D02*
X134190000Y-96871422D01*
X135610000Y-97388578D02*
X135610000Y-96871422D01*
G04 #@! TO.C,FB2*
X144220000Y-94588922D02*
X144220000Y-95106078D01*
X142800000Y-94588922D02*
X142800000Y-95106078D01*
G04 #@! TO.C,U1*
X136250000Y-103780000D02*
X142260000Y-103780000D01*
X138500000Y-96960000D02*
X142260000Y-96960000D01*
X142260000Y-103780000D02*
X142260000Y-102520000D01*
X142260000Y-96960000D02*
X142260000Y-98220000D01*
G04 #@! TO.C,R2*
X158128027Y-90617856D02*
G75*
G02X158100000Y-94900000I-1378027J-2132144D01*
G01*
X155424524Y-94884388D02*
G75*
G02X155450000Y-90600000I1325476J2134388D01*
G01*
X155450000Y-94900000D02*
X158100000Y-94900000D01*
X155450000Y-90600000D02*
X158100000Y-90600000D01*
G04 #@! TO.C,R3*
X166400000Y-98950000D02*
X166400000Y-101600000D01*
X162100000Y-98950000D02*
X162100000Y-101600000D01*
X162115612Y-98924524D02*
G75*
G02X166400000Y-98950000I2134388J-1325476D01*
G01*
X166382144Y-101628027D02*
G75*
G02X162100000Y-101600000I-2132144J1378027D01*
G01*
G04 #@! TO.C,D2*
X158435000Y-109460000D02*
X155750000Y-109460000D01*
X158435000Y-107540000D02*
X158435000Y-109460000D01*
X155750000Y-107540000D02*
X158435000Y-107540000D01*
G04 #@! TO.C,J1*
D11*
X125983333Y-91452380D02*
X125983333Y-92166666D01*
X126030952Y-92309523D01*
X126126190Y-92404761D01*
X126269047Y-92452380D01*
X126364285Y-92452380D01*
X124983333Y-92452380D02*
X125554761Y-92452380D01*
X125269047Y-92452380D02*
X125269047Y-91452380D01*
X125364285Y-91595238D01*
X125459523Y-91690476D01*
X125554761Y-91738095D01*
G04 #@! TO.C,BS1*
X157630952Y-93828571D02*
X157488095Y-93876190D01*
X157440476Y-93923809D01*
X157392857Y-94019047D01*
X157392857Y-94161904D01*
X157440476Y-94257142D01*
X157488095Y-94304761D01*
X157583333Y-94352380D01*
X157964285Y-94352380D01*
X157964285Y-93352380D01*
X157630952Y-93352380D01*
X157535714Y-93400000D01*
X157488095Y-93447619D01*
X157440476Y-93542857D01*
X157440476Y-93638095D01*
X157488095Y-93733333D01*
X157535714Y-93780952D01*
X157630952Y-93828571D01*
X157964285Y-93828571D01*
X157011904Y-94304761D02*
X156869047Y-94352380D01*
X156630952Y-94352380D01*
X156535714Y-94304761D01*
X156488095Y-94257142D01*
X156440476Y-94161904D01*
X156440476Y-94066666D01*
X156488095Y-93971428D01*
X156535714Y-93923809D01*
X156630952Y-93876190D01*
X156821428Y-93828571D01*
X156916666Y-93780952D01*
X156964285Y-93733333D01*
X157011904Y-93638095D01*
X157011904Y-93542857D01*
X156964285Y-93447619D01*
X156916666Y-93400000D01*
X156821428Y-93352380D01*
X156583333Y-93352380D01*
X156440476Y-93400000D01*
X155488095Y-94352380D02*
X156059523Y-94352380D01*
X155773809Y-94352380D02*
X155773809Y-93352380D01*
X155869047Y-93495238D01*
X155964285Y-93590476D01*
X156059523Y-93638095D01*
G04 #@! TD*
M02*
