G04 #@! TF.GenerationSoftware,KiCad,Pcbnew,5.0.2-bee76a0~70~ubuntu18.04.1*
G04 #@! TF.CreationDate,2020-06-29T01:54:23-07:00*
G04 #@! TF.ProjectId,qrng,71726e67-2e6b-4696-9361-645f70636258,1*
G04 #@! TF.SameCoordinates,Original*
G04 #@! TF.FileFunction,Legend,Top*
G04 #@! TF.FilePolarity,Positive*
%FSLAX46Y46*%
G04 Gerber Fmt 4.6, Leading zero omitted, Abs format (unit mm)*
G04 Created by KiCad (PCBNEW 5.0.2-bee76a0~70~ubuntu18.04.1) date Mon 29 Jun 2020 01:54:23 AM MST*
%MOMM*%
%LPD*%
G01*
G04 APERTURE LIST*
%ADD10C,0.037500*%
%ADD11C,0.300000*%
%ADD12C,0.120000*%
%ADD13C,0.150000*%
G04 APERTURE END LIST*
D10*
X134067857Y-109627380D02*
X134139285Y-109651190D01*
X134258333Y-109651190D01*
X134305952Y-109627380D01*
X134329761Y-109603571D01*
X134353571Y-109555952D01*
X134353571Y-109508333D01*
X134329761Y-109460714D01*
X134305952Y-109436904D01*
X134258333Y-109413095D01*
X134163095Y-109389285D01*
X134115476Y-109365476D01*
X134091666Y-109341666D01*
X134067857Y-109294047D01*
X134067857Y-109246428D01*
X134091666Y-109198809D01*
X134115476Y-109175000D01*
X134163095Y-109151190D01*
X134282142Y-109151190D01*
X134353571Y-109175000D01*
X134520238Y-109151190D02*
X134639285Y-109651190D01*
X134734523Y-109294047D01*
X134829761Y-109651190D01*
X134948809Y-109151190D01*
X135139285Y-109651190D02*
X135139285Y-109151190D01*
X135258333Y-109151190D01*
X135329761Y-109175000D01*
X135377380Y-109222619D01*
X135401190Y-109270238D01*
X135425000Y-109365476D01*
X135425000Y-109436904D01*
X135401190Y-109532142D01*
X135377380Y-109579761D01*
X135329761Y-109627380D01*
X135258333Y-109651190D01*
X135139285Y-109651190D01*
X135639285Y-109651190D02*
X135639285Y-109151190D01*
X135972619Y-109151190D02*
X136067857Y-109151190D01*
X136115476Y-109175000D01*
X136163095Y-109222619D01*
X136186904Y-109317857D01*
X136186904Y-109484523D01*
X136163095Y-109579761D01*
X136115476Y-109627380D01*
X136067857Y-109651190D01*
X135972619Y-109651190D01*
X135925000Y-109627380D01*
X135877380Y-109579761D01*
X135853571Y-109484523D01*
X135853571Y-109317857D01*
X135877380Y-109222619D01*
X135925000Y-109175000D01*
X135972619Y-109151190D01*
X136520238Y-109817857D02*
X136520238Y-109103571D01*
X136853571Y-109627380D02*
X136925000Y-109651190D01*
X137044047Y-109651190D01*
X137091666Y-109627380D01*
X137115476Y-109603571D01*
X137139285Y-109555952D01*
X137139285Y-109508333D01*
X137115476Y-109460714D01*
X137091666Y-109436904D01*
X137044047Y-109413095D01*
X136948809Y-109389285D01*
X136901190Y-109365476D01*
X136877380Y-109341666D01*
X136853571Y-109294047D01*
X136853571Y-109246428D01*
X136877380Y-109198809D01*
X136901190Y-109175000D01*
X136948809Y-109151190D01*
X137067857Y-109151190D01*
X137139285Y-109175000D01*
X137639285Y-109603571D02*
X137615476Y-109627380D01*
X137544047Y-109651190D01*
X137496428Y-109651190D01*
X137425000Y-109627380D01*
X137377380Y-109579761D01*
X137353571Y-109532142D01*
X137329761Y-109436904D01*
X137329761Y-109365476D01*
X137353571Y-109270238D01*
X137377380Y-109222619D01*
X137425000Y-109175000D01*
X137496428Y-109151190D01*
X137544047Y-109151190D01*
X137615476Y-109175000D01*
X137639285Y-109198809D01*
X138091666Y-109651190D02*
X137853571Y-109651190D01*
X137853571Y-109151190D01*
X138258333Y-109651190D02*
X138258333Y-109151190D01*
X138544047Y-109651190D02*
X138329761Y-109365476D01*
X138544047Y-109151190D02*
X138258333Y-109436904D01*
X138877380Y-109817857D02*
X138877380Y-109103571D01*
X139163095Y-109151190D02*
X139448809Y-109151190D01*
X139305952Y-109651190D02*
X139305952Y-109151190D01*
X139901190Y-109651190D02*
X139734523Y-109413095D01*
X139615476Y-109651190D02*
X139615476Y-109151190D01*
X139805952Y-109151190D01*
X139853571Y-109175000D01*
X139877380Y-109198809D01*
X139901190Y-109246428D01*
X139901190Y-109317857D01*
X139877380Y-109365476D01*
X139853571Y-109389285D01*
X139805952Y-109413095D01*
X139615476Y-109413095D01*
X140091666Y-109508333D02*
X140329761Y-109508333D01*
X140044047Y-109651190D02*
X140210714Y-109151190D01*
X140377380Y-109651190D01*
X140829761Y-109603571D02*
X140805952Y-109627380D01*
X140734523Y-109651190D01*
X140686904Y-109651190D01*
X140615476Y-109627380D01*
X140567857Y-109579761D01*
X140544047Y-109532142D01*
X140520238Y-109436904D01*
X140520238Y-109365476D01*
X140544047Y-109270238D01*
X140567857Y-109222619D01*
X140615476Y-109175000D01*
X140686904Y-109151190D01*
X140734523Y-109151190D01*
X140805952Y-109175000D01*
X140829761Y-109198809D01*
X141044047Y-109389285D02*
X141210714Y-109389285D01*
X141282142Y-109651190D02*
X141044047Y-109651190D01*
X141044047Y-109151190D01*
X141282142Y-109151190D01*
D11*
X137785714Y-91678571D02*
X138285714Y-93178571D01*
X138785714Y-91678571D01*
X140071428Y-93178571D02*
X139214285Y-93178571D01*
X139642857Y-93178571D02*
X139642857Y-91678571D01*
X139500000Y-91892857D01*
X139357142Y-92035714D01*
X139214285Y-92107142D01*
D10*
X132523809Y-91273809D02*
X132476190Y-91250000D01*
X132428571Y-91202380D01*
X132357142Y-91130952D01*
X132309523Y-91107142D01*
X132261904Y-91107142D01*
X132285714Y-91226190D02*
X132238095Y-91202380D01*
X132190476Y-91154761D01*
X132166666Y-91059523D01*
X132166666Y-90892857D01*
X132190476Y-90797619D01*
X132238095Y-90750000D01*
X132285714Y-90726190D01*
X132380952Y-90726190D01*
X132428571Y-90750000D01*
X132476190Y-90797619D01*
X132500000Y-90892857D01*
X132500000Y-91059523D01*
X132476190Y-91154761D01*
X132428571Y-91202380D01*
X132380952Y-91226190D01*
X132285714Y-91226190D01*
X132928571Y-90892857D02*
X132928571Y-91226190D01*
X132714285Y-90892857D02*
X132714285Y-91154761D01*
X132738095Y-91202380D01*
X132785714Y-91226190D01*
X132857142Y-91226190D01*
X132904761Y-91202380D01*
X132928571Y-91178571D01*
X133380952Y-91226190D02*
X133380952Y-90964285D01*
X133357142Y-90916666D01*
X133309523Y-90892857D01*
X133214285Y-90892857D01*
X133166666Y-90916666D01*
X133380952Y-91202380D02*
X133333333Y-91226190D01*
X133214285Y-91226190D01*
X133166666Y-91202380D01*
X133142857Y-91154761D01*
X133142857Y-91107142D01*
X133166666Y-91059523D01*
X133214285Y-91035714D01*
X133333333Y-91035714D01*
X133380952Y-91011904D01*
X133619047Y-90892857D02*
X133619047Y-91226190D01*
X133619047Y-90940476D02*
X133642857Y-90916666D01*
X133690476Y-90892857D01*
X133761904Y-90892857D01*
X133809523Y-90916666D01*
X133833333Y-90964285D01*
X133833333Y-91226190D01*
X134000000Y-90892857D02*
X134190476Y-90892857D01*
X134071428Y-90726190D02*
X134071428Y-91154761D01*
X134095238Y-91202380D01*
X134142857Y-91226190D01*
X134190476Y-91226190D01*
X134571428Y-90892857D02*
X134571428Y-91226190D01*
X134357142Y-90892857D02*
X134357142Y-91154761D01*
X134380952Y-91202380D01*
X134428571Y-91226190D01*
X134500000Y-91226190D01*
X134547619Y-91202380D01*
X134571428Y-91178571D01*
X134809523Y-91226190D02*
X134809523Y-90892857D01*
X134809523Y-90940476D02*
X134833333Y-90916666D01*
X134880952Y-90892857D01*
X134952380Y-90892857D01*
X135000000Y-90916666D01*
X135023809Y-90964285D01*
X135023809Y-91226190D01*
X135023809Y-90964285D02*
X135047619Y-90916666D01*
X135095238Y-90892857D01*
X135166666Y-90892857D01*
X135214285Y-90916666D01*
X135238095Y-90964285D01*
X135238095Y-91226190D01*
X136142857Y-91226190D02*
X135976190Y-90988095D01*
X135857142Y-91226190D02*
X135857142Y-90726190D01*
X136047619Y-90726190D01*
X136095238Y-90750000D01*
X136119047Y-90773809D01*
X136142857Y-90821428D01*
X136142857Y-90892857D01*
X136119047Y-90940476D01*
X136095238Y-90964285D01*
X136047619Y-90988095D01*
X135857142Y-90988095D01*
X136571428Y-91226190D02*
X136571428Y-90964285D01*
X136547619Y-90916666D01*
X136500000Y-90892857D01*
X136404761Y-90892857D01*
X136357142Y-90916666D01*
X136571428Y-91202380D02*
X136523809Y-91226190D01*
X136404761Y-91226190D01*
X136357142Y-91202380D01*
X136333333Y-91154761D01*
X136333333Y-91107142D01*
X136357142Y-91059523D01*
X136404761Y-91035714D01*
X136523809Y-91035714D01*
X136571428Y-91011904D01*
X136809523Y-90892857D02*
X136809523Y-91226190D01*
X136809523Y-90940476D02*
X136833333Y-90916666D01*
X136880952Y-90892857D01*
X136952380Y-90892857D01*
X137000000Y-90916666D01*
X137023809Y-90964285D01*
X137023809Y-91226190D01*
X137476190Y-91226190D02*
X137476190Y-90726190D01*
X137476190Y-91202380D02*
X137428571Y-91226190D01*
X137333333Y-91226190D01*
X137285714Y-91202380D01*
X137261904Y-91178571D01*
X137238095Y-91130952D01*
X137238095Y-90988095D01*
X137261904Y-90940476D01*
X137285714Y-90916666D01*
X137333333Y-90892857D01*
X137428571Y-90892857D01*
X137476190Y-90916666D01*
X137785714Y-91226190D02*
X137738095Y-91202380D01*
X137714285Y-91178571D01*
X137690476Y-91130952D01*
X137690476Y-90988095D01*
X137714285Y-90940476D01*
X137738095Y-90916666D01*
X137785714Y-90892857D01*
X137857142Y-90892857D01*
X137904761Y-90916666D01*
X137928571Y-90940476D01*
X137952380Y-90988095D01*
X137952380Y-91130952D01*
X137928571Y-91178571D01*
X137904761Y-91202380D01*
X137857142Y-91226190D01*
X137785714Y-91226190D01*
X138166666Y-91226190D02*
X138166666Y-90892857D01*
X138166666Y-90940476D02*
X138190476Y-90916666D01*
X138238095Y-90892857D01*
X138309523Y-90892857D01*
X138357142Y-90916666D01*
X138380952Y-90964285D01*
X138380952Y-91226190D01*
X138380952Y-90964285D02*
X138404761Y-90916666D01*
X138452380Y-90892857D01*
X138523809Y-90892857D01*
X138571428Y-90916666D01*
X138595238Y-90964285D01*
X138595238Y-91226190D01*
X139214285Y-91226190D02*
X139214285Y-90726190D01*
X139500000Y-91226190D01*
X139500000Y-90726190D01*
X139952380Y-90892857D02*
X139952380Y-91226190D01*
X139738095Y-90892857D02*
X139738095Y-91154761D01*
X139761904Y-91202380D01*
X139809523Y-91226190D01*
X139880952Y-91226190D01*
X139928571Y-91202380D01*
X139952380Y-91178571D01*
X140190476Y-91226190D02*
X140190476Y-90892857D01*
X140190476Y-90940476D02*
X140214285Y-90916666D01*
X140261904Y-90892857D01*
X140333333Y-90892857D01*
X140380952Y-90916666D01*
X140404761Y-90964285D01*
X140404761Y-91226190D01*
X140404761Y-90964285D02*
X140428571Y-90916666D01*
X140476190Y-90892857D01*
X140547619Y-90892857D01*
X140595238Y-90916666D01*
X140619047Y-90964285D01*
X140619047Y-91226190D01*
X140857142Y-91226190D02*
X140857142Y-90726190D01*
X140857142Y-90916666D02*
X140904761Y-90892857D01*
X141000000Y-90892857D01*
X141047619Y-90916666D01*
X141071428Y-90940476D01*
X141095238Y-90988095D01*
X141095238Y-91130952D01*
X141071428Y-91178571D01*
X141047619Y-91202380D01*
X141000000Y-91226190D01*
X140904761Y-91226190D01*
X140857142Y-91202380D01*
X141500000Y-91202380D02*
X141452380Y-91226190D01*
X141357142Y-91226190D01*
X141309523Y-91202380D01*
X141285714Y-91154761D01*
X141285714Y-90964285D01*
X141309523Y-90916666D01*
X141357142Y-90892857D01*
X141452380Y-90892857D01*
X141500000Y-90916666D01*
X141523809Y-90964285D01*
X141523809Y-91011904D01*
X141285714Y-91059523D01*
X141738095Y-91226190D02*
X141738095Y-90892857D01*
X141738095Y-90988095D02*
X141761904Y-90940476D01*
X141785714Y-90916666D01*
X141833333Y-90892857D01*
X141880952Y-90892857D01*
X142690476Y-90750000D02*
X142642857Y-90726190D01*
X142571428Y-90726190D01*
X142500000Y-90750000D01*
X142452380Y-90797619D01*
X142428571Y-90845238D01*
X142404761Y-90940476D01*
X142404761Y-91011904D01*
X142428571Y-91107142D01*
X142452380Y-91154761D01*
X142500000Y-91202380D01*
X142571428Y-91226190D01*
X142619047Y-91226190D01*
X142690476Y-91202380D01*
X142714285Y-91178571D01*
X142714285Y-91011904D01*
X142619047Y-91011904D01*
X143119047Y-91202380D02*
X143071428Y-91226190D01*
X142976190Y-91226190D01*
X142928571Y-91202380D01*
X142904761Y-91154761D01*
X142904761Y-90964285D01*
X142928571Y-90916666D01*
X142976190Y-90892857D01*
X143071428Y-90892857D01*
X143119047Y-90916666D01*
X143142857Y-90964285D01*
X143142857Y-91011904D01*
X142904761Y-91059523D01*
X143357142Y-90892857D02*
X143357142Y-91226190D01*
X143357142Y-90940476D02*
X143380952Y-90916666D01*
X143428571Y-90892857D01*
X143500000Y-90892857D01*
X143547619Y-90916666D01*
X143571428Y-90964285D01*
X143571428Y-91226190D01*
X144000000Y-91202380D02*
X143952380Y-91226190D01*
X143857142Y-91226190D01*
X143809523Y-91202380D01*
X143785714Y-91154761D01*
X143785714Y-90964285D01*
X143809523Y-90916666D01*
X143857142Y-90892857D01*
X143952380Y-90892857D01*
X144000000Y-90916666D01*
X144023809Y-90964285D01*
X144023809Y-91011904D01*
X143785714Y-91059523D01*
X144238095Y-91226190D02*
X144238095Y-90892857D01*
X144238095Y-90988095D02*
X144261904Y-90940476D01*
X144285714Y-90916666D01*
X144333333Y-90892857D01*
X144380952Y-90892857D01*
X144761904Y-91226190D02*
X144761904Y-90964285D01*
X144738095Y-90916666D01*
X144690476Y-90892857D01*
X144595238Y-90892857D01*
X144547619Y-90916666D01*
X144761904Y-91202380D02*
X144714285Y-91226190D01*
X144595238Y-91226190D01*
X144547619Y-91202380D01*
X144523809Y-91154761D01*
X144523809Y-91107142D01*
X144547619Y-91059523D01*
X144595238Y-91035714D01*
X144714285Y-91035714D01*
X144761904Y-91011904D01*
X144928571Y-90892857D02*
X145119047Y-90892857D01*
X145000000Y-90726190D02*
X145000000Y-91154761D01*
X145023809Y-91202380D01*
X145071428Y-91226190D01*
X145119047Y-91226190D01*
X145357142Y-91226190D02*
X145309523Y-91202380D01*
X145285714Y-91178571D01*
X145261904Y-91130952D01*
X145261904Y-90988095D01*
X145285714Y-90940476D01*
X145309523Y-90916666D01*
X145357142Y-90892857D01*
X145428571Y-90892857D01*
X145476190Y-90916666D01*
X145500000Y-90940476D01*
X145523809Y-90988095D01*
X145523809Y-91130952D01*
X145500000Y-91178571D01*
X145476190Y-91202380D01*
X145428571Y-91226190D01*
X145357142Y-91226190D01*
X145738095Y-91226190D02*
X145738095Y-90892857D01*
X145738095Y-90988095D02*
X145761904Y-90940476D01*
X145785714Y-90916666D01*
X145833333Y-90892857D01*
X145880952Y-90892857D01*
D12*
G04 #@! TO.C,R5*
X150630000Y-101382779D02*
X150630000Y-101057221D01*
X149610000Y-101382779D02*
X149610000Y-101057221D01*
G04 #@! TO.C,R4*
X149610000Y-104472779D02*
X149610000Y-104147221D01*
X150630000Y-104472779D02*
X150630000Y-104147221D01*
G04 #@! TO.C,U3*
X134170000Y-103680000D02*
X128170000Y-103680000D01*
X131170000Y-108900000D02*
X128170000Y-108900000D01*
G04 #@! TO.C,U2*
X144010000Y-95790000D02*
X143590000Y-95790000D01*
X144010000Y-102910000D02*
X144010000Y-102490000D01*
X144010000Y-102490000D02*
X145390000Y-102490000D01*
X136890000Y-102910000D02*
X137310000Y-102910000D01*
X136890000Y-95790000D02*
X137310000Y-95790000D01*
X144010000Y-102910000D02*
X143590000Y-102910000D01*
X144010000Y-95790000D02*
X144010000Y-96210000D01*
X136890000Y-95790000D02*
X136890000Y-96210000D01*
X136890000Y-102910000D02*
X136890000Y-102490000D01*
G04 #@! TO.C,Y1*
X150170000Y-106380000D02*
X142920000Y-106380000D01*
X142920000Y-106380000D02*
X142920000Y-109980000D01*
X142920000Y-109980000D02*
X150170000Y-109980000D01*
G04 #@! TO.C,C12*
X142560000Y-108112779D02*
X142560000Y-107787221D01*
X141540000Y-108112779D02*
X141540000Y-107787221D01*
G04 #@! TO.C,C13*
X152380000Y-108320279D02*
X152380000Y-107994721D01*
X153400000Y-108320279D02*
X153400000Y-107994721D01*
G04 #@! TO.C,R4*
D13*
X149142380Y-104476666D02*
X148666190Y-104810000D01*
X149142380Y-105048095D02*
X148142380Y-105048095D01*
X148142380Y-104667142D01*
X148190000Y-104571904D01*
X148237619Y-104524285D01*
X148332857Y-104476666D01*
X148475714Y-104476666D01*
X148570952Y-104524285D01*
X148618571Y-104571904D01*
X148666190Y-104667142D01*
X148666190Y-105048095D01*
X148475714Y-103619523D02*
X149142380Y-103619523D01*
X148094761Y-103857619D02*
X148809047Y-104095714D01*
X148809047Y-103476666D01*
G04 #@! TD*
M02*
